<svg clip-rule="evenodd" fill-rule="evenodd" stroke-linejoin="round" stroke-miterlimit="1.41421" viewBox="0 0 174 32" width="174" height="32" xmlns="http://www.w3.org/2000/svg" xmlns:xlink="http://www.w3.org/1999/xlink"><clipPath id="a"><path clip-rule="evenodd" d="m12.934.338c.78-.451 1.741-.451 2.521 0 2.693 1.554 8.98 5.184 11.673 6.739.78.45 1.261 1.283 1.261 2.184v13.478c0 .901-.481 1.734-1.261 2.184-2.693 1.555-8.98 5.184-11.673 6.739-.78.451-1.741.451-2.521 0-2.693-1.555-8.98-5.184-11.673-6.739-.78-.45-1.261-1.283-1.261-2.184 0-3.109 0-10.369 0-13.478 0-.901.481-1.734 1.261-2.184 2.693-1.555 8.98-5.185 11.673-6.739z"/></clipPath><clipPath id="b"><path clip-rule="evenodd" d="m12.934.338c.78-.451 1.741-.451 2.521 0 2.693 1.554 8.98 5.184 11.673 6.739.78.45 1.261 1.283 1.261 2.184v13.478c0 .901-.481 1.734-1.261 2.184-2.693 1.555-8.98 5.184-11.673 6.739-.78.451-1.741.451-2.521 0-2.693-1.555-8.98-5.184-11.673-6.739-.78-.45-1.261-1.283-1.261-2.184 0-3.109 0-10.369 0-13.478 0-.901.481-1.734 1.261-2.184 2.693-1.555 8.98-5.185 11.673-6.739z"/></clipPath><g clip-path="url(#a)"><path d="m12.934.338c.78-.451 1.741-.451 2.521 0 2.693 1.554 8.98 5.184 11.673 6.739.78.45 1.261 1.283 1.261 2.184v13.478c0 .901-.481 1.734-1.261 2.184-2.693 1.555-8.98 5.184-11.673 6.739-.78.451-1.741.451-2.521 0-2.693-1.555-8.98-5.184-11.673-6.739-.78-.45-1.261-1.283-1.261-2.184 0-3.109 0-10.369 0-13.478 0-.901.481-1.734 1.261-2.184 2.693-1.555 8.98-5.185 11.673-6.739z" fill="#0da7fe"/><path d="m0 24.197 7.373-8.197 6.821 16.39-14.194-8.193z" fill="#1a67fd"/><path d="m7.373 16-7.273-8.252-.1 16.449z" fill="#0da7fe"/><path d="m7.373 16 6.821-16.39-14.094 8.138z" fill="#05bbff"/><path d="m14.194-.39 14.195 24.585-21.016-8.195" fill="#00c9ff"/><path d="m14.194 32.418 14.195-8.221-21.016-8.197z" fill="#1a86fd"/><path d="m28.389 24.195v-16.39l-14.195-8.195z" fill="#05bbff"/></g><path d="m12.628 24.461c.118.005.236.007.355.007-.139 0-.277-.003-.414-.009zm.414.007h-.059.063zm.06-.001h-.035.043zm.059-.001-.027.001.039-.001zm.059-.001h-.021l.037-.001zm.059-.002-.016.001.037-.002zm.059-.002-.012.001.039-.002zm.059-.002h-.008l.042-.002zm.117-.006c-.021.001-.041.002-.062.003zm.059-.004-.057.004.061-.004zm.058-.004-.034.003.042-.003zm.059-.004-.027.002.039-.003zm.058-.005-.021.002.037-.003zm.058-.005-.016.002.037-.003zm.058-.005-.012.001.038-.003zm.058-.006-.008.001.042-.004zm.116-.012c-.021.002-.041.005-.062.007zm.057-.007-.055.007.059-.007zm.058-.007-.033.004.041-.005zm.057-.008-.025.004.037-.005zm.057-.007-.02.002.037-.005zm.058-.009-.016.003.036-.006zm.057-.008-.012.002.038-.006zm.057-.009-.008.001.042-.007zm.114-.019c-.021.004-.041.007-.061.01zm.056-.01-.053.009.057-.01zm.056-.01-.032.006.04-.008zm.057-.011-.025.005.037-.007zm.056-.011-.02.004.036-.007zm.056-.011-.015.003.036-.007zm.056-.012-.011.003.037-.008zm.056-.012-.007.002.041-.009zm.112-.025c-.02.005-.04.009-.06.014zm.055-.013-.051.012.055-.013zm.055-.013-.031.008.039-.01zm.055-.014-.024.006.036-.009zm.056-.014-.02.005.035-.009zm.055-.014-.015.004.035-.009zm.054-.015-.01.003.036-.01zm.055-.015-.007.002.041-.011zm.11-.031c-.02.006-.039.011-.059.017zm.053-.016-.049.015.054-.016zm.055-.016-.031.009.038-.011zm.054-.017-.024.008.035-.011zm.053-.017-.018.006.034-.011zm.054-.017-.014.005.034-.011zm.054-.017-.011.003.036-.012zm.053-.018-.007.002.041-.014zm.107-.037c-.019.006-.038.013-.057.02zm.053-.019-.049.017.053-.019zm.053-.019-.031.011.038-.014zm.052-.02-.023.009.035-.013zm.053-.019-.019.007.034-.014zm.052-.021-.014.006.034-.013zm.052-.02-.01.004.036-.014zm.053-.021-.007.003.04-.017zm.104-.043c-.018.008-.037.016-.056.023zm.051-.021-.048.02.052-.022zm.051-.022-.03.013.038-.016zm.052-.022-.024.01.035-.015zm.051-.023-.019.009.034-.016zm.051-.023-.015.007.035-.016zm.05-.023-.01.005.036-.017zm.051-.023-.007.003.042-.02zm.047-.022.055-.027c-.364-.174-.681-.363-.953-.574-.405-.313-.864-.779-1.277-1.43-.194-.305-.355-.626-.51-1.072-.151-.433-.484-1.638-.026-2.809.081-.206.311-.617.281-.613-.099.013-.707.804-.792 1.736-.108 1.199.435 2.324.435 2.324.023.058-1.393-.602-1.89-2.068-.695-2.05.61-3.909.664-3.984.424-.589.93-1.05 1.134-1.225l-.011-.001s.113-.129.077-.076c.147-.212.219-.41.128-.588-.065-.126-.312-.216-.613-.204-.14.005-.551.105-.742.153-.119.049-.325.122-.586.23-.332.138-.753.309-1.175.562-.749.449-1.337.951-1.839 1.455-1.343 1.351-1.69 2.819-1.532 3.116-.24-.45-.086-1.376.051-1.762.729-2.044 2.387-3.196 3.243-3.856 1.081-.833 1.594-1.671 1.66-1.839.333-.847.872-1.364 1.66-1.558.549-.134 1.209-.103 1.717.115 1.045.366 2.304 1.431 1.476 3.716-.279.719-.893 1.348-1.304 1.712-.097.107-.245.209-.535.535-.38.426-.773 1.032-.562.971.917-.599 2.037-.849 3.396-.767.929.057 1.886.291 2.35.435.3.092.707.234 1.183.43l.011-.077c-.431 3.118-2.43 5.739-5.174 7.04zm5.18-7.083-.004.029.009-.067zm.016-.124c-.003.025-.006.05-.009.076zm.006-.048-.005.035.008-.065zm.013-.121c-.003.025-.006.051-.008.076zm.005-.053-.005.044.007-.067zm.016-.192c-.004.051-.008.101-.012.151l.006-.076zm.003-.04-.002.021.005-.066zm.008-.13c-.001.025-.003.05-.004.075zm.003-.046-.002.027.003-.062zm.005-.126c-.001.025-.002.05-.003.075zm.002-.051-.001.034.002-.061zm.003-.122c-.001.025-.001.05-.002.075zm.001-.055-.001.044.001-.066zm-.022-.767c.015.214.023.43.023.648 0 .026-.001.051-.001.076l.001-.076c0-.218-.008-.434-.023-.648zm-8.716-3.339c-.04-.083-.013-.197.026-.255.046-.07.081-.117.229-.153.258-.062.373.128.383.204.016.114-.014.161-.051.204-.046.055-.148.116-.306.117-.045 0-.222.006-.281-.117zm-4.989-4.006c.02-.011.04-.023.06-.034l-.048.027zm3.947 17.165c-.663-.042-1.307-.154-1.925-.33l.055.015c.619.172 1.264.281 1.929.319zm-2.088-.378c-.072-.022-.144-.045-.215-.068l.053.017c.072.023.144.046.216.067zm-.322-.105c-.018-.006-.035-.012-.053-.018l.053.018c.018.007.036.013.053.019zm-.159-.056c-.105-.039-.21-.079-.314-.122l.052.021c.104.042.209.082.315.12zm-.417-.165c-.103-.043-.205-.089-.306-.136l.05.023c.102.047.204.092.307.135zm-.656-.309c-.79-.411-1.513-.933-2.148-1.545l.04.038c.639.609 1.365 1.127 2.157 1.533zm-2.227-1.622c-.183-.181-.358-.37-.526-.565l.036.041c.169.195.346.382.53.562zm-.805-.908c-.067-.087-.133-.175-.198-.265l.032.045c.065.089.132.177.2.264zm-.356-.492c-.372-.55-.686-1.142-.933-1.768l.021.052c.251.624.568 1.214.943 1.762zm-1.088-2.19c-.042-.125-.081-.251-.118-.377.042.144.088.288.137.43zm-.164-.541c-.025-.091-.048-.183-.07-.276.026.111.054.221.085.33zm-.132-.555c-.019-.093-.037-.187-.053-.281.019.113.041.226.065.337zm-.113-.681c-.002-.019-.005-.038-.007-.057.005.038.009.076.015.114zm-.026-.231c-.008-.077-.015-.154-.021-.232.007.097.016.194.027.29zm-.048-.939c0 .06.001.119.002.178l-.001-.059c-.001-.04-.001-.079-.001-.119zm18.34-.881c-.041-.425-.11-.842-.207-1.249.101.425.172.862.212 1.307zm-.323-1.688c-.021-.073-.043-.145-.066-.216l.017.053c.022.072.044.145.065.217zm-.101-.324c-.018-.053-.036-.107-.055-.16l.019.054c.018.053.036.106.054.16zm-.093-.265c-.077-.212-.162-.419-.254-.623l.023.051c.091.205.175.413.251.624zm-.499-1.123c-.009-.016-.017-.033-.026-.049l.026.049c.009.016.017.033.026.049zm-12.512-3.8c.016-.008.032-.017.048-.026l-.048.026c-.017.009-.033.018-.049.027zm.196-.103c.017-.009.033-.017.05-.026l-.05.026c-.016.008-.033.017-.049.025zm.2-.1c.016-.008.033-.016.05-.024l-.05.024c-.017.008-.034.017-.05.025zm.407-.184c.361-.152.733-.283 1.116-.389l-.055.015c-.382.109-.753.241-1.113.396zm1.225-.419c.092-.024.184-.047.276-.068l-.055.013c-.093.022-.184.045-.276.07zm.725-.16c.151-.027.303-.05.456-.07l-.057.008c-.153.02-.305.045-.456.072zm.745-.102c.116-.011.232-.02.35-.026l-.059.003c-.117.008-.233.017-.349.029zm.526-.035c.118-.004.236-.006.355-.006-.139 0-.277.003-.414.009z" fill="#0d98fe"/><path d="m12.897 23.636c.118.005.236.007.355.007-.138 0-.276-.003-.413-.009zm.415.007h-.06.064zm.059-.001-.034.001.042-.001zm.059-.001-.026.001.038-.001zm.059-.001-.021.001.038-.001zm.06-.002-.017.001.038-.001zm.058-.002-.012.001.039-.002zm.059-.002h-.008l.043-.002zm.118-.006c-.021.001-.042.002-.063.003zm.058-.004-.057.004.061-.004zm.059-.004-.034.003.042-.003zm.058-.004-.026.002.038-.003zm.058-.004-.02.001.037-.003zm.059-.005-.016.001.036-.003zm.058-.006-.012.001.038-.003zm.058-.005h-.008l.042-.004zm.115-.013c-.02.002-.041.005-.061.007zm.058-.007-.055.007.059-.007zm.057-.007-.033.004.041-.005zm.058-.007-.026.003.038-.005zm.057-.008-.02.003.036-.005zm.057-.008-.015.002.036-.005zm.057-.009-.011.002.037-.006zm.057-.009-.007.001.041-.006zm.114-.019c-.02.004-.04.007-.06.011zm.056-.01-.052.01.057-.01zm.057-.01-.032.006.04-.007zm.056-.011-.025.005.037-.007zm.057-.01-.02.003.036-.007zm.056-.012-.016.003.036-.007zm.056-.011-.011.002.036-.008zm.056-.012-.008.001.041-.009zm.111-.026c-.019.005-.039.01-.059.014zm.055-.012-.05.011.055-.012zm.056-.014-.032.008.04-.01zm.055-.013-.024.006.036-.009zm.055-.015-.019.005.035-.009zm.055-.014-.015.004.035-.009zm.055-.015-.011.003.037-.01zm.055-.015-.007.002.04-.011zm.109-.031c-.019.006-.039.012-.058.017zm.054-.015-.049.014.053-.016zm.054-.017-.031.01.039-.012zm.054-.016-.024.007.036-.011zm.054-.017-.019.006.035-.011zm.054-.018-.015.005.035-.011zm.053-.017-.01.003.036-.012zm.054-.018-.007.002.04-.014zm.107-.037c-.019.006-.038.013-.057.02zm.052-.019-.048.017.053-.018zm.053-.019-.03.011.038-.014zm.053-.02-.024.009.036-.013zm.052-.019-.018.007.034-.013zm.053-.02-.015.005.035-.013zm.052-.021-.01.004.035-.014zm.052-.021-.007.003.041-.016zm.105-.042c-.019.007-.038.015-.056.023zm.05-.022-.048.021.053-.023zm.052-.022-.03.013.038-.016zm.051-.022-.023.01.035-.015zm.051-.022-.018.008.034-.016zm.051-.023-.014.006.034-.016zm.051-.024-.01.005.036-.016zm.051-.023-.007.003.041-.019zm.047-.022.055-.026c-.364-.175-.681-.364-.953-.574-.406-.314-.864-.78-1.277-1.43-.194-.306-.355-.627-.511-1.073-.151-.433-.483-1.637-.025-2.809.081-.206.311-.617.281-.613-.1.013-.707.804-.792 1.737-.109 1.198.434 2.323.434 2.323.023.058-1.393-.602-1.89-2.068-.695-2.05.61-3.909.664-3.984.424-.589.93-1.049 1.134-1.225l-.01-.001s.113-.128.077-.076c.146-.212.219-.41.127-.588-.065-.126-.311-.216-.613-.204-.14.006-.55.105-.742.153-.119.049-.325.122-.586.23-.331.138-.752.309-1.174.562-.75.449-1.337.951-1.839 1.456-1.344 1.35-1.691 2.818-1.532 3.115-.24-.45-.087-1.376.051-1.762.729-2.044 2.387-3.196 3.243-3.856 1.08-.833 1.594-1.671 1.66-1.839.333-.847.871-1.364 1.66-1.558.549-.134 1.209-.103 1.716.116 1.046.365 2.305 1.431 1.476 3.715-.278.719-.892 1.349-1.304 1.713-.096.106-.244.208-.535.534-.379.426-.772 1.032-.561.971.917-.599 2.036-.849 3.396-.766.928.056 1.886.291 2.349.434.3.092.708.234 1.184.43l.011-.077c-.432 3.118-2.43 5.739-5.174 7.04zm5.18-7.082-.004.029.009-.068zm.015-.125c-.003.025-.006.051-.009.076zm.006-.048-.004.035.007-.065zm.013-.121c-.002.026-.005.051-.008.076zm.005-.052-.004.043.006-.066zm.017-.192c-.004.05-.008.1-.013.15l.007-.075zm.003-.041-.002.021.005-.066zm.008-.13c-.002.025-.003.05-.005.075zm.002-.046-.001.027.003-.062zm.006-.126c-.001.025-.002.05-.003.075zm.001-.051-.001.035.002-.062zm.003-.122c0 .025-.001.051-.001.076zm.001-.055v.044l.001-.066zm-.021-.767c.015.214.022.43.022.648v.077-.077c0-.218-.007-.434-.022-.648zm-8.716-3.338c-.041-.084-.013-.198.025-.256.046-.07.081-.117.23-.153.258-.062.373.128.383.204.016.115-.015.161-.051.205-.046.054-.148.115-.306.116-.045 0-.222.006-.281-.116zm-4.99-4.006c.02-.012.041-.023.061-.035l-.049.028zm3.948 17.164c-.664-.042-1.308-.154-1.925-.33l.054.015c.619.172 1.265.281 1.929.319zm-2.088-.378c-.072-.022-.144-.045-.216-.068l.054.017c.072.024.144.046.216.068zm-.322-.104c-.018-.007-.036-.013-.053-.019l.053.019c.017.006.035.012.053.018zm-.159-.057c-.106-.039-.21-.079-.314-.122l.052.021c.104.042.209.082.315.12zm-.418-.165c-.103-.043-.205-.089-.306-.136l.051.023c.101.047.204.092.307.135zm-.656-.309c-.789-.41-1.512-.933-2.147-1.545l.04.038c.638.609 1.364 1.127 2.157 1.533zm-2.226-1.622c-.183-.181-.358-.37-.526-.565l.036.042c.169.194.345.382.529.561zm-.805-.907c-.068-.088-.134-.176-.199-.266l.033.045c.065.089.132.177.2.264zm-.357-.493c-.372-.55-.685-1.142-.932-1.768l.02.052c.251.624.568 1.215.943 1.762zm-1.087-2.19c-.042-.125-.082-.25-.119-.377.042.145.088.288.137.43zm-.165-.541c-.024-.091-.048-.183-.07-.276.027.111.055.221.085.331zm-.131-.554c-.02-.094-.037-.188-.054-.282.02.113.042.226.065.338zm-.113-.682c-.003-.019-.005-.038-.007-.057.004.038.009.076.014.115zm-.027-.23c-.008-.078-.015-.155-.02-.233.007.097.016.194.026.29zm-.047-.94c0 .06 0 .119.001.178l-.001-.059c0-.039 0-.079 0-.119zm18.339-.881c-.04-.425-.11-.842-.206-1.249.101.425.172.862.212 1.307zm-.322-1.688c-.022-.072-.044-.145-.066-.216l.017.054c.022.072.044.144.064.217zm-.101-.324c-.018-.053-.036-.106-.055-.159l.019.053c.018.053.036.106.053.16zm-.093-.265c-.077-.211-.162-.419-.254-.622l.023.051c.09.204.174.412.25.624zm-.499-1.123c-.009-.016-.018-.033-.026-.049l.026.049c.008.016.017.033.025.049zm-12.513-3.799c.016-.009.033-.018.049-.027l-.049.027c-.016.008-.032.017-.049.026zm.197-.104c.016-.009.033-.017.049-.025l-.049.025c-.017.008-.033.017-.05.025zm.199-.099c.017-.008.034-.017.051-.024l-.051.024c-.016.008-.033.016-.05.024zm.407-.185c.361-.152.734-.283 1.116-.389l-.054.016c-.382.108-.753.241-1.113.395zm1.226-.418c.091-.025.183-.047.276-.069l-.056.013c-.092.022-.184.046-.275.07zm.724-.161c.151-.027.303-.05.457-.069l-.058.007c-.153.021-.305.045-.455.073zm.745-.102c.116-.011.233-.019.35-.026l-.058.003c-.117.008-.234.017-.35.029zm.526-.035c.118-.004.237-.006.355-.006-.138 0-.276.003-.413.009z" fill="#d6ffff"/><g fill="#1a86fd" fill-rule="nonzero"><path d="m36.347 7.316h2.306v17.078h-2.306z"/><path d="m45.473 7.316h2.708c1.779 0 3.231.387 4.357 1.16s1.689 1.749 1.689 2.929c0 1.439-.831 2.641-2.494 3.606 2.574.858 3.861 2.346 3.861 4.464 0 1.474-.663 2.663-1.991 3.565-1.327.903-3.103 1.354-5.328 1.354h-2.802zm2.306 2.065v5.053c1.287-.017 2.272-.263 2.956-.737.683-.473 1.025-1.126 1.025-1.957 0-.724-.308-1.302-.925-1.736-.616-.433-1.443-.65-2.48-.65-.223 0-.415.009-.576.027zm0 7.078v5.844h.188c2.01 0 3.382-.322 4.115-.965s1.099-1.3 1.099-1.971c0-.884-.411-1.59-1.233-2.118-.822-.527-1.948-.79-3.378-.79z"/><path d="m61.583 7.316h2.306v17.078h-2.306z"/><path d="m80.803 9.207-1.89 1.514c-.5-.518-.954-.905-1.36-1.159-.407-.255-.995-.382-1.763-.382-.84 0-1.522.19-2.044.569-.523.38-.785.87-.785 1.468 0 .519.228.977.684 1.374.456.398 1.233.831 2.333 1.301 1.099.469 1.954.907 2.567 1.313.612.407 1.114.856 1.508 1.347.393.492.686 1.01.878 1.555.192.546.288 1.122.288 1.73 0 1.421-.516 2.631-1.548 3.632-1.033 1.001-2.281 1.502-3.747 1.502-1.43 0-2.692-.391-3.787-1.173s-1.937-1.955-2.527-3.519l2.333-.657c.849 1.922 2.149 2.882 3.901 2.882.849 0 1.555-.254 2.118-.764.563-.509.844-1.153.844-1.93 0-.465-.147-.932-.442-1.401s-.662-.856-1.1-1.16c-.437-.303-1.137-.65-2.097-1.038-.961-.389-1.698-.747-2.212-1.073s-.959-.715-1.334-1.166-.65-.9-.824-1.347c-.175-.447-.262-.925-.262-1.435 0-1.224.492-2.267 1.475-3.13.983-.862 2.176-1.293 3.579-1.293.929 0 1.872.201 2.828.603.957.402 1.752 1.014 2.386 1.837z"/><path d="m85.667 22.826c0-.492.176-.916.529-1.274.353-.357.78-.536 1.28-.536.492 0 .916.179 1.274.536.357.358.536.782.536 1.274 0 .5-.177.927-.529 1.28-.353.353-.78.53-1.281.53-.5 0-.927-.175-1.28-.523-.353-.349-.529-.778-.529-1.287z"/><path d="m95.396 7.316h2.306v14.773h5.563v2.305h-7.869z"/><path d="m106.018 15.748c0-2.466.929-4.58 2.788-6.34 1.859-1.761 4.093-2.641 6.703-2.641 2.547 0 4.741.887 6.581 2.661 1.841 1.774 2.762 3.88 2.762 6.32 0 2.583-.909 4.766-2.728 6.548-1.819 1.783-4.051 2.675-6.696 2.675-2.609 0-4.83-.898-6.662-2.695-1.832-1.796-2.748-3.972-2.748-6.528zm16.354.107c0-1.885-.679-3.474-2.038-4.765-1.358-1.291-3.029-1.937-5.013-1.937-1.886 0-3.501.657-4.846 1.97-1.345 1.314-2.017 2.891-2.017 4.732 0 1.868.69 3.448 2.071 4.739 1.38 1.291 3.072 1.937 5.074 1.937 1.84 0 3.429-.659 4.765-1.977s2.004-2.884 2.004-4.699z"/><path d="m127.297 7.343h2.466l5.349 12.078 5.389-12.078h2.493l-7.909 17.628z"/><path d="m146.485 7.316h9.464v2.333h-7.159v4.263h7.159v2.305h-7.159v5.872h7.159v2.305h-9.464z"/><path d="m165.038 24.183c0 .073.066.139.139.139h.873c.072 0 .138-.066.138-.139v-3.884h1.04c.08 0 .138-.066.138-.139v-.793c0-.072-.058-.138-.138-.138h-3.23c-.08 0-.138.066-.138.138v.793c0 .073.058.139.138.139h1.04z"/><path d="m168.137 24.162c-.014.094.051.16.139.16h.858c.073 0 .131-.059.138-.117l.32-2.248h.015l1.229 2.357c.022.044.08.08.124.08h.131c.036 0 .102-.036.124-.08l1.222-2.357h.014l.328 2.248c.007.058.072.117.138.117h.858c.088 0 .153-.066.138-.16l-.822-4.889c-.007-.066-.072-.116-.13-.116h-.117c-.036 0-.102.029-.124.072l-1.687 3.143h-.015l-1.688-3.143c-.021-.043-.087-.072-.123-.072h-.117c-.058 0-.123.05-.131.116z"/></g><g clip-path="url(#b)"><path d="m12.934.338c.78-.451 1.741-.451 2.521 0 2.693 1.554 8.98 5.184 11.673 6.739.78.45 1.261 1.283 1.261 2.184v13.478c0 .901-.481 1.734-1.261 2.184-2.693 1.555-8.98 5.184-11.673 6.739-.78.451-1.741.451-2.521 0-2.693-1.555-8.98-5.184-11.673-6.739-.78-.45-1.261-1.283-1.261-2.184 0-3.109 0-10.369 0-13.478 0-.901.481-1.734 1.261-2.184 2.693-1.555 8.98-5.185 11.673-6.739z" fill="#0da7fe"/><path d="m0 24.197 7.373-8.197 6.821 16.39-14.194-8.193z" fill="#1a67fd"/><path d="m7.373 16-7.273-8.252-.1 16.449z" fill="#0da7fe"/><path d="m7.373 16 6.821-16.39-14.094 8.138z" fill="#05bbff"/><path d="m14.194-.39 14.195 24.585-21.016-8.195" fill="#00c9ff"/><path d="m14.194 32.418 14.195-8.221-21.016-8.197z" fill="#1a86fd"/><path d="m28.389 24.195v-16.39l-14.195-8.195z" fill="#05bbff"/></g><path d="m12.973 24.188c.118.005.236.007.355.007-.139 0-.277-.003-.414-.009zm.414.007h-.059.063zm.06-.001-.035.001.043-.001zm.059-.001-.027.001.039-.001zm.059-.001-.021.001.038-.001zm.059-.002-.016.001.037-.001zm.059-.002-.012.001.039-.002zm.059-.002h-.008l.043-.002zm.117-.006c-.02.001-.041.002-.062.003zm.059-.004-.057.004.061-.004zm.058-.003-.033.002.041-.003zm.059-.005-.026.002.038-.003zm.058-.004-.021.001.037-.003zm.058-.005-.016.001.037-.003zm.058-.006-.011.001.038-.003zm.058-.005h-.007l.041-.004zm.116-.013c-.021.002-.041.005-.062.007zm.057-.007-.054.007.058-.007zm.058-.007-.033.004.041-.005zm.057-.007-.025.003.037-.005zm.058-.008-.021.003.037-.005zm.057-.008-.016.002.037-.005zm.057-.009-.011.002.037-.006zm.057-.009-.008.001.042-.006zm.114-.019c-.02.004-.041.007-.061.011zm.056-.01-.053.01.057-.01zm.057-.01-.033.006.041-.007zm.056-.01-.025.004.037-.007zm.056-.011-.02.003.036-.007zm.056-.012-.015.003.036-.007zm.056-.011-.011.002.037-.008zm.056-.012-.007.001.041-.009zm.112-.026c-.02.005-.04.01-.059.014zm.055-.012-.051.011.055-.012zm.055-.014-.031.008.039-.01zm.056-.013-.025.006.037-.009zm.055-.014-.019.004.035-.009zm.055-.015-.015.004.035-.009zm.055-.014-.011.002.036-.009zm.054-.015-.007.001.041-.011zm.11-.032c-.019.006-.039.012-.058.017zm.054-.015-.05.014.054-.016zm.054-.017-.031.01.039-.012zm.054-.016-.024.007.036-.011zm.054-.017-.019.006.034-.011zm.053-.018-.014.005.035-.011zm.054-.017-.011.003.036-.012zm.053-.018-.006.002.04-.014zm.108-.037c-.019.007-.038.013-.057.02zm.052-.019-.049.017.053-.018zm.053-.019-.031.011.039-.014zm.052-.019-.023.008.035-.013zm.053-.02-.019.007.035-.013zm.052-.02-.014.005.034-.013zm.053-.021-.011.004.036-.014zm.052-.021-.007.003.041-.016zm.104-.042c-.018.007-.037.015-.056.023zm.051-.022-.048.021.053-.023zm.052-.022-.031.013.039-.016zm.051-.022-.024.01.036-.015zm.051-.022-.018.008.034-.015zm.051-.023-.014.006.034-.015zm.051-.023-.011.004.036-.016zm.05-.024-.006.003.041-.019zm.048-.022.054-.026c-.363-.175-.68-.364-.952-.574-.406-.314-.865-.78-1.277-1.43-.194-.306-.356-.627-.511-1.073-.151-.433-.483-1.637-.026-2.809.081-.206.311-.617.281-.613-.099.013-.707.804-.791 1.737-.109 1.198.434 2.323.434 2.323.023.058-1.393-.602-1.89-2.068-.695-2.05.61-3.909.664-3.984.424-.589.93-1.049 1.134-1.225l-.01-.001s.112-.128.076-.076c.147-.212.22-.41.128-.588-.065-.126-.312-.216-.613-.204-.14.006-.55.105-.742.153-.119.049-.325.122-.586.23-.332.138-.752.309-1.175.562-.749.449-1.337.951-1.838 1.456-1.344 1.35-1.691 2.818-1.533 3.115-.24-.45-.086-1.376.052-1.762.728-2.044 2.387-3.196 3.243-3.856 1.08-.833 1.594-1.671 1.66-1.839.332-.847.871-1.364 1.66-1.558.549-.134 1.208-.103 1.716.116 1.046.365 2.305 1.431 1.476 3.715-.279.719-.893 1.349-1.304 1.713-.096.106-.245.208-.535.534-.379.426-.773 1.032-.562.971.917-.599 2.037-.848 3.397-.766.928.056 1.885.291 2.349.434.3.092.708.234 1.184.43l.011-.077c-.432 3.118-2.431 5.739-5.174 7.04zm5.179-7.082-.004.029.009-.068zm.016-.125c-.003.025-.006.051-.009.076zm.006-.048-.004.035.007-.065zm.013-.121c-.003.026-.005.051-.008.076zm.005-.052-.004.043.006-.066zm.016-.192c-.004.05-.008.1-.012.15l.006-.075zm.003-.041-.001.021.004-.066zm.008-.13c-.001.025-.003.05-.004.075zm.003-.046-.002.027.003-.062zm.005-.126c-.001.025-.002.05-.003.075zm.002-.05-.001.034.002-.062zm.003-.123c0 .025-.001.051-.002.076zm.001-.055-.001.044.001-.066zm-.022-.767c.015.214.023.43.023.648 0 .026 0 .051-.001.077l.001-.077c0-.218-.008-.434-.023-.648zm-8.716-3.338c-.04-.084-.013-.198.026-.256.046-.07.081-.117.23-.153.257-.062.372.128.383.204.015.115-.015.162-.051.205-.047.054-.149.115-.307.116-.045 0-.221.006-.281-.116zm-4.989-4.006c.02-.012.04-.023.06-.035l-.048.028zm3.947 17.164c-.663-.042-1.307-.154-1.925-.33l.055.016c.619.171 1.265.28 1.929.318zm-2.088-.378c-.072-.022-.144-.045-.215-.068l.054.017c.071.024.143.046.215.068zm-.322-.104c-.017-.007-.035-.013-.053-.019l.053.019.054.018zm-.159-.057c-.105-.039-.21-.079-.314-.122l.052.021c.104.042.209.082.315.12zm-.417-.165c-.103-.043-.205-.089-.306-.136l.05.024c.102.046.204.091.308.134zm-.656-.309c-.79-.41-1.512-.933-2.147-1.545l.039.038c.639.609 1.365 1.127 2.158 1.533zm-2.226-1.622c-.183-.181-.359-.37-.526-.565l.036.042c.168.194.345.382.529.561zm-.805-.907c-.068-.088-.134-.176-.199-.266l.033.045c.065.089.131.177.2.264zm-.357-.492c-.372-.551-.686-1.143-.933-1.769l.021.052c.251.624.568 1.215.943 1.762zm-1.087-2.191c-.043-.125-.082-.25-.119-.377.042.145.088.288.137.43zm-.165-.541c-.025-.091-.048-.183-.07-.276.026.111.055.221.085.331zm-.132-.554c-.019-.094-.037-.188-.053-.282.02.113.041.226.065.338zm-.113-.682c-.002-.019-.005-.038-.007-.057.005.038.01.076.015.115zm-.026-.23c-.008-.078-.015-.155-.021-.233.008.097.017.194.027.29zm-.048-.94c0 .06.001.119.002.178l-.001-.059c0-.039-.001-.079-.001-.119zm18.34-.881c-.041-.425-.11-.842-.207-1.249.101.425.173.862.212 1.307zm-.323-1.688c-.021-.072-.043-.144-.066-.216l.017.054c.023.072.044.144.065.217zm-.101-.324c-.017-.053-.036-.106-.054-.159l.018.053c.019.053.037.106.054.16zm-.092-.265c-.078-.211-.163-.419-.255-.622l.023.051c.091.204.175.412.251.624zm-.5-1.123c-.008-.016-.017-.033-.026-.049l.026.049c.009.016.018.033.026.049zm-12.512-3.799c.016-.009.032-.018.049-.027l-.049.027c-.017.009-.033.017-.049.026zm.197-.104c.016-.009.033-.017.049-.025l-.049.025c-.017.008-.033.017-.05.025zm.199-.099c.017-.008.033-.016.05-.024l-.05.024c-.017.008-.033.016-.05.024zm.407-.185c.361-.152.733-.283 1.116-.389l-.055.016c-.381.108-.753.241-1.112.395zm1.225-.418c.092-.025.184-.047.277-.069l-.056.013c-.092.022-.184.046-.276.07zm.725-.161c.151-.027.303-.05.456-.069l-.057.007c-.153.021-.305.045-.455.073zm.745-.101c.116-.012.233-.02.35-.027l-.059.003c-.117.008-.233.017-.349.029zm.526-.036c.118-.004.236-.006.355-.006-.139 0-.277.003-.414.009z" fill="#0d98fe"/><path d="m12.897 23.636c.118.005.236.007.355.007-.138 0-.276-.003-.413-.009zm.415.007h-.06.064zm.059-.001-.034.001.042-.001zm.059-.001-.026.001.038-.001zm.059-.001-.021.001.038-.001zm.06-.002-.017.001.038-.001zm.058-.002-.012.001.039-.002zm.059-.002h-.008l.043-.002zm.118-.006c-.021.001-.042.002-.063.003zm.058-.004-.057.004.061-.004zm.059-.004-.034.003.042-.003zm.058-.004-.026.002.038-.003zm.058-.004-.02.001.037-.003zm.059-.005-.016.001.036-.003zm.058-.006-.012.001.038-.003zm.058-.005h-.008l.042-.004zm.115-.013c-.02.002-.041.005-.061.007zm.058-.007-.055.007.059-.007zm.057-.007-.033.004.041-.005zm.058-.007-.026.003.038-.005zm.057-.008-.02.003.036-.005zm.057-.008-.015.002.036-.005zm.057-.009-.011.002.037-.006zm.057-.009-.007.001.041-.006zm.114-.019c-.02.004-.04.007-.06.011zm.056-.01-.052.01.057-.01zm.057-.01-.032.006.04-.007zm.056-.011-.025.005.037-.007zm.057-.01-.02.003.036-.007zm.056-.012-.016.003.036-.007zm.056-.011-.011.002.036-.008zm.056-.012-.008.001.041-.009zm.111-.026c-.019.005-.039.01-.059.014zm.055-.012-.05.011.055-.012zm.056-.014-.032.008.04-.01zm.055-.013-.024.006.036-.009zm.055-.015-.019.005.035-.009zm.055-.014-.015.004.035-.009zm.055-.015-.011.003.037-.01zm.055-.015-.007.002.04-.011zm.109-.031c-.019.006-.039.012-.058.017zm.054-.015-.049.014.053-.016zm.054-.017-.031.01.039-.012zm.054-.016-.024.007.036-.011zm.054-.017-.019.006.035-.011zm.054-.018-.015.005.035-.011zm.053-.017-.01.003.036-.012zm.054-.018-.007.002.04-.014zm.107-.037c-.019.006-.038.013-.057.02zm.052-.019-.048.017.053-.018zm.053-.019-.03.011.038-.014zm.053-.02-.024.009.036-.013zm.052-.019-.018.007.034-.013zm.053-.02-.015.005.035-.013zm.052-.021-.01.004.035-.014zm.052-.021-.007.003.041-.016zm.105-.042c-.019.007-.038.015-.056.023zm.05-.022-.048.021.053-.023zm.052-.022-.03.013.038-.016zm.051-.022-.023.01.035-.015zm.051-.022-.018.008.034-.016zm.051-.023-.014.006.034-.016zm.051-.024-.01.005.036-.016zm.051-.023-.007.003.041-.019zm.047-.022.055-.026c-.364-.175-.681-.364-.953-.574-.406-.314-.864-.78-1.277-1.43-.194-.306-.355-.627-.511-1.073-.151-.433-.483-1.637-.025-2.809.081-.206.311-.617.281-.613-.1.013-.707.804-.792 1.737-.109 1.198.434 2.323.434 2.323.023.058-1.393-.602-1.89-2.068-.695-2.05.61-3.909.664-3.984.424-.589.93-1.049 1.134-1.225l-.01-.001s.113-.128.077-.076c.146-.212.219-.41.127-.588-.065-.126-.311-.216-.613-.204-.14.006-.55.105-.742.153-.119.049-.325.122-.586.23-.331.138-.752.309-1.174.562-.75.449-1.337.951-1.839 1.456-1.344 1.35-1.691 2.818-1.532 3.115-.24-.45-.087-1.376.051-1.762.729-2.044 2.387-3.196 3.243-3.856 1.08-.833 1.594-1.671 1.66-1.839.333-.847.871-1.364 1.66-1.558.549-.134 1.209-.103 1.716.116 1.046.365 2.305 1.431 1.476 3.715-.278.719-.892 1.349-1.304 1.713-.096.106-.244.208-.535.534-.379.426-.772 1.032-.561.971.917-.599 2.036-.849 3.396-.766.928.056 1.886.291 2.349.434.3.092.708.234 1.184.43l.011-.077c-.432 3.118-2.43 5.739-5.174 7.04zm5.18-7.082-.004.029.009-.068zm.015-.125c-.003.025-.006.051-.009.076zm.006-.048-.004.035.007-.065zm.013-.121c-.002.026-.005.051-.008.076zm.005-.052-.004.043.006-.066zm.017-.192c-.004.05-.008.1-.013.15l.007-.075zm.003-.041-.002.021.005-.066zm.008-.13c-.002.025-.003.05-.005.075zm.002-.046-.001.027.003-.062zm.006-.126c-.001.025-.002.05-.003.075zm.001-.051-.001.035.002-.062zm.003-.122c0 .025-.001.051-.001.076zm.001-.055v.044l.001-.066zm-.021-.767c.015.214.022.43.022.648v.077-.077c0-.218-.007-.434-.022-.648zm-8.716-3.338c-.041-.084-.013-.198.025-.256.046-.07.081-.117.23-.153.258-.062.373.128.383.204.016.115-.015.161-.051.205-.046.054-.148.115-.306.116-.045 0-.222.006-.281-.116zm-4.99-4.006c.02-.012.041-.023.061-.035l-.049.028zm3.948 17.164c-.664-.042-1.308-.154-1.925-.33l.054.015c.619.172 1.265.281 1.929.319zm-2.088-.378c-.072-.022-.144-.045-.216-.068l.054.017c.072.024.144.046.216.068zm-.322-.104c-.018-.007-.036-.013-.053-.019l.053.019c.017.006.035.012.053.018zm-.159-.057c-.106-.039-.21-.079-.314-.122l.052.021c.104.042.209.082.315.12zm-.418-.165c-.103-.043-.205-.089-.306-.136l.051.023c.101.047.204.092.307.135zm-.656-.309c-.789-.41-1.512-.933-2.147-1.545l.04.038c.638.609 1.364 1.127 2.157 1.533zm-2.226-1.622c-.183-.181-.358-.37-.526-.565l.036.042c.169.194.345.382.529.561zm-.805-.907c-.068-.088-.134-.176-.199-.266l.033.045c.065.089.132.177.2.264zm-.357-.493c-.372-.55-.685-1.142-.932-1.768l.02.052c.251.624.568 1.215.943 1.762zm-1.087-2.19c-.042-.125-.082-.25-.119-.377.042.145.088.288.137.43zm-.165-.541c-.024-.091-.048-.183-.07-.276.027.111.055.221.085.331zm-.131-.554c-.02-.094-.037-.188-.054-.282.02.113.042.226.065.338zm-.113-.682c-.003-.019-.005-.038-.007-.057.004.038.009.076.014.115zm-.027-.23c-.008-.078-.015-.155-.02-.233.007.097.016.194.026.29zm-.047-.94c0 .06 0 .119.001.178l-.001-.059c0-.039 0-.079 0-.119zm18.339-.881c-.04-.425-.11-.842-.206-1.249.101.425.172.862.212 1.307zm-.322-1.688c-.022-.072-.044-.145-.066-.216l.017.054c.022.072.044.144.064.217zm-.101-.324c-.018-.053-.036-.106-.055-.159l.019.053c.018.053.036.106.053.16zm-.093-.265c-.077-.211-.162-.419-.254-.622l.023.051c.09.204.174.412.25.624zm-.499-1.123c-.009-.016-.018-.033-.026-.049l.026.049c.008.016.017.033.025.049zm-12.513-3.799c.016-.009.033-.018.049-.027l-.049.027c-.016.008-.032.017-.049.026zm.197-.104c.016-.009.033-.017.049-.025l-.049.025c-.017.008-.033.017-.05.025zm.199-.099c.017-.008.034-.017.051-.024l-.051.024c-.016.008-.033.016-.05.024zm.407-.185c.361-.152.734-.283 1.116-.389l-.054.016c-.382.108-.753.241-1.113.395zm1.226-.418c.091-.025.183-.047.276-.069l-.056.013c-.092.022-.184.046-.275.07zm.724-.161c.151-.027.303-.05.457-.069l-.058.007c-.153.021-.305.045-.455.073zm.745-.102c.116-.011.233-.019.35-.026l-.058.003c-.117.008-.234.017-.35.029zm.526-.035c.118-.004.237-.006.355-.006-.138 0-.276.003-.413.009z" fill="#d6ffff"/></svg>