<svg clip-rule="evenodd" fill-rule="evenodd" viewBox="0 0 489 108" xmlns="http://www.w3.org/2000/svg" xmlns:xlink="http://www.w3.org/1999/xlink"><clipPath id="a"><path clip-rule="evenodd" d="m45.739 12.345c2.145-1.238 4.788-1.238 6.933 0 7.403 4.274 24.687 14.254 32.091 18.528 2.145 1.238 3.466 3.526 3.466 6.004v37.055c0 2.476-1.321 4.765-3.466 6.004-7.404 4.274-24.688 14.253-32.091 18.528-2.145 1.238-4.788 1.238-6.933 0-7.403-4.275-24.687-14.254-32.091-18.528-2.145-1.239-3.466-3.528-3.466-6.004 0-8.549 0-28.507 0-37.055 0-2.478 1.321-4.766 3.466-6.004 7.404-4.274 24.688-14.254 32.091-18.528z"/></clipPath><g clip-path="url(#a)"><path d="m45.739 12.345c2.145-1.238 4.788-1.238 6.933 0 7.403 4.274 24.687 14.254 32.091 18.528 2.145 1.238 3.466 3.526 3.466 6.004v37.055c0 2.476-1.321 4.765-3.466 6.004-7.404 4.274-24.688 14.253-32.091 18.528-2.145 1.238-4.788 1.238-6.933 0-7.403-4.275-24.687-14.254-32.091-18.528-2.145-1.239-3.466-3.528-3.466-6.004 0-8.549 0-28.507 0-37.055 0-2.478 1.321-4.766 3.466-6.004 7.404-4.274 24.688-14.254 32.091-18.528z" fill="#0da7fe"/><path d="m10.182 77.939 20.269-22.535 18.755 45.061z" fill="#1a67fd"/><path d="m30.451 55.404-19.995-22.688-.274 45.223z" fill="#0da7fe"/><path d="m30.451 55.404 18.755-45.06-38.75 22.372z" fill="#05bbff"/><path d="m49.206 10.344 39.023 67.591-57.778-22.531" fill="#00c9ff"/><path d="m49.206 100.541 39.023-22.602-57.778-22.535z" fill="#1a86fd"/><path d="m88.229 77.935v-45.061l-39.023-22.53z" fill="#05bbff"/></g><path d="m45.848 77.916c.324.012.649.019.976.019-.381 0-.76-.009-1.138-.026zm1.14.018-.164.001.174-.001zm.163-.001-.095.001.117-.002zm.162-.003-.073.001.107-.002zm.163-.004-.058.002.103-.003zm.162-.004-.045.001.103-.003zm.162-.006-.033.001.107-.004zm.162-.007-.021.001.116-.005zm.323-.016c-.057.003-.114.006-.172.009zm.161-.01-.157.01.168-.01zm.161-.01-.093.006.115-.008zm.16-.012-.072.005.105-.008zm.16-.013-.056.005.101-.009zm.16-.013-.044.003.102-.009zm.16-.015-.032.003.104-.01zm.159-.016-.021.002.115-.012zm.318-.034c-.056.006-.112.012-.169.019zm.158-.019-.15.018.162-.019zm.159-.019-.091.011.112-.014zm.157-.021-.07.009.103-.014zm.158-.022-.056.008.1-.014zm.157-.022-.043.006.1-.015zm.157-.024-.031.005.103-.016zm.157-.024-.021.003.114-.018zm.313-.052c-.056.009-.111.019-.167.028zm.155-.027-.145.025.156-.027zm.155-.029-.089.017.111-.021zm.155-.029-.069.013.102-.019zm.155-.03-.055.011.099-.02zm.154-.031-.042.008.098-.02zm.154-.032-.031.006.102-.021zm.153-.033-.019.004.112-.025zm.308-.069c-.055.013-.109.025-.164.037zm.151-.036-.139.033.151-.035zm.153-.036-.087.021.108-.027zm.151-.038-.067.017.1-.025zm.152-.038-.053.013.096-.025zm.151-.04-.041.011.097-.026zm.151-.04-.03.008.1-.027zm.15-.041-.019.005.111-.031zm.301-.086c-.053.015-.106.031-.16.046zm.148-.044-.136.04.148-.043zm.149-.044-.085.025.107-.032zm.149-.046-.066.02.098-.03zm.148-.047-.052.017.095-.031zm.147-.047-.04.013.096-.031zm.148-.049-.03.01.1-.033zm.147-.049-.019.006.111-.037zm.294-.102c-.052.019-.104.037-.157.055zm.144-.051-.133.048.145-.052zm.145-.053-.084.031.106-.039zm.145-.053-.065.024.097-.036zm.145-.055-.051.02.094-.036zm.144-.055-.04.015.095-.037zm.143-.056-.028.011.098-.039zm.144-.057-.019.007.112-.045zm.287-.118c-.051.022-.102.043-.154.064zm.14-.058-.133.055.145-.06zm.141-.061-.083.036.105-.045zm.141-.061-.064.028.096-.042zm.141-.062-.051.022.094-.041zm.14-.063-.039.018.094-.043zm.139-.064-.028.014.099-.046zm.14-.064-.019.009.114-.054zm.129-.061.151-.072c-1-.481-1.871-1-2.62-1.578-1.115-.861-2.375-2.144-3.51-3.932-.533-.84-.977-1.723-1.404-2.948-.415-1.191-1.329-4.502-.07-7.723.222-.566.855-1.696.772-1.685-.273.035-1.944 2.21-2.177 4.774-.299 3.295 1.194 6.389 1.194 6.389.064.158-3.829-1.657-5.195-5.687-1.911-5.637 1.676-10.746 1.825-10.953 1.165-1.619 2.556-2.885 3.117-3.368l-.028-.002s.31-.354.211-.21c.403-.582.603-1.127.351-1.615-.179-.347-.857-.594-1.685-.562-.385.015-1.513.289-2.04.421-.327.134-.894.334-1.611.632-.912.379-2.069.85-3.23 1.545-2.059 1.234-3.675 2.616-5.055 4.002-3.694 3.713-4.647 7.749-4.212 8.565-.66-1.236-.238-3.783.14-4.844 2.004-5.619 6.563-8.787 8.917-10.602 2.97-2.29 4.382-4.593 4.563-5.055.915-2.328 2.396-3.751 4.564-4.282 1.509-.37 3.323-.285 4.719.316 2.875 1.004 6.336 3.935 4.057 10.215-.766 1.976-2.453 3.708-3.585 4.708-.264.293-.672.574-1.47 1.47-1.043 1.172-2.125 2.836-1.545 2.668 2.522-1.646 5.6-2.332 9.338-2.106 2.552.154 5.184.8 6.459 1.194.825.254 1.946.645 3.254 1.183l.03-.212c-1.187 8.573-6.681 15.777-14.225 19.354zm14.241-19.471-.011.08.025-.186zm.043-.343c-.008.07-.017.14-.025.209zm.016-.131-.011.096.02-.178zm.036-.332c-.007.069-.015.138-.022.207zm.014-.145-.012.119.018-.183zm.045-.528c-.011.138-.022.276-.035.414l.018-.208zm.008-.112-.005.059.013-.183zm.022-.357c-.004.069-.008.138-.012.206zm.007-.126-.004.074.008-.17zm.015-.346c-.003.068-.005.137-.008.205zm.005-.14-.003.094.005-.17zm.008-.336c-.001.069-.003.138-.004.207zm.003-.151-.002.119.002-.18zm-.06-2.109c.041.588.062 1.183.062 1.782 0 .07-.001.14-.001.21l.001-.21c0-.599-.021-1.194-.062-1.782zm-23.963-9.179c-.111-.229-.035-.543.071-.702.127-.191.223-.323.631-.421.709-.17 1.025.353 1.054.562.042.314-.041.443-.141.561-.127.151-.408.318-.842.321-.124 0-.609.016-.773-.321zm-13.717-11.013c.056-.032.111-.063.167-.094l-.133.075zm10.853 47.19c-1.824-.115-3.594-.425-5.293-.908l.15.043c1.703.472 3.477.771 5.304.875zm-5.741-1.039c-.198-.061-.395-.124-.591-.189l.147.049c.197.064.395.125.593.184zm-.885-.288c-.049-.017-.097-.034-.146-.051l.146.051c.049.017.098.034.147.05zm-.437-.156c-.29-.106-.578-.217-.863-.334l.143.058c.286.115.574.225.865.329zm-1.147-.452c-.283-.12-.564-.245-.842-.375l.139.064c.279.129.561.252.845.37zm-1.804-.849c-2.171-1.13-4.158-2.565-5.904-4.25l.11.105c1.755 1.674 3.751 3.098 5.93 4.215zm-6.121-4.462c-.503-.497-.985-1.015-1.446-1.553l.099.115c.464.535.949 1.05 1.456 1.545zm-2.213-2.494c-.186-.239-.368-.483-.545-.729l.089.123c.179.245.362.487.55.726zm-.981-1.353c-1.022-1.512-1.884-3.141-2.563-4.862l.057.143c.689 1.716 1.561 3.339 2.592 4.845zm-2.989-6.022c-.116-.343-.224-.688-.326-1.037.116.398.242.793.376 1.183zm-.452-1.487c-.068-.251-.133-.504-.193-.758.072.305.15.608.234.908zm-.363-1.524c-.052-.257-.101-.515-.146-.775.054.311.113.621.179.929zm-.31-1.874c-.007-.052-.013-.105-.02-.158.013.106.026.211.041.316zm-.073-.634c-.021-.212-.04-.425-.057-.639.021.267.045.533.074.798zm-.13-2.582c0 .164.001.327.004.489l-.002-.162c-.002-.109-.002-.218-.002-.327zm50.42-2.422c-.112-1.17-.303-2.316-.568-3.434.277 1.169.474 2.368.583 3.593zm-.887-4.641c-.058-.2-.119-.398-.182-.595l.047.148c.062.198.121.396.178.596zm-.277-.89c-.049-.147-.099-.294-.151-.44l.051.146c.051.147.1.293.148.441zm-.255-.731c-.213-.58-.447-1.151-.7-1.71l.063.14c.25.561.48 1.133.689 1.715zm-1.373-3.086c-.024-.045-.048-.09-.072-.135l.072.135c.023.045.047.09.071.135zm-34.401-10.446c.045-.024.09-.048.135-.072l-.135.072c-.044.024-.089.049-.134.074zm.541-.285c.046-.024.091-.047.137-.07l-.137.07c-.045.023-.09.046-.136.07zm.549-.273c.046-.022.092-.044.138-.066l-.138.066c-.046.022-.092.044-.138.067zm1.119-.506c.992-.42 2.016-.778 3.067-1.07l-.15.042c-1.049.298-2.07.662-3.059 1.088zm3.368-1.152c.252-.066.505-.129.76-.188l-.153.036c-.254.06-.506.124-.757.192zm1.993-.44c.415-.075.833-.139 1.254-.192l-.158.02c-.42.057-.838.123-1.251.2zm2.048-.28c.319-.031.639-.055.962-.074l-.161.01c-.322.02-.642.047-.961.079zm1.446-.097c.324-.012.649-.018.976-.018-.381 0-.76.008-1.138.025z" fill="#0d98fe"/><path d="m45.64 76.398c.324.013.649.019.976.019-.381 0-.76-.008-1.138-.025zm1.14.018-.164.001.174-.001zm.163-.001-.095.001.117-.001zm.162-.003-.073.002.107-.002zm.163-.003-.058.001.103-.003zm.162-.005-.045.001.103-.003zm.162-.006-.033.002.107-.005zm.162-.006-.021.001.116-.006zm.323-.017c-.057.004-.114.007-.172.01zm.161-.009-.157.009.168-.01zm.161-.011-.093.006.115-.008zm.16-.012-.072.006.105-.008zm.16-.012-.056.004.101-.008zm.16-.014-.044.004.102-.009zm.16-.015-.032.003.104-.01zm.159-.016-.021.003.115-.012zm.318-.034c-.056.007-.112.013-.169.019zm.158-.019-.15.018.162-.019zm.159-.019-.091.011.112-.014zm.157-.021-.07.009.103-.013zm.158-.021-.056.007.1-.014zm.157-.023-.043.006.1-.014zm.157-.023-.031.004.103-.016zm.157-.025-.021.003.114-.018zm.313-.052c-.056.01-.111.019-.167.028zm.155-.027-.145.025.156-.027zm.155-.028-.089.016.111-.02zm.155-.029-.069.012.102-.019zm.155-.031-.055.011.099-.019zm.154-.031-.042.009.098-.02zm.154-.032-.031.007.102-.022zm.153-.033-.019.005.112-.025zm.308-.069c-.055.013-.109.025-.164.037zm.151-.035-.139.032.151-.035zm.153-.037-.087.021.108-.026zm.151-.038-.067.017.1-.025zm.152-.038-.053.013.096-.024zm.151-.039-.041.01.097-.025zm.151-.041-.03.008.1-.027zm.15-.041-.019.005.111-.031zm.301-.086c-.053.016-.106.031-.16.046zm.148-.043-.136.04.148-.044zm.149-.045-.085.026.107-.033zm.149-.046-.066.02.098-.03zm.148-.046-.052.016.095-.03zm.147-.048-.04.013.096-.031zm.148-.048-.03.009.1-.033zm.147-.05-.019.007.111-.038zm.294-.101c-.052.018-.104.036-.157.054zm.144-.052-.133.048.145-.052zm.145-.052-.084.03.106-.038zm.145-.054-.065.024.097-.036zm.145-.054-.051.019.094-.036zm.144-.056-.04.016.095-.037zm.143-.056-.028.011.098-.039zm.144-.057-.019.008.112-.046zm.287-.117c-.051.021-.102.042-.154.063zm.14-.059-.133.056.145-.061zm.141-.06-.083.035.105-.045zm.141-.062-.064.028.096-.042zm.141-.062-.051.023.094-.042zm.14-.062-.039.017.094-.043zm.139-.064-.028.013.099-.046zm.14-.065-.019.009.114-.054zm.129-.061.151-.072c-1-.48-1.871-1-2.62-1.578-1.115-.861-2.375-2.143-3.51-3.931-.533-.84-.977-1.724-1.404-2.949-.415-1.191-1.329-4.502-.07-7.723.222-.566.855-1.696.772-1.685-.273.036-1.944 2.211-2.177 4.774-.299 3.295 1.194 6.389 1.194 6.389.064.158-3.829-1.656-5.195-5.687-1.911-5.636 1.676-10.745 1.825-10.952 1.165-1.62 2.556-2.886 3.117-3.369l-.028-.001s.31-.354.211-.211c.403-.582.603-1.127.351-1.615-.179-.347-.856-.594-1.685-.561-.385.015-1.513.288-2.04.42-.327.134-.894.335-1.611.633-.912.379-2.069.849-3.23 1.544-2.059 1.234-3.675 2.616-5.055 4.002-3.694 3.713-4.647 7.75-4.212 8.566-.66-1.237-.238-3.783.14-4.845 2.004-5.618 6.563-8.787 8.917-10.601 2.97-2.29 4.382-4.593 4.563-5.055.915-2.329 2.396-3.751 4.564-4.283 1.509-.37 3.323-.285 4.719.317 2.875 1.004 6.336 3.934 4.057 10.214-.766 1.976-2.453 3.708-3.585 4.709-.264.293-.672.573-1.47 1.47-1.043 1.171-2.125 2.836-1.545 2.668 2.522-1.647 5.6-2.333 9.338-2.107 2.552.154 5.184.8 6.459 1.194.825.254 1.946.645 3.254 1.183l.03-.212c-1.187 8.573-6.681 15.777-14.225 19.354zm14.241-19.47-.011.079.025-.185zm.043-.343c-.008.069-.017.139-.025.208zm.016-.132-.011.096.02-.177zm.036-.332c-.007.07-.015.139-.022.208zm.014-.145-.012.12.018-.183zm.045-.528c-.011.139-.022.277-.035.414l.018-.207zm.008-.112-.005.059.013-.182zm.022-.357c-.004.069-.008.138-.012.206zm.007-.126-.004.074.008-.17zm.015-.346c-.003.069-.005.137-.008.206zm.005-.139-.003.093.005-.17zm.008-.336c-.001.069-.003.138-.004.207zm.003-.152-.002.12.002-.181zm-.06-2.109c.041.589.062 1.183.062 1.782 0 .07 0 .14-.001.21l.001-.21c0-.599-.021-1.193-.062-1.782zm-23.963-9.178c-.111-.229-.035-.544.071-.702.127-.192.223-.323.631-.422.709-.17 1.025.353 1.054.562.042.315-.041.443-.141.562-.127.151-.408.318-.842.32-.124.001-.609.016-.773-.32zm-13.717-11.014c.056-.031.111-.063.167-.094l-.133.075zm10.853 47.191c-1.824-.116-3.594-.425-5.293-.908l.15.042c1.703.472 3.477.771 5.304.875zm-5.741-1.04c-.198-.06-.395-.123-.591-.188l.147.048c.197.064.395.126.593.185zm-.885-.288c-.049-.017-.097-.034-.146-.051l.146.051c.049.017.098.034.147.05zm-.437-.155c-.29-.107-.578-.218-.863-.335l.143.058c.286.115.574.225.865.329zm-1.147-.453c-.283-.12-.564-.245-.842-.375l.139.065c.279.128.561.251.845.37zm-1.804-.849c-2.171-1.13-4.158-2.565-5.904-4.249l.11.104c1.755 1.674 3.751 3.098 5.93 4.215zm-6.121-4.461c-.503-.498-.985-1.016-1.446-1.554l.099.115c.464.535.949 1.051 1.456 1.545zm-2.213-2.494c-.186-.24-.368-.483-.545-.73l.089.123c.179.246.362.488.55.726zm-.98-1.353c-1.023-1.513-1.885-3.141-2.564-4.862l.057.143c.689 1.716 1.561 3.339 2.592 4.844zm-2.99-6.023c-.116-.342-.224-.688-.326-1.037.116.399.242.793.376 1.183zm-.452-1.487c-.068-.251-.133-.503-.193-.757.072.304.15.607.234.907zm-.363-1.524c-.052-.257-.101-.515-.146-.775.054.312.113.621.179.929zm-.31-1.873c-.007-.053-.013-.106-.02-.158.013.105.026.211.041.316zm-.073-.635c-.021-.212-.04-.425-.057-.639.021.268.045.534.074.798zm-.13-2.582c0 .164.001.327.004.49l-.002-.163c-.002-.109-.002-.218-.002-.327zm50.42-2.422c-.112-1.17-.303-2.316-.568-3.434.277 1.169.474 2.369.583 3.594zm-.887-4.641c-.058-.199-.119-.398-.182-.595l.047.148c.062.198.121.397.178.597zm-.277-.89c-.049-.147-.099-.294-.151-.44l.051.147c.051.146.1.293.148.44zm-.255-.731c-.213-.58-.447-1.15-.7-1.71l.063.14c.25.561.48 1.134.689 1.716zm-1.373-3.086c-.024-.045-.048-.09-.072-.135l.072.135c.023.045.047.09.071.136zm-34.401-10.445c.045-.025.09-.049.135-.073l-.135.073c-.044.024-.089.048-.134.073zm.541-.286c.046-.023.091-.046.137-.069l-.137.069c-.045.023-.09.047-.136.07zm.549-.273c.046-.022.092-.044.138-.066l-.138.066c-.046.022-.092.045-.138.067zm1.119-.506c.992-.42 2.016-.778 3.067-1.07l-.15.042c-1.049.298-2.07.663-3.059 1.088zm3.368-1.152c.252-.066.505-.129.76-.188l-.153.036c-.254.061-.506.125-.757.193zm1.993-.44c.415-.074.833-.138 1.254-.192l-.158.021c-.42.056-.838.123-1.251.199zm2.048-.28c.319-.031.639-.055.962-.073l-.161.009c-.322.021-.642.047-.961.08zm1.446-.096c.324-.013.649-.019.976-.019-.381 0-.76.008-1.138.025z" fill="#d6ffff"/><path d="m89.241 35.916v35.587c0 3.114-1.779 6.228-4.448 7.785l-15.569 8.897-15.57 8.897c-2.669 1.557-6.227 1.557-8.896 0l-15.57-8.897-15.569-8.897c-2.669-1.557-4.448-4.448-4.448-7.785v-35.587c0-3.113 1.779-6.227 4.448-7.784l15.569-8.897 15.57-8.897c2.669-1.557 6.227-1.557 8.896 0l31.139 17.794c2.669 1.557 4.448 4.671 4.448 7.784z" fill="none" stroke="#fff" stroke-width="4.45"/><g fill="#fff" fill-rule="nonzero"><path d="m110.11 31.531h6.339v46.951h-6.339z"/><path d="m135.2 31.531h7.444c4.889 0 8.882 1.063 11.978 3.188 3.095 2.125 4.643 4.809 4.643 8.052 0 3.956-2.285 7.26-6.855 9.914 7.076 2.359 10.614 6.449 10.614 12.272 0 4.054-1.824 7.322-5.472 9.803-3.649 2.482-8.532 3.722-14.65 3.722h-7.702zm6.339 5.675v13.894c3.538-.049 6.246-.725 8.126-2.027 1.879-1.302 2.819-3.095 2.819-5.38 0-1.99-.847-3.581-2.543-4.773-1.695-1.191-3.968-1.787-6.818-1.787-.614 0-1.142.024-1.584.073zm0 19.459v16.068h.516c5.528 0 9.299-.884 11.314-2.653 2.014-1.769 3.022-3.575 3.022-5.418 0-2.432-1.131-4.373-3.391-5.823-2.26-1.449-5.356-2.174-9.287-2.174z"/><path d="m179.49 31.531h6.339v46.951h-6.339z"/><path d="m232.331 36.727-5.196 4.165c-1.376-1.425-2.623-2.488-3.741-3.188s-2.733-1.05-4.846-1.05c-2.31 0-4.183.522-5.62 1.566-1.438 1.044-2.156 2.389-2.156 4.035 0 1.425.626 2.685 1.879 3.778s3.391 2.285 6.413 3.575 5.374 2.493 7.057 3.611 3.065 2.353 4.146 3.704 1.886 2.776 2.414 4.275.792 3.084.792 4.754c0 3.907-1.418 7.236-4.256 9.987-2.838 2.752-6.271 4.128-10.301 4.128-3.931 0-7.401-1.075-10.411-3.225-3.01-2.149-5.325-5.374-6.947-9.674l6.413-1.805c2.334 5.282 5.909 7.923 10.724 7.923 2.334 0 4.275-.7 5.823-2.101 1.548-1.4 2.322-3.169 2.322-5.307 0-1.277-.406-2.561-1.216-3.851-.811-1.29-1.818-2.352-3.022-3.188-1.204-.835-3.127-1.787-5.768-2.856-2.641-1.068-4.668-2.051-6.081-2.948-1.412-.897-2.635-1.965-3.667-3.206s-1.787-2.476-2.266-3.704-.719-2.543-.719-3.943c0-3.366 1.351-6.235 4.054-8.606s5.983-3.556 9.84-3.556c2.555 0 5.147.553 7.776 1.658 2.629 1.106 4.816 2.789 6.56 5.049z"/><path d="m245.701 74.171c0-1.352.486-2.519 1.456-3.502.971-.982 2.144-1.474 3.52-1.474 1.351 0 2.518.492 3.501 1.474.982.983 1.474 2.15 1.474 3.502 0 1.375-.485 2.549-1.456 3.519-.97.971-2.143 1.456-3.519 1.456s-2.549-.479-3.52-1.438c-.97-.958-1.456-2.137-1.456-3.537z"/><path d="m272.45 31.531h6.338v40.613h15.295v6.338h-21.633z"/><path d="m301.652 54.712c0-6.781 2.556-12.592 7.666-17.432s11.253-7.26 18.427-7.26c7.002 0 13.034 2.439 18.095 7.315 5.061 4.877 7.592 10.67 7.592 17.377 0 7.1-2.5 13.101-7.5 18.003-5 4.901-11.136 7.352-18.408 7.352-7.175 0-13.28-2.469-18.317-7.407-5.036-4.939-7.555-10.921-7.555-17.948zm44.962.295c0-5.184-1.868-9.551-5.602-13.102-3.735-3.55-8.329-5.325-13.783-5.325-5.184 0-9.625 1.806-13.323 5.417-3.697 3.612-5.546 7.948-5.546 13.01 0 5.135 1.898 9.477 5.694 13.027 3.796 3.551 8.445 5.326 13.949 5.326 5.061 0 9.428-1.812 13.101-5.436s5.51-7.93 5.51-12.917z"/><path d="m360.154 31.605h6.781l14.704 33.205 14.815-33.205h6.855l-21.743 48.462z"/><path d="m412.906 31.531h26.018v6.413h-19.679v11.719h19.679v6.339h-19.679v16.142h19.679v6.338h-26.018z"/><path d="m463.914 77.902c0 .2.18.38.38.38h2.4c.2 0 .38-.18.38-.38v-10.68h2.86c.22 0 .38-.18.38-.38v-2.18c0-.2-.16-.38-.38-.38h-8.88c-.22 0-.38.18-.38.38v2.18c0 .2.16.38.38.38h2.86z"/><path d="m472.434 77.842c-.04.26.14.44.38.44h2.36c.2 0 .36-.16.38-.32l.88-6.18h.04l3.38 6.48c.06.12.22.22.34.22h.36c.1 0 .28-.1.34-.22l3.36-6.48h.04l.9 6.18c.02.16.2.32.38.32h2.36c.24 0 .42-.18.38-.44l-2.26-13.44c-.02-.18-.2-.32-.36-.32h-.32c-.1 0-.28.08-.34.2l-4.64 8.64h-.04l-4.64-8.64c-.06-.12-.24-.2-.34-.2h-.32c-.16 0-.34.14-.36.32z"/></g></svg>