<svg enable-background="new 0 0 1599.9 205.9" viewBox="0 0 1599.9 205.9" xmlns="http://www.w3.org/2000/svg"><g fill="#fff"><path d="m399.9 82.3c8.5 4.9 33.2 19 41.7 23.8 1.8 1 4 1 5.8 0 8.5-4.9 33.1-19 41.7-23.8 1.8-1 2.9-3 2.9-5.1 0-9.8 0-37.8 0-47.6 0-2.1-1.1-4-2.9-5.1-8.6-4.9-33.2-19-41.7-23.8-1.8-1-4-1-5.8 0-8.5 4.9-33.1 19-41.7 23.8-1.8 1-2.9 3-2.9 5.1v47.6c0 2.1 1.1 4 2.9 5.1z"/><path d="m605.8 127.2c5.4 3.1 21 12.1 26.3 15.2 1.1.7 2.5.7 3.7 0 5.4-3.1 20.9-12.1 26.3-15.2 1.2-.7 1.9-1.9 1.9-3.2 0-6.2 0-24 0-30.2 0-1.3-.7-2.6-1.9-3.2-5.3-3.2-20.9-12.1-26.3-15.2-1.1-.7-2.5-.7-3.7 0-5.4 3.1-20.9 12.1-26.3 15.2-1.2.7-1.9 1.9-1.9 3.2v30.2c0 1.3.7 2.7 1.9 3.2z"/><path d="m396.9 190.3c-1.2-.7-1.9-1.9-1.9-3.2 0-6.2 0-24 0-30.2 0-.7.2-1.3.5-1.9h-.5v-36.2c0-4.7-2.5-9-6.5-11.3-19-10.9-73.7-42.1-92.6-52.9-4-2.3-8.9-2.3-12.9 0-18.8 10.8-73.5 42-92.5 52.8-4 2.3-6.5 6.6-6.5 11.3v36.2h-184v51h184 211 30c-.6 0-1.3-.2-1.8-.5-5.4-3.1-21-12-26.3-15.1z"/><path d="m737.9 154.9v-5.7h.1c0-.6-.3-1.1-.8-1.4-2.3-1.4-9.1-5.3-11.4-6.7-.5-.3-1.1-.3-1.6 0-2.3 1.4-9.1 5.3-11.4 6.7-.5.3-.8.8-.8 1.4v5.7h-102v13.1c0 1.3-.7 2.6-1.9 3.2-5.4 3.1-21 12.1-26.3 15.2-1.1.7-2.5.7-3.7 0-5.4-3.1-20.9-12.1-26.3-15.2-1.2-.7-1.9-1.9-1.9-3.2v-13.1-17.3c0-2.1-1.1-4-2.9-5.1-8.5-4.9-33.2-19-41.7-23.8-1.8-1-4-1-5.8 0-8.5 4.9-33.1 19-41.7 23.8-1.8 1-2.9 3-2.9 5.1v17.3h-.4c.3.6.5 1.2.5 1.9v30.2c0 1.3-.7 2.6-1.9 3.2-5.4 3.1-21 12.1-26.3 15.2-.6.3-1.2.5-1.8.5h60.2 34.5 1080.2v-51z"/><path d="m83.8 64.2c5.4 3.1 21 12.1 26.3 15.2 1.1.7 2.5.7 3.7 0 5.4-3.1 20.9-12.1 26.3-15.2 1.2-.7 1.9-1.9 1.9-3.2 0-6.2 0-24 0-30.2 0-1.3-.7-2.6-1.9-3.2-5.3-3.2-20.9-12.1-26.3-15.2-1.1-.7-2.5-.7-3.7 0-5.4 3.1-20.9 12.1-26.3 15.2-1.2.7-1.9 1.9-1.9 3.2v30.2c0 1.4.7 2.7 1.9 3.2z"/></g></svg>