<svg clip-rule="evenodd" fill-rule="evenodd" stroke-linejoin="round" stroke-miterlimit="1.41421" viewBox="0 0 129 129" xmlns="http://www.w3.org/2000/svg"><circle cx="64.5" cy="64.5" fill="#6db0f2" r="64.5"/><path d="m108.4 126.7h-15.3c-9.7 0-17.5-7.9-17.5-17.5 0-9.7 7.9-17.5 17.5-17.5h15.4c9.7 0 17.5 7.9 17.5 17.5s-7.9 17.5-17.6 17.5z" fill="#2c71c4" fill-rule="nonzero"/><path d="m107.6 91.6c0 .6-.4 1.2-1.1 1.3-1.9.4-3.8.5-5.7.5-2 0-3.9-.2-5.7-.5-.6-.1-1.1-.7-1.1-1.3v-7.8h13.6z" fill="#bbd7ff" fill-rule="nonzero"/><ellipse cx="100.8" cy="92.3" fill="#bbd7ff" rx="6.8" ry="3"/><path d="m107.5 90.5c-2.1.8-4.4 1.3-6.7 1.3-2.4 0-4.7-.5-6.9-1.3v-5.5h13.6z" fill="#4882d8" fill-opacity=".55" fill-rule="nonzero"/><path d="m122.9 53.9v20.4c.2 3.2 2.1 5.2 4.9 6.5-1.1.5-2.4.9-3.8.9-.9 0-1.7-.1-2.5-.4 1.2 1.5 2.7 2.6 4.4 3.5-1.6.8-3.5 1.2-5.4 1.2-6.6 0-12.1-5.2-12.5-11.7v-20.4z" fill="#4882d8" fill-rule="nonzero"/><path d="m119.6 77.7c.4 1.3 1.1 2.6 1.9 3.6" fill="#4882d8" fill-rule="nonzero"/><path d="m79.9 55.9v17.9c-.2 3.2-2.1 5.2-4.9 6.5 1.1.5 2.4.9 3.8.9.9 0 1.7-.1 2.5-.4-1.2 1.5-2.7 2.6-4.4 3.5 1.6.8 3.5 1.2 5.4 1.2 6.6 0 12.1-5.2 12.5-11.7v-17.9z" fill="#4882d8" fill-rule="nonzero"/><path d="m125.3 62.7c0-2.9-2.3-5.3-5.2-5.4v-11.2c0-6.5-5.3-11.8-11.8-11.8h-13.3c-6.5 0-11.8 5.3-11.8 11.8v11.3c-.1 0-.2 0-.4 0-3 0-5.4 2.4-5.4 5.4s2.4 5.4 5.4 5.4h.4v.6c0 10.2 8.3 21.2 18.5 21.2s18.5-11 18.5-21.2v-.5c2.8-.3 5.1-2.7 5.1-5.6z" fill="#bbd7ff" fill-rule="nonzero"/><path d="m125.3 62.7c0-2.9-2.3-5.3-5.2-5.4v-11.2c0-6.5-5.3-11.8-11.8-11.8h-13.3c-6.5 0-11.8 5.3-11.8 11.8v11.3c-.1 0-.2 0-.4 0-3 0-5.4 2.4-5.4 5.4s2.4 5.4 5.4 5.4h.4v.6c0 10.2 8.3 21.2 18.5 21.2s18.5-11 18.5-21.2v-.5c2.8-.3 5.1-2.7 5.1-5.6z" fill="#bbd7ff" fill-rule="nonzero"/><path d="m93.2 69.6s-2.6-28.4-1.1-35c-5.1 1.3-8.9 5.9-8.9 11.4v11.3c-.1 0-.2 0-.4 0-3 0-5.4 2.4-5.4 5.4s2.4 5.4 5.4 5.4h.4v.6c0 10.2 8.3 21.2 18.5 21.2 1.2 0 2.5-.2 3.6-.5-7-3.4-12.1-11.8-12.1-19.8z" fill="#a4cdff" fill-opacity=".5" fill-rule="nonzero"/><path d="m120.1 55.6v-9.6c0-2.2-.6-4.3-1.7-6-.8-.7-1.8-1.4-2.8-2-5.1-2.9-10.8-3.1-14.3-.7-3.5-2.4-9.2-2.2-14.3.7-.6.3-1.1.7-1.6 1-1.4 2-2.3 4.4-2.3 7v10c3.5 1.9 8.8 1.6 13.6-1.1 1.8-1 3.4-2.3 4.6-3.7 1.2 1.4 2.8 2.7 4.6 3.7 5.1 2.9 10.7 3 14.2.7z" fill="#a4cdff" fill-rule="nonzero"/><path d="m89.2 68.6v-.6c-.1 0-.1-10.7 0-10.7v-11.2c0-6.5 5.3-11.8 11.8-11.8h-6c-6.5 0-11.8 5.3-11.8 11.8v11.3c-.1 0-.2 0-.4 0-3 0-5.4 2.4-5.4 5.4s2.4 5.4 5.4 5.4h.4v.6c0 10.2 8.3 21.2 18.5 21.2 1 0 2-.1 3-.3-8.8-2.1-15.5-11.9-15.5-21.1z" fill="#a4cdff" fill-rule="nonzero"/><path d="m120.4 60.4h.4c1.1 0 2 .9 2 2v.8c0 1.1-.9 2-2 2h-.4z" fill="#5f93e7" fill-rule="nonzero"/><path d="m101 75.3c-1.8 0-3.2-1.4-3.2-3.2 0-.6.4-1 1-1s1 .4 1 1c0 .7.5 1.2 1.2 1.2s1.2-.5 1.2-1.2c0-.6.4-1 1-1s1 .4 1 1c.1 1.7-1.4 3.2-3.2 3.2z" fill="#5f93e7" fill-rule="nonzero"/><path d="m101.4 81.9c-.7 0-1.5-.1-2.2-.3-.5-.2-.8-.7-.6-1.3.2-.5.7-.8 1.3-.6 1 .3 2.1.3 3.1 0 .5-.2 1.1.1 1.3.6s-.1 1.1-.6 1.3c-.8.2-1.6.3-2.3.3z" fill="#5f93e7" fill-rule="nonzero"/><path d="m112.1 59.3c-.1 0-.2 0-.3 0-1-.3-2.1-.3-3.1 0-.5.2-1.1-.1-1.3-.6s.1-1.1.6-1.3c1.4-.5 2.9-.5 4.3 0 .5.2.8.7.6 1.3 0 .4-.4.6-.8.6z" fill="#5f93e7" fill-rule="nonzero"/><path d="m94.3 59.3c-.1 0-.2 0-.3 0-1-.3-2.1-.3-3.1 0-.5.2-1.1-.1-1.3-.6s.1-1.1.6-1.3c1.4-.5 2.9-.5 4.3 0 .5.2.8.7.6 1.3 0 .4-.4.6-.8.6z" fill="#5f93e7" fill-rule="nonzero"/><path d="m99.6 81.6c-.1 0-.2 0-.3 0-1.4-.5-2.7-1.4-3.6-2.7-.3-.5-.2-1.1.3-1.4s1.1-.2 1.4.3c.6.9 1.5 1.6 2.5 1.9.5.2.8.7.6 1.3-.1.3-.5.6-.9.6z" fill="#5f93e7" fill-rule="nonzero"/><circle cx="92.6" cy="63.1" fill="#5f93e7" r="1.9"/><circle cx="110.2" cy="63.1" fill="#5f93e7" r="1.9"/><circle cx="79.6" cy="67.9" fill="#fa0" r="1.9"/><path d="m79.6 70.5c-1.4 0-2.6-1.2-2.6-2.6s1.2-2.6 2.6-2.6 2.6 1.2 2.6 2.6-1.2 2.6-2.6 2.6zm0-3.9c-.7 0-1.3.6-1.3 1.3s.6 1.3 1.3 1.3 1.3-.6 1.3-1.3-.6-1.3-1.3-1.3z" fill="#445d95" fill-rule="nonzero"/><path d="m122.9 46c0-.1 0-.2 0-.3 0-.2 0-.4-.1-.7 0-.1 0-.3 0-.4 0-.2 0-.4-.1-.6 0-.1 0-.3-.1-.4 0-.2-.1-.4-.1-.6 0-.1-.1-.3-.1-.4 0-.2-.1-.4-.1-.5s-.1-.3-.1-.4c0-.2-.1-.3-.1-.5 0-.1-.1-.3-.1-.4-.1-.2-.1-.3-.2-.5-.1-.1-.1-.3-.2-.4-.1-.2-.1-.3-.2-.5s-.1-.3-.2-.4-.1-.3-.2-.4-.1-.3-.2-.4-.1-.3-.2-.4-.2-.3-.2-.4c-.1-.1-.1-.3-.2-.4-.1-.2-.2-.3-.3-.4s-.2-.2-.2-.4c-.1-.2-.2-.3-.3-.5-.1-.1-.2-.2-.2-.3-.1-.2-.2-.3-.3-.5-.1-.1-.1-.2-.2-.3-.1-.2-.3-.3-.4-.5-.1-.1-.1-.1-.2-.2-.2-.2-.3-.4-.5-.5l-.1-.1c-1-1.1-2.2-2.1-3.4-3h-.1c-.2-.2-.5-.3-.7-.5 0 0-.1 0-.1-.1-.2-.1-.5-.3-.7-.4l-.1-.1c-.2-.1-.5-.2-.7-.4-.1 0-.1-.1-.2-.1-.2-.1-.5-.2-.7-.3-.1 0-.1 0-.2-.1-.2-.1-.5-.2-.7-.3-.1 0-.1 0-.2-.1-.2-.1-.5-.2-.7-.3-.1 0-.1 0-.2-.1-.3-.1-.5-.2-.8-.2-.1 0-.1 0-.2 0-.3-.1-.5-.1-.8-.2h-.1c-.3-.1-.5-.1-.8-.2h-.1c-.3-.1-.6-.1-.9-.1h-.1c-.9-.1-1.8-.2-2.8-.2h-1.9c-11.3 0-20.5 9.2-20.5 20.5v4.6c-1.1.8-2.2 1.5-3.4 2.2 1.1.5 2.2 1 3.4 1.3v.9l1.1-.6c1.5.3 3.1.5 4.7.5 6.2 0 11.8-2.7 15.6-7.1h.5c3.4 4.3 8.6 7.1 14.5 7.1 2.3 0 4.4-.4 6.5-1.2v-5.9-1.9c.2-.4.2-.7.2-1z" fill="#4882d8" fill-rule="nonzero"/><path d="m101 85.8c.7 0 1.4-.2 1.9-.5.8-.4.5-1.6-.4-1.6h-3c-.9 0-1.2 1.2-.4 1.6.5.4 1.2.5 1.9.5z" fill="#8fc4f7" fill-rule="nonzero"/><path d="m37.1 126.7h-15.4c-9.7 0-17.5-7.9-17.5-17.5 0-9.7 7.9-17.5 17.5-17.5h15.4c9.7 0 17.5 7.9 17.5 17.5s-7.8 17.5-17.5 17.5z" fill="#2c71c4" fill-rule="nonzero"/><path d="m37.4 95.3c0 .6-.4 1.2-1.1 1.3-1.9.4-3.8.5-5.7.5s-3.9-.2-5.7-.5c-.6-.1-1.1-.7-1.1-1.3v-7.8h13.6z" fill="#bbd7ff" fill-rule="nonzero"/><ellipse cx="30.6" cy="96.1" fill="#bbd7ff" rx="6.8" ry="3"/><path d="m37.3 94.7c-2.1.9-4.3 1.3-6.7 1.3s-4.7-.5-6.9-1.3v-5.5h13.6z" fill="#4882d8" fill-opacity=".55" fill-rule="nonzero"/><circle cx="49.3" cy="66.3" fill="#a4cdff" r="4.1"/><path d="m49.3 64.2h.3c1 0 1.7.8 1.7 1.7v.7c0 1-.8 1.7-1.7 1.7h-.3z" fill="#5f93e7" fill-rule="nonzero"/><path d="m35 92.5h-9c-7.8 0-14.1-6.3-14.1-14.1v-23.6c0-10.3 8.3-18.6 18.6-18.6s18.6 8.3 18.6 18.6v23.5c0 7.9-6.3 14.2-14.1 14.2z" fill="#bbd7ff" fill-rule="nonzero"/><path d="m22.9 79v-25.8c0-7.8 6.3-14.1 14.1-14.1h2.2c-1.3-.4-2.8-.7-4.3-.7h-9c-7.8 0-14.1 6.3-14.1 14.1v25.9c0 7.8 6.3 14.1 14.1 14.1h6.8c-5.6-1.8-9.8-7.1-9.8-13.5z" fill="#a4cdff" fill-opacity=".5" fill-rule="nonzero"/><path d="m18.2 78.4v-23.7c0-7.8 6.3-14.1 14.1-14.1h-6.3c-7.8 0-14.1 6.3-14.1 14.1v23.7c0 7.8 6.3 14.1 14.1 14.1h6.3c-7.8 0-14.1-6.3-14.1-14.1z" fill="#a4cdff" fill-rule="nonzero"/><circle cx="11.9" cy="66.3" fill="#a4cdff" r="4.1"/><path d="m11.9 68.3h-.3c-1 0-1.7-.8-1.7-1.7v-.7c0-1 .8-1.7 1.7-1.7h.3z" fill="#5f93e7" fill-rule="nonzero"/><path d="m30.5 87c.7 0 1.4-.2 1.9-.5.8-.4.5-1.6-.4-1.6h-3c-.9 0-1.2 1.2-.4 1.6.5.3 1.2.5 1.9.5z" fill="#8fc4f7" fill-rule="nonzero"/><path d="m33.3 73c0 1.5-1.2 2.7-2.7 2.7s-2.6-1.2-2.6-2.7 1.2-6.2 2.7-6.2 2.6 4.8 2.6 6.2z" fill="#fff" fill-opacity=".33" fill-rule="nonzero"/><path d="m30.5 75.1c-.4 0-.8-.3-.8-.8s.3-.8.8-.8.9-.4.9-.9c0-.4.3-.8.8-.8.4 0 .8.3.8.8-.1 1.4-1.2 2.5-2.5 2.5z" fill="#fff" fill-opacity=".33" fill-rule="nonzero"/><path d="m36.7 67c.4 0 .8-.3.8-.8 0-.6.5-1.2 1.2-1.2s1.2.5 1.2 1.2c0 .4.3.8.8.8.4 0 .8-.3.8-.8 0-1.5-1.2-2.7-2.7-2.7s-2.7 1.2-2.7 2.7c-.2.4.1.8.6.8z" fill="#5f93e7" fill-rule="nonzero"/><path d="m24.4 67c-.4 0-.8-.3-.8-.8 0-.6-.5-1.2-1.2-1.2s-1.2.5-1.2 1.2c0 .4-.3.8-.8.8-.4 0-.8-.3-.8-.8 0-1.5 1.2-2.7 2.7-2.7s2.7 1.2 2.7 2.7c.1.4-.2.8-.6.8z" fill="#5f93e7" fill-rule="nonzero"/><path d="m34.7 80.6c0 1.4-1.8 2.6-4.1 2.6s-4.1-1.2-4.1-2.6 1.7-.4 4-.4 4.2-1.1 4.2.4z" fill="#5f93e7" fill-rule="nonzero"/><path d="m48.7 49.9c-.1-.3-.2-.5-.3-.7 0 0 0-.1-.1-.1-.1-.2-.2-.4-.3-.5 0-.1-.1-.1-.1-.2-.1-.2-.2-.3-.3-.5 0-.1-.1-.1-.1-.2-.1-.2-.2-.3-.3-.5 0-.1-.1-.1-.1-.2-.1-.2-.2-.3-.3-.5 0-.1-.1-.1-.1-.2-.1-.2-.2-.3-.3-.5 0 0 0-.1-.1-.1-.3-.4-.6-.8-.9-1.1-3.6-4.5-9.2-7.3-15.4-7.3s-11.7 2.8-15.4 7.3c-.5.6-.9 1.2-1.3 1.8l-.1.1c-.1.2-.2.3-.3.5l-.1.1c-.1.2-.2.3-.3.5l-.1.1c-.1.2-.2.4-.3.5 0 0 0 .1-.1.1-.1.2-.2.4-.3.6 0 0 0 .1-.1.1-.1.2-.2.4-.3.6v.1c-.9 2.3-1.4 4.7-1.4 7.3v6.4c2.5 0 4.5-2 4.5-4.5v-6.6c4 1.8 9.4 2.9 15.4 2.9s11.4-1.1 15.4-2.9v6.7c0 2.5 2 4.5 4.5 4.5v-6.4c.4-2.5-.1-4.9-1-7.2z" fill="#a4cdff" fill-rule="nonzero"/><path d="m48.7 47.6c-.1-.3-.2-.5-.3-.7 0 0 0-.1-.1-.1-.1-.2-.2-.4-.3-.5 0-.1-.1-.1-.1-.2-.1-.2-.2-.3-.3-.5 0-.1-.1-.1-.1-.2-.1-.2-.2-.3-.3-.5 0-.1-.1-.1-.1-.2-.1-.2-.2-.3-.3-.5 0-.1-.1-.1-.1-.2-.1-.2-.2-.3-.3-.5 0 0 0-.1-.1-.1-.3-.4-.6-.8-.9-1.1-3.4-4.4-8.9-7.3-15.1-7.3s-11.7 2.8-15.4 7.3c-.5.6-.9 1.2-1.3 1.8l-.1.1c-.1.2-.2.3-.3.5l-.1.1c-.1.2-.2.3-.3.5l-.1.1c-.1.2-.2.4-.3.5 0 0 0 .1-.1.1-.1.2-.2.4-.3.6 0 0 0 .1-.1.1-.1.2-.2.4-.3.6v.1c-.9 2.3-1.4 4.7-1.4 7.3v11c2.5 0 4.5-2 4.5-4.5v-11c4 1.8 9.4 2.9 15.4 2.9s11.4-1.1 15.4-2.9v11.3c0 2.5 2 4.5 4.5 4.5v-11c.1-2.7-.4-5.1-1.3-7.4z" fill="#5f93e7" fill-rule="nonzero"/><path d="m20.7 51.8c0-7.4 4.3-13.7 10.5-16.8-.3 0-.6 0-.9 0-6.2 0-11.7 2.8-15.4 7.3-.5.6-.9 1.2-1.3 1.8l-.1.1c-.1.2-.2.3-.3.5l-.1.1c-.1.2-.2.3-.3.5l-.1.1c-.1.2-.2.4-.3.5 0 0 0 .1-.1.1-.1.2-.2.4-.3.6 0 0 0 .1-.1.1-.1.2-.2.4-.3.6v.1c-.9 2.3-1.4 4.7-1.4 7.3v11c2.5 0 4.5-2 4.5-4.5v-11c1.7.8 3.7 1.4 5.8 1.9v-.3z" fill="#4882d8" fill-rule="nonzero"/><path d="m91.2 95.7h-2.5-48.4-2.5c-6.4 0-11.5 5.2-11.5 11.5v12.4c0 6.4 5.2 11.5 11.5 11.5h53.4c6.4 0 11.5-5.2 11.5-11.5v-12.4c0-6.3-5.1-11.5-11.5-11.5z" fill="#4ac6c6" fill-rule="nonzero"/><path d="m48.3 96.3c0 6.7 8.1 12.1 18.1 12.1s18.1-5.4 18.1-12.1c0-.2 0-.4 0-.5h-36.2z" fill="#32b2af" fill-rule="nonzero"/><path d="m75.8 101c0 .9-.6 1.7-1.5 1.8-2.6.5-5.4.8-8.1.8-2.8 0-5.5-.3-8.1-.8-.9-.2-1.5-.9-1.5-1.8v-11.1h19.3v11.1z" fill="#edcec3" fill-rule="nonzero"/><ellipse cx="66.1" cy="102.1" fill="#edcec3" rx="9.7" ry="4.3"/><path d="m75.8 97.7c-3 1.2-6.2 1.8-9.6 1.8s-6.7-.7-9.7-1.9v-7.7h19.3z" fill="#e0baad" fill-rule="nonzero"/><circle cx="92.7" cy="59.8" fill="#f4d6c9" r="5.9"/><path d="m92.7 56.9h.5c1.4 0 2.4 1.1 2.4 2.4v1c0 1.4-1.1 2.4-2.4 2.4h-.5z" fill="#d6a599" fill-rule="nonzero"/><path d="m66 97c-14.6 0-26.4-11.8-26.4-26.4v-34.3h52.8v34.3c0 14.6-11.8 26.4-26.4 26.4z" fill="#f8dfd2" fill-rule="nonzero"/><path d="m52 72.2v-34.3h40.5v-1.6h-52.9v34.3c0 14.6 11.8 26.4 26.4 26.4 1 0 2-.1 2.9-.2-9.9-3.7-16.9-13.3-16.9-24.6z" fill="#f4d6c9" fill-rule="nonzero"/><circle cx="39.7" cy="59.8" fill="#edcec3" r="5.9"/><g fill-rule="nonzero"><path d="m47.5 70.6v-34.2h-7.8v34.2c0 14.6 11.8 26.4 26.4 26.4 1.3 0 2.6-.1 3.9-.3-12.7-1.9-22.5-12.8-22.5-26.1z" fill="#edcec3"/><path d="m39.6 36.3v1.6h51.5v34.3c0 5.9-2 11.4-5.3 15.8 4.1-4.7 6.6-10.7 6.6-17.4v-34.3z" fill="#f4d6c9"/><path d="m38.7 31.5v14.7h37c7.7 0 13.9-6.2 13.9-13.9v-6.6c0-2.2-1.8-4-4-4h-37.1c-5.4 0-9.8 4.4-9.8 9.8z" fill="#edcec3"/><path d="m83.7 21.7h-14.6v16.6h14.4c2.3 0 4.1 1.9 4.1 4.1v7.6c0 2.2 1.8 3.9 3.9 3.9h2v-22.4c0-5.4-4.4-9.8-9.8-9.8z" fill="#bc6f35"/><path d="m83.5 38.3c1.5 0 2.8.8 3.5 2 1.6-2.3 2.6-5.1 2.6-8.1v-6.6c0-1.1-.4-2-1.1-2.7-1.4-.8-3-1.2-4.8-1.2h-14.6v16.6z" fill="#a55b28"/><path d="m39.7 62.8h-.5c-1.4 0-2.4-1.1-2.4-2.4v-1c0-1.4 1.1-2.4 2.4-2.4h.5z" fill="#d6a599"/><path d="m35.8 37.2v16.8h2.9c2.2 0 3.9-1.8 3.9-3.9v-3.3c0-1.9 1.6-3.5 3.5-3.5h27.6c7.7 0 13.9-6.2 13.9-13.9v-10.6h-33.4c-10.1 0-18.4 8.2-18.4 18.4z" fill="#ce8345"/><path d="m42.6 46.8v-9.5c0-10.2 8.3-18.4 18.4-18.4h-6.8c-10.2-.1-18.4 8.1-18.4 18.3v16.8h2.9c2.2 0 3.9-1.8 3.9-3.9z" fill="#bc6f35" fill-opacity=".55"/><path d="m80.3 18.8v10.5c0 7.7-6.2 13.9-13.9 13.9h7.8c7.7 0 13.9-6.2 13.9-13.9v-10.5z" fill="#e09761"/><path d="m71.5 18.8v10.5c0 7.7-6.2 13.9-13.9 13.9h7.8c7.7 0 13.9-6.2 13.9-13.9v-10.5z" fill="#e09761" fill-opacity=".55"/><path d="m62.7 18.8v10.5c0 7.7-6.2 13.9-13.9 13.9h7.8c7.7 0 13.9-6.2 13.9-13.9v-10.5z" fill="#e09761" fill-opacity=".22"/><path d="m66.2 83.5c-3 0-5.6-1.1-7.4-2.1-.6-.3-.8-1-.5-1.6s1-.8 1.6-.5c2.4 1.3 4.4 1.8 6.4 1.8 2.3 0 4.6-1 6.3-1.8.6-.3 1.3-.1 1.6.5s.1 1.3-.5 1.6c-2.1 1-4.7 2.1-7.5 2.1z" fill="#6d320b"/><path d="m51.8 58.4-1.4-2.9c.9-.5 2.1-1 3.5-1 1.5 0 2.8.6 3.6 1l-1.5 2.9c-.8-.4-1.5-.6-2.1-.6-.8 0-1.5.3-2.1.6z" fill="#f4d6c9"/><path d="m76.1 58.4-1.4-2.9c.9-.5 2.1-1 3.5-1 1.5 0 2.8.6 3.6 1l-1.5 2.9c-.8-.4-1.5-.6-2.1-.6-.8 0-1.5.3-2.1.6z" fill="#f4d6c9"/><path d="m73.9 56.1-1.4-2.9c1.5-.7 3.4-1.6 5.6-1.6 2.3 0 4.3.8 5.7 1.6l-1.5 2.9c-1.6-.8-2.9-1.2-4.2-1.2-1.5 0-3 .6-4.2 1.2z" fill="#ce8345"/><path d="m73.9 56.2-1.4-2.9c1.5-.7 3.4-1.6 5.6-1.6v3.2c-1.5 0-3 .7-4.2 1.3z" fill="#bc6f35"/><path d="m50 56.1-1.4-2.9c1.5-.7 3.4-1.6 5.6-1.6 2.3 0 4.3.8 5.7 1.6l-1.5 2.9c-1.6-.8-2.9-1.2-4.2-1.2-1.6 0-3.1.6-4.2 1.2z" fill="#ce8345"/><path d="m50 56.2-1.4-2.9c1.5-.7 3.4-1.6 5.6-1.6v3.2c-1.6 0-3.1.7-4.2 1.3z" fill="#bc6f35"/><path d="m66.1 89.2c1 0 2-.2 2.7-.6 1.1-.6.7-2.3-.6-2.3h-4.2c-1.3 0-1.7 1.7-.6 2.3.7.3 1.7.6 2.7.6z" fill="#e0baad"/></g><circle cx="82.3" cy="73.9" fill="#f4cdcb" r="5.6"/><circle cx="82.3" cy="73.9" fill="#efb6b6" r="3.2"/><circle cx="49.9" cy="73.9" fill="#f4cdcb" r="5.6"/><circle cx="49.9" cy="73.9" fill="#efb6b6" r="3.2"/><circle cx="78.2" cy="60.3" fill="#6d320b" r="2.7"/><circle cx="53.9" cy="60.3" fill="#6d320b" r="2.7"/><path d="m70 69.4c0 2.1-1.7 3.8-3.8 3.8s-3.8-1.7-3.8-3.8 1.7-8.8 3.8-8.8 3.8 6.7 3.8 8.8z" fill="#ea9292" fill-rule="nonzero"/><path d="m66 72.1c-.4 0-.8-.3-.8-.8 0-.4.3-.8.8-.8.9 0 1.6-.7 1.6-1.6 0-.4.3-.8.8-.8s.8.3.8.8c0 1.8-1.4 3.2-3.2 3.2z" fill="#fff" fill-opacity=".33" fill-rule="nonzero"/></svg>