<svg clip-rule="evenodd" fill-rule="evenodd" stroke-linejoin="round" stroke-miterlimit="1.41421" viewBox="0 0 129 129" xmlns="http://www.w3.org/2000/svg"><circle cx="64.5" cy="64.5" fill="#445d94" r="64.5"/><path d="m84.2 140h-38.9c-10.6 0-19.2-8.6-19.2-19.2s8.6-19.2 19.2-19.2h38.9c10.6 0 19.2 8.6 19.2 19.2s-8.6 19.2-19.2 19.2z" fill="#f8b721" fill-rule="nonzero"/><path d="m50 105.3c0 6.2 7.5 11.2 16.8 11.2s16.8-5 16.8-11.2c0-1.3-.3-2.5-.9-3.7h-31.8c-.6 1.1-.9 2.4-.9 3.7z" fill="#e8a318" fill-rule="nonzero"/><path d="m77 107.3c0 1-.7 1.8-1.6 2-2.9.5-5.8.8-8.8.8s-6-.3-8.8-.8c-.9-.2-1.6-1-1.6-2v-12h20.8z" fill="#edcec3" fill-rule="nonzero"/><ellipse cx="66.5" cy="108.4" fill="#edcec3" rx="10.5" ry="4.6"/><path d="m76.9 103.7c-3.2 1.3-6.7 1.9-10.3 1.9-3.7 0-7.3-.7-10.5-2v-8.4h20.9v8.5z" fill="#e0baad" fill-rule="nonzero"/><circle cx="95.2" cy="62.7" fill="#f4d6c9" r="6.4"/><path d="m95.2 59.6h.5c1.5 0 2.6 1.2 2.6 2.6v1.1c0 1.5-1.2 2.6-2.6 2.6h-.5z" fill="#d6a599" fill-rule="nonzero"/><path d="m66.4 103c-15.8 0-28.6-12.8-28.6-28.6v-37.1h57.2v37.1c0 15.8-12.8 28.6-28.6 28.6z" fill="#f8dfd2" fill-rule="nonzero"/><path d="m51.2 76.1v-37.1h43.8v-1.7h-57.2v37.1c0 15.8 12.8 28.6 28.6 28.6 1.1 0 2.1-.1 3.1-.2-10.7-4.1-18.3-14.5-18.3-26.7z" fill="#f4d6c9" fill-rule="nonzero"/><circle cx="37.9" cy="62.7" fill="#edcec3" r="6.4"/><g fill-rule="nonzero"><path d="m46.4 74.4v-37.1h-8.5v37.1c0 15.8 12.8 28.6 28.6 28.6 1.4 0 2.9-.1 4.2-.3-13.7-2.1-24.3-14-24.3-28.3z" fill="#edcec3"/><path d="m37.8 37.3v1.7h55.8v37.1c0 6.4-2.1 12.4-5.7 17.1 4.4-5 7.1-11.6 7.1-18.9v-37z" fill="#f4d6c9"/><path d="m36.9 32v15.9h39.9c8.3 0 15.1-6.7 15.1-15.1v-7.1c0-2.4-1.9-4.3-4.3-4.3h-40.1c-5.9 0-10.6 4.8-10.6 10.6z" fill="#edcec3"/><path d="m85.6 21.4h-15.9v18h15.6c2.5 0 4.5 2 4.5 4.5v8.2c0 2.3 1.9 4.2 4.2 4.2h2.1v-24.3c.1-5.8-4.7-10.6-10.5-10.6z" fill="#bc6f35"/><path d="m85.3 39.4c1.6 0 3 .9 3.8 2.1 1.8-2.5 2.8-5.5 2.8-8.7v-7.1c0-1.1-.5-2.2-1.2-3-1.5-.9-3.3-1.3-5.2-1.3h-15.8v18z" fill="#a55b28"/><path d="m37.9 65.9h-.5c-1.5 0-2.6-1.2-2.6-2.6v-1.1c0-1.5 1.2-2.6 2.6-2.6h.5z" fill="#d6a599"/><path d="m33.7 38.3v18.2h3.2c2.3 0 4.2-1.9 4.2-4.2v-3.6c0-2.1 1.7-3.8 3.8-3.8h29.8c8.3 0 15.1-6.7 15.1-15.1v-11.5h-36.2c-11 0-19.9 8.9-19.9 20z" fill="#ce8345"/><path d="m41.1 48.6v-10.3c0-11 8.9-20 20-20h-7.4c-11 0-20 8.9-20 20v18.2h3.2c2.3 0 4.2-1.9 4.2-4.2z" fill="#bc6f35" fill-opacity=".55"/><path d="m81.9 18.3v11.4c0 8.3-6.7 15.1-15.1 15.1h8.5c8.3 0 15.1-6.7 15.1-15.1v-11.4z" fill="#e09761"/><path d="m72.3 18.3v11.4c0 8.3-6.7 15.1-15.1 15.1h8.5c8.3 0 15.1-6.7 15.1-15.1v-11.4z" fill="#e09761" fill-opacity=".55"/><path d="m62.8 18.3v11.4c0 8.3-6.7 15.1-15.1 15.1h8.5c8.3 0 15.1-6.7 15.1-15.1v-11.4z" fill="#e09761" fill-opacity=".22"/><path d="m66.6 88.4c-3.3 0-6-1.2-8-2.3-.6-.3-.9-1.1-.5-1.7.3-.6 1.1-.9 1.7-.5 2.6 1.4 4.8 2 6.9 2 2.5 0 4.9-1.1 6.8-2 .6-.3 1.4-.1 1.7.6.3.6.1 1.4-.6 1.7-2.2 1-5 2.2-8 2.2z" fill="#6d320b"/><path d="m51 61.2-1.6-3.1c1-.5 2.3-1.1 3.8-1.1 1.6 0 3 .6 3.9 1.1l-1.6 3.1c-.9-.5-1.6-.7-2.3-.7s-1.6.4-2.2.7z" fill="#f4d6c9"/><path d="m77.3 61.2-1.6-3.1c1-.5 2.3-1.1 3.8-1.1 1.6 0 3 .6 3.9 1.1l-1.6 3.1c-.9-.5-1.6-.7-2.3-.7-.8 0-1.6.4-2.2.7z" fill="#f4d6c9"/><path d="m74.9 58.7-1.6-3.1c1.6-.8 3.7-1.7 6-1.7 2.5 0 4.6.9 6.1 1.7l-1.6 3.1c-1.8-.9-3.1-1.3-4.5-1.3-1.5 0-3.1.7-4.4 1.3z" fill="#ce8345"/><path d="m74.9 58.8-1.6-3.1c1.6-.8 3.7-1.7 6-1.7v3.5c-1.5-.1-3.1.6-4.4 1.3z" fill="#bc6f35"/><path d="m49 58.7-1.6-3.1c1.6-.8 3.7-1.7 6-1.7 2.5 0 4.6.9 6.1 1.7l-1.5 3.1c-1.8-.9-3.1-1.3-4.5-1.3-1.6 0-3.3.7-4.5 1.3z" fill="#ce8345"/><path d="m49 58.8-1.6-3.1c1.6-.8 3.7-1.7 6-1.7v3.5c-1.5-.1-3.2.6-4.4 1.3z" fill="#bc6f35"/><path d="m66.5 94.5c1.1 0 2.2-.3 3-.7 1.2-.6.7-2.5-.6-2.5h-4.7c-1.4 0-1.8 1.8-.6 2.5.8.4 1.8.7 2.9.7z" fill="#e0baad"/></g><circle cx="84.1" cy="77.9" fill="#f4cdcb" r="6.1"/><circle cx="84.1" cy="77.9" fill="#efb6b6" r="3.5"/><circle cx="49" cy="77.9" fill="#f4cdcb" r="6.1"/><circle cx="49" cy="77.9" fill="#efb6b6" r="3.5"/><circle cx="79.6" cy="63.2" fill="#6d320b" r="2.9"/><circle cx="53.3" cy="63.2" fill="#6d320b" r="2.9"/><path d="m70.7 73.1c0 2.3-1.8 4.1-4.1 4.1s-4.1-1.8-4.1-4.1 1.8-9.6 4.1-9.6 4.1 7.3 4.1 9.6z" fill="#ea9292" fill-rule="nonzero"/><path d="m66.4 75.9c-.4 0-.8-.3-.8-.8s.3-.8.8-.8c1 0 1.8-.8 1.8-1.8 0-.4.3-.8.8-.8.4 0 .8.3.8.8 0 1.9-1.5 3.4-3.4 3.4z" fill="#fff" fill-opacity=".33" fill-rule="nonzero"/><path d="m94.9 60.9h.6c1.6 0 2.9 1.3 2.9 2.9v1.2c0 1.6-1.3 2.9-2.9 2.9h-.6z" fill="#e0baad" fill-rule="nonzero"/><circle cx="82.1" cy="92.2" fill="#5f93e7" r="7"/><path d="m78.6 93.3c0-3.8 3.1-7 7-7h.4c-1.1-.7-2.4-1.2-3.9-1.2-3.8 0-7 3.1-7 7 0 3.7 2.9 6.7 6.6 6.9-1.8-1.1-3.1-3.3-3.1-5.7z" fill="#dcf2ff" fill-opacity=".22" fill-rule="nonzero"/><path d="m88.8 93.2h-4.4c-.6 0-1-.4-1-1s.4-1 1-1h4.4c7.2 0 13.1-5.9 13.1-13.1v-11.4c0-.6.4-1 1-1s1 .4 1 1v11.3c.1 8.4-6.7 15.2-15.1 15.2z" fill="#5f93e7" fill-rule="nonzero"/><path d="m100.7 73.6v-20.9c5.8 0 10.4 4.7 10.4 10.4 0 5.8-4.7 10.5-10.4 10.5z" fill="#5f93e7" fill-rule="nonzero"/><path d="m103 53.3c-1.1-.4-2.3-.6-3.5-.6v20.9c1.2 0 2.4-.2 3.5-.6z" fill="#435d94" fill-opacity=".22" fill-rule="nonzero"/><path d="m97.8 75.9c1.6 0 2.9-1.3 2.9-2.9v-19.7c0-1.6-1.3-2.9-2.9-2.9s-2.9 1.3-2.9 2.9v19.7c0 1.6 1.3 2.9 2.9 2.9z" fill="#84b2f4" fill-rule="nonzero"/><path d="m97.8 50.4c-.4 0-.8.1-1.2.2 1 .4 1.7 1.5 1.7 2.7v19.7c0 1.2-.7 2.2-1.7 2.7.4.2.7.2 1.2.2 1.6 0 2.9-1.3 2.9-2.9v-19.7c0-1.6-1.3-2.9-2.9-2.9z" fill="#dcf2ff" fill-opacity=".22" fill-rule="nonzero"/><path d="m113.6 54.4c-.5 0-.9-.2-1.2-.5-.7-.7-.7-1.8 0-2.5l5-5c.7-.7 1.8-.7 2.5 0s.7 1.8 0 2.5l-5 5c-.4.3-.9.5-1.3.5z" fill="#5f93e7" fill-rule="nonzero"/><path d="m107.2 51.7c-1 0-1.8-.8-1.8-1.8v-7.1c0-1 .8-1.8 1.8-1.8s1.8.8 1.8 1.8v7.2c0 .9-.8 1.7-1.8 1.7z" fill="#5f93e7" fill-rule="nonzero"/><path d="m123.3 60.7h-7.1c-1 0-1.8-.8-1.8-1.8s.8-1.8 1.8-1.8h7.1c1 0 1.8.8 1.8 1.8-.1 1-.9 1.8-1.8 1.8z" fill="#5f93e7" fill-rule="nonzero"/></svg>