<svg viewBox="0 0 512 512" xmlns="http://www.w3.org/2000/svg"><g fill="#f59120" fill-rule="evenodd"><path d="m256 1c-140.8 0-255 114.2-255 255s114.2 255 255 255 255-114.2 255-255-114.2-255-255-255z"/><path d="m141 483.6c9 4.6 18.3 8.6 27.9 12.1v-51.5h-27.9zm202.1-39.3v51.5c9.6-3.5 18.9-7.5 27.9-12.1v-39.4z" fill="#fff5e5"/><path d="m324.1 368.4v-7.4h-15.5c-10.8-4-22.4-6.2-34.5-6.2h-36.1c-12.1 0-23.8 2.2-34.5 6.2h-15.5v7.4c-29 17-48.7 48.4-49.3 84.1h49.3v49.3c21.7 6 44.5 9.2 68.1 9.2s46.4-3.2 68.1-9.2v-49.3h49.2c-.6-35.8-20.3-67.1-49.3-84.1z" fill="#121325"/><path d="m138.1 236.9c-12.9 0-23.3 10.4-23.3 23.3s10.4 23.3 23.3 23.3 23.3-10.4 23.3-23.3-10.5-23.3-23.3-23.3zm235.8 0c-12.9 0-23.3 10.4-23.3 23.3s10.4 23.3 23.3 23.3 23.3-10.4 23.3-23.3c.1-12.9-10.4-23.3-23.3-23.3z" fill="#fff5e5"/><path d="m245 360.9v149.9c3.6.2 7.3.2 11 .2h4.6v-150.1z" fill="#f9ae41"/><path d="m260.6 360.9v150.1c2.1 0 4.2-.1 6.4-.2v-149.9z"/><path d="m256 339.4-33 32.9 33 33 32.9-33z" fill="#fff5e5"/></g><path d="m385.4 190.9c0-17.1-6.1-32.6-16-43.9-9.9-11.2-23.5-18.2-38.5-18.2h-149.8c-15 0-28.6 7-38.5 18.2-9.9 11.3-16 26.8-16 43.9l20.6 121.5c0 17.1 6.1 32.6 16 43.8 9.9 11.3 23.5 18.2 38.5 18.2h108.6c15 0 28.6-7 38.5-18.2 9.9-11.3 16-26.8 16-43.8z" fill="#fff5e5"/><g fill="#121325"><path d="m308 230.3c-22.5 0-40.8 18.2-40.8 40.8 0 22.5 18.2 40.8 40.8 40.8 22.5 0 40.8-18.2 40.8-40.8-.1-22.6-18.3-40.8-40.8-40.8z" fill-rule="evenodd"/><path d="m157.5 217.5-4.2 10.7 140.5 55.5 4.2-10.8z"/><path d="m398.2 242.8-76.2 30.1 4.3 10.8 76.1-30.1z"/></g><path d="m256.9 38.3c-125.5 0-251.7 224.9-227.1 279.6 24.6 54.8 101.7-95.3 227.2-95.3s214 137.5 227.2 95.3c13-42.1-101.8-279.6-227.3-279.6z" fill="#d24027" fill-rule="evenodd"/><path d="m281.1 151.1c-5.1 0-9.5-1.9-13.1-5.6-3.7-3.7-5.5-8.3-5.5-13.5 0-4.9 1.7-9.2 5.1-12.9-7.1-11.7-11.6-23.3-13.7-34.7-14.4.4-26.6 5-36.6 14.1-9.5 8.6-15.2 19.3-17.2 32.1-.4 2.1-.5 4.1-.5 6.2 0 8.6 2.8 16.1 8.3 22.6s13.4 11.2 23.5 14.2v2.4c0 2.9 1 5.3 3 7.4s4.3 3.2 7.1 3.3c2.9.3 5-.3 6.4-1.6 2.1 1.7 4.6 2.6 7.4 2.6 2.5 0 4.8-.8 7-2.3 1.4 1.2 3.5 1.6 6.2 1.3 2.9-.3 5.3-1.4 7.2-3.4s2.9-4.5 2.9-7.3v-1.9c11-2.9 19.5-7.8 25.5-14.8-4.6-3.6-8.9-7.2-12.9-11-3.2 1.8-6.5 2.8-10.1 2.8zm-38.2-5.9c-3 3.5-6.7 5.3-10.9 5.3-4.3 0-8-1.8-11-5.3s-4.6-7.8-4.6-12.8c0-4.9 1.5-9.2 4.6-12.8 3-3.6 6.7-5.4 11-5.4 4.2 0 7.8 1.8 10.9 5.4 3 3.6 4.6 7.8 4.6 12.8s-1.6 9.2-4.6 12.8zm13.1 20.7c-2.5 0-4.4-.7-5.6-2-.7-.8-1.1-1.8-1.1-3.1 0-2 .7-3.9 2.2-5.9s2.9-3 4.4-3c1.4 0 2.7 1.1 4 3.2 1.2 2.1 1.8 4.2 1.8 6.3 0 3-1.9 4.5-5.7 4.5zm55.8-35.5c-2-12.3-7.3-22.6-16.1-31.1-9.2-8.9-20.6-13.9-34.1-15 2.1 9.9 6.2 19.9 12.1 29.9 2.4-.9 4.9-1.3 7.4-1.3 5.2 0 9.6 1.9 13.2 5.6s5.4 8.2 5.4 13.5c0 4-1.1 7.6-3.2 10.9 3.7 3.5 7.6 6.9 11.7 10.2 2.7-5.1 4-10.6 4-16.5 0-2.1-.1-4.1-.4-6.2z" fill="#fff" fill-rule="evenodd"/></svg>