<svg width="117" height="122" xmlns="http://www.w3.org/2000/svg"><defs><linearGradient x1="0%" y1="0%" y2="100%" id="a"><stop stop-color="#31E2FF" offset="0%"/><stop stop-color="#0043AB" offset="100%"/></linearGradient></defs><g fill="none" fill-rule="evenodd"><path d="M63.946 10.808a6.176 6.176 0 0 1 6.108 0l43.844 24.96A6.13 6.13 0 0 1 117 41.095v49.812a6.13 6.13 0 0 1-3.102 5.325l-43.844 24.96a6.176 6.176 0 0 1-6.108 0l-43.844-24.96A6.13 6.13 0 0 1 17 90.906V41.094a6.13 6.13 0 0 1 3.102-5.325l43.844-24.96z" fill="#E1F6FF"/><path d="M46.946.808a6.176 6.176 0 0 1 6.108 0l43.844 24.96A6.13 6.13 0 0 1 100 31.095v49.812a6.13 6.13 0 0 1-3.102 5.325l-43.844 24.96a6.176 6.176 0 0 1-6.108 0L3.102 86.232A6.13 6.13 0 0 1 0 80.906V31.094a6.13 6.13 0 0 1 3.102-5.325L46.946.809zm.75 2.43a4.633 4.633 0 0 1 4.608 0L94.829 27.63a4.598 4.598 0 0 1 2.314 3.986v48.766a4.598 4.598 0 0 1-2.314 3.986l-42.525 24.394a4.633 4.633 0 0 1-4.608 0L5.171 84.369a4.598 4.598 0 0 1-2.314-3.986V31.617c0-1.645.882-3.165 2.314-3.986L47.696 3.237zm.875 32.718c-4.051-.678-7.142-4.193-7.142-8.421 0-4.713 3.84-8.54 8.571-8.54 4.73 0 8.571 3.827 8.571 8.54 0 4.228-3.09 7.743-7.142 8.421v11.623a8.574 8.574 0 0 1 5.175 2.98l10.105-5.814a8.531 8.531 0 0 1 3.749-10.373c4.097-2.357 9.343-.956 11.709 3.126 2.365 4.081.96 9.308-3.138 11.665a8.6 8.6 0 0 1-10.891-1.952l-10.103 5.81c.347.928.536 1.932.536 2.979 0 4.228-3.09 7.743-7.142 8.421v11.623c4.051.678 7.142 4.193 7.142 8.421 0 4.713-3.84 8.54-8.57 8.54-4.732 0-8.572-3.827-8.572-8.54 0-4.228 3.09-7.743 7.142-8.421V64.421C44.52 63.743 41.43 60.228 41.43 56c0-1.047.19-2.05.536-2.978L31.862 47.21a8.6 8.6 0 0 1-10.891 1.952c-4.097-2.357-5.503-7.584-3.138-11.665 2.366-4.082 7.612-5.483 11.71-3.126a8.532 8.532 0 0 1 3.748 10.373l10.105 5.813a8.575 8.575 0 0 1 5.175-2.98V35.957zm1.43 42.816c-3.155 0-5.715 2.551-5.715 5.693 0 3.142 2.56 5.693 5.714 5.693 3.154 0 5.714-2.55 5.714-5.693 0-3.142-2.56-5.693-5.714-5.693zm0-28.465c-3.155 0-5.715 2.55-5.715 5.693 0 3.142 2.56 5.693 5.714 5.693 3.154 0 5.714-2.55 5.714-5.693 0-3.142-2.56-5.693-5.714-5.693zm-19.796-5.693a5.684 5.684 0 0 0-2.091-7.777c-2.732-1.571-6.23-.637-7.806 2.084a5.684 5.684 0 0 0 2.091 7.777c2.732 1.57 6.23.637 7.806-2.084zm39.59 0c1.577 2.721 5.074 3.655 7.806 2.084a5.684 5.684 0 0 0 2.091-7.777c-1.577-2.721-5.074-3.655-7.806-2.084a5.684 5.684 0 0 0-2.091 7.777zM50 21.842c3.154 0 5.714 2.55 5.714 5.693 0 3.142-2.56 5.693-5.714 5.693-3.154 0-5.714-2.551-5.714-5.693 0-3.142 2.56-5.693 5.714-5.693z" fill="url(#a)"/></g></svg>