<svg height="2443" viewBox="0 0 2179 2443" width="2179" xmlns="http://www.w3.org/2000/svg" xmlns:xlink="http://www.w3.org/1999/xlink"><linearGradient id="a" x1="24.346748%" x2="24.346747%" y1="52.055618%" y2="13.537883%"><stop offset="0" stop-color="#fff"/><stop offset="1" stop-color="#f2f9ff"/></linearGradient><path d="m1022.943 17.6277142c41.24116-23.50361893 91.87284-23.50361893 133.114 0 194.35695 110.7650268 759.67974 432.9388678 955.35137 544.4497758 41.79788 23.821371 67.59163 68.152802 67.59163 116.163468v1086.518082c0 48.01067-25.79375 92.3421-67.59163 116.16347-195.67163 111.51091-760.99442 433.68475-955.35137 544.44978-41.24116 23.50361-91.87284 23.50361-133.114 0-194.356953-110.76503-759.67974-432.93887-955.3480166-544.44978-41.8012341-23.82137-67.5949834-68.1528-67.5949834-116.16347 0-222.97833 0-863.539748 0-1086.518082 0-48.010666 25.7937493-92.342097 67.5949834-116.163468 195.6682766-111.510908 760.9910636-433.684749 955.3480166-544.4497758z" fill="url(#a)" fill-rule="evenodd"/></svg>