<svg clip-rule="evenodd" fill-rule="evenodd" viewBox="0 0 300 300" xmlns="http://www.w3.org/2000/svg"><path d="m263.4 214.05v1.5l-1.275.75" fill="none" stroke="#c8dff5" stroke-width="3"/><path d="m37.425 216.3-1.275-.75v-1.5" fill="none" stroke="#c8dff5" stroke-width="3"/><path d="m36.15 211.125v-123.825" fill="none" stroke="#c8dff5" stroke-dasharray="2.98 2.98" stroke-width="3"/><path d="m36.15 85.875v-1.5l1.275-.75" fill="none" stroke="#c8dff5" stroke-width="3"/><path d="m262.125 83.625 1.275.75v1.5" fill="none" stroke="#c8dff5" stroke-width="3"/><path d="m263.4 88.8v123.75" fill="none" stroke="#c8dff5" stroke-dasharray="2.98 2.98" stroke-width="3"/><path d="m126.075 30.675c-30 0-60.975 16.05-85.05 44.025-24.525 28.5-38.025 64.65-38.025 101.85 0 27.375 7.95 63.675 46.05 81.3 22.725 10.5 49.425 11.4 77.1 11.4 13.125 0 23.7-10.575 23.7-23.7v-191.175c-.075-13.125-10.725-23.7-23.775-23.7z" fill="#afd8f9" fill-rule="nonzero"/><path d="m126.075 58.575c-30 0-60.975 16.05-85.05 44.025-21.375 24.75-34.35 55.35-37.35 87.45 2.55 24.9 13.275 52.95 45.375 67.8 22.725 10.5 49.425 11.4 77.1 11.4 13.125 0 23.7-10.575 23.7-23.7v-163.275c-.075-13.05-10.725-23.7-23.775-23.7z" fill="#05bbff" fill-rule="nonzero"/><path d="m126.075 249.6c-27.675 0-54.375-.9-77.1-11.4-28.125-12.975-39.825-36.225-44.025-58.5-.525 3.45-.975 6.9-1.35 10.425 2.55 24.9 13.275 52.95 45.375 67.8 22.725 10.5 49.425 11.4 77.1 11.4 13.125 0 23.7-10.575 23.7-23.7v-19.65c0 12.975-10.65 23.625-23.7 23.625z" fill="#5ba1e1" fill-rule="nonzero"/><g fill="none" stroke="#2481d7" stroke-linecap="round" stroke-linejoin="round"><path d="m126.075 30.675c-30 0-60.975 16.05-85.05 44.025-24.525 28.5-38.025 64.65-38.025 101.85 0 27.375 7.95 63.675 46.05 81.3 22.725 10.5 49.425 11.4 77.1 11.4 13.125 0 23.7-10.575 23.7-23.7v-191.175c-.075-13.125-10.725-23.7-23.775-23.7z" stroke-width="6"/><g stroke-width="4.5"><path d="m37.5 81.525v48.6c0 5.625 4.575 10.2 10.275 10.2h18.9c5.625 0 10.275-4.575 10.275-10.2"/><path d="m149.775 79.05v2.25"/><path d="m149.775 91.575v95.175c0 12.6-10.2 22.725-22.725 22.725h-41.925c-9.975 0-18.525-6.45-21.525-15.45" stroke-dasharray="4.42 10.31"/><path d="m62.475 189c-.075-.75-.075-1.5-.075-2.25"/><path d="m4.05 185.475c0-8.4 6.825-15.15 15.15-15.15h27.975c8.4 0 15.15 6.825 15.15 15.15"/><path d="m116.4 177.375v-2.25"/><path d="m116.4 165.15v-36.375c0-5.625-4.575-10.275-10.275-10.275h-18.9c-3.15 0-5.925 1.425-7.8 3.6" stroke-dasharray="4.26 9.94"/><path d="m77.25 126.6c-.15.75-.225 1.5-.225 2.25"/></g></g><path d="m173.475 30.675c30 0 60.975 16.05 85.05 44.025 24.525 28.5 38.025 64.65 38.025 101.85 0 27.375-7.95 63.675-46.05 81.3-22.725 10.5-49.425 11.4-77.1 11.4-13.125 0-23.7-10.575-23.7-23.7v-191.175c.075-13.125 10.725-23.7 23.775-23.7z" fill="#afd8f9" fill-rule="nonzero"/><path d="m173.475 58.575c30 0 60.975 16.05 85.05 44.025 21.375 24.75 34.35 55.35 37.35 87.45-2.55 24.9-13.275 52.95-45.375 67.8-22.725 10.5-49.425 11.4-77.1 11.4-13.125 0-23.7-10.575-23.7-23.7v-163.275c.075-13.05 10.725-23.7 23.775-23.7z" fill="#05bbff" fill-rule="nonzero"/><path d="m173.475 249.6c27.675 0 54.375-.9 77.1-11.4 28.125-12.975 39.825-36.225 44.025-58.5.525 3.45 1.05 6.9 1.35 10.425-2.55 24.9-13.275 52.95-45.375 67.8-22.725 10.5-49.425 11.4-77.1 11.4-13.125 0-23.7-10.575-23.7-23.7v-19.65c0 12.975 10.65 23.625 23.7 23.625z" fill="#5ba1e1" fill-rule="nonzero"/><g fill="none"><path d="m173.475 30.675c30 0 60.975 16.05 85.05 44.025 24.525 28.5 38.025 64.65 38.025 101.85 0 27.375-7.95 63.675-46.05 81.3-22.725 10.5-49.425 11.4-77.1 11.4-13.125 0-23.7-10.575-23.7-23.7v-191.175c.075-13.125 10.725-23.7 23.775-23.7z" stroke="#2481d7" stroke-linecap="round" stroke-linejoin="round" stroke-width="6"/><path d="m262.05 81.525v48.6c0 5.625-4.575 10.2-10.275 10.2h-18.9c-5.625 0-10.275-4.575-10.275-10.2" stroke="#2481d7" stroke-linecap="round" stroke-linejoin="round" stroke-width="4.5"/><path d="m149.775 79.05v2.25" stroke="#2481d7" stroke-linecap="round" stroke-linejoin="round" stroke-width="4.5"/><path d="m149.775 91.575v95.175c0 12.6 10.2 22.725 22.725 22.725h41.925c9.975 0 18.525-6.45 21.525-15.45" stroke="#2481d7" stroke-dasharray="4.42 10.31" stroke-linecap="round" stroke-linejoin="round" stroke-width="4.5"/><path d="m237.075 189c.075-.75.075-1.5.075-2.25" stroke="#2481d7" stroke-linecap="round" stroke-linejoin="round" stroke-width="4.5"/><path d="m295.5 185.475c0-8.4-6.825-15.15-15.15-15.15h-27.975c-8.4 0-15.15 6.825-15.15 15.15" stroke="#2481d7" stroke-linecap="round" stroke-linejoin="round" stroke-width="4.5"/><path d="m183.15 177.375v-2.25" stroke="#2481d7" stroke-linecap="round" stroke-linejoin="round" stroke-width="4.5"/><path d="m183.15 165.15v-36.375c0-5.625 4.575-10.275 10.275-10.275h18.9c3.15 0 5.925 1.425 7.8 3.6" stroke="#2481d7" stroke-dasharray="4.26 9.94" stroke-linecap="round" stroke-linejoin="round" stroke-width="4.5"/><path d="m222.3 126.6c.15.75.225 1.5.225 2.25" stroke="#2481d7" stroke-linecap="round" stroke-linejoin="round" stroke-width="4.5"/></g></svg>