<svg clip-rule="evenodd" fill-rule="evenodd" stroke-linejoin="round" stroke-miterlimit="1.41421" viewBox="0 0 130 130" width="130" height="130" xmlns="http://www.w3.org/2000/svg"><g fill-rule="nonzero"><path d="m52.041 59.411v2.773l-25.697 14.934c-.572-.654-1.324-1.271-2.268-1.814-.676-.39-1.424-.711-2.203-.99l21.168-12.303h4.869v-2.83l.072-.042c-.023-.004-.049-.006-.072-.01v-5.392l-12.346 1.126v4.345c-10.59 1.39-22.705 5.313-28.062 8.428-1.799 1.044-3.207 2.225-4.258 3.48h-2.234v5.655h.008c.006 2.574 1.311 5.152 3.947 7.366 1.307 1.258 2.934 2.12 4.703 2.672l-.037.021c8.734 3.461 20.746 2.962 28.471-1.527 6.605-3.837 15.281-13.618 15.307-20.345h.016v-.448-.036-5.062h-1.384z" fill="#0762ca"/><path d="m47.982 53.737c-10.984-2.174-32.76 4.008-40.48 8.497-7.729 4.49-8.559 11.443-2.537 16.501z" fill="#a3cdfb"/><path d="m47.982 53.737c-10.984-2.174-30.455 6.012-38.178 10.501-7.729 4.491-10.861 9.439-4.84 14.497z" fill="#61b8f9"/><path d="m52.648 56.431-43.017 24.998c8.734 3.461 20.746 2.962 28.471-1.527 7.724-4.489 18.326-17.121 14.546-23.471" fill="#61b8f9"/><path d="m49.627 59.411-39.996 22.018c8.734 3.461 20.746 2.962 28.471-1.527 7.724-4.489 15.306-14.14 11.525-20.491z" fill="#5295f7"/><g transform="matrix(.363137 0 0 .363137 73.061 10.4307)"><path d="m52.041 59.411v2.773l-25.697 14.934c-.572-.654-1.324-1.271-2.268-1.814-.676-.39-1.424-.711-2.203-.99l21.168-12.303h4.869v-2.83l.072-.042c-.023-.004-.049-.006-.072-.01v-5.392l-12.346 1.126v4.345c-10.59 1.39-22.705 5.313-28.062 8.428-1.799 1.044-3.207 2.225-4.258 3.48h-2.234v5.655h.008c.006 2.574 1.311 5.152 3.947 7.366 1.307 1.258 2.934 2.12 4.703 2.672l-.037.021c8.734 3.461 20.746 2.962 28.471-1.527 6.605-3.837 15.281-13.618 15.307-20.345h.016v-.448-.036-5.062h-1.384z" fill="#0762ca"/><path d="m47.982 53.737c-10.984-2.174-32.76 4.008-40.48 8.497-7.729 4.49-8.559 11.443-2.537 16.501z" fill="#a3cdfb"/><path d="m47.982 53.737c-10.984-2.174-30.455 6.012-38.178 10.501-7.729 4.491-10.861 9.439-4.84 14.497z" fill="#61b8f9"/><path d="m52.648 56.431-43.017 24.998c8.734 3.461 20.746 2.962 28.471-1.527 7.724-4.489 18.326-17.121 14.546-23.471" fill="#61b8f9"/><path d="m49.627 59.411-39.996 22.018c8.734 3.461 20.746 2.962 28.471-1.527 7.724-4.489 15.306-14.14 11.525-20.491z" fill="#5295f7"/></g><g transform="matrix(.192264 0 0 .192264 24.7648 14.5811)"><path d="m52.041 59.411v2.773l-25.697 14.934c-.572-.654-1.324-1.271-2.268-1.814-.676-.39-1.424-.711-2.203-.99l21.168-12.303h4.869v-2.83l.072-.042c-.023-.004-.049-.006-.072-.01v-5.392l-12.346 1.126v4.345c-10.59 1.39-22.705 5.313-28.062 8.428-1.799 1.044-3.207 2.225-4.258 3.48h-2.234v5.655h.008c.006 2.574 1.311 5.152 3.947 7.366 1.307 1.258 2.934 2.12 4.703 2.672l-.037.021c8.734 3.461 20.746 2.962 28.471-1.527 6.605-3.837 15.281-13.618 15.307-20.345h.016v-.448-.036-5.062h-1.384z" fill="#0762ca"/><path d="m47.982 53.737c-10.984-2.174-32.76 4.008-40.48 8.497-7.729 4.49-8.559 11.443-2.537 16.501z" fill="#a3cdfb"/><path d="m47.982 53.737c-10.984-2.174-30.455 6.012-38.178 10.501-7.729 4.491-10.861 9.439-4.84 14.497z" fill="#61b8f9"/><path d="m52.648 56.431-43.017 24.998c8.734 3.461 20.746 2.962 28.471-1.527 7.724-4.489 18.326-17.121 14.546-23.471" fill="#61b8f9"/><path d="m49.627 59.411-39.996 22.018c8.734 3.461 20.746 2.962 28.471-1.527 7.724-4.489 15.306-14.14 11.525-20.491z" fill="#5295f7"/></g><g transform="matrix(.407279 0 0 .407279 9.37189 14.1661)"><path d="m52.041 59.411v2.773l-25.697 14.934c-.572-.654-1.324-1.271-2.268-1.814-.676-.39-1.424-.711-2.203-.99l21.168-12.303h4.869v-2.83l.072-.042c-.023-.004-.049-.006-.072-.01v-5.392l-12.346 1.126v4.345c-10.59 1.39-22.705 5.313-28.062 8.428-1.799 1.044-3.207 2.225-4.258 3.48h-2.234v5.655h.008c.006 2.574 1.311 5.152 3.947 7.366 1.307 1.258 2.934 2.12 4.703 2.672l-.037.021c8.734 3.461 20.746 2.962 28.471-1.527 6.605-3.837 15.281-13.618 15.307-20.345h.016v-.448-.036-5.062h-1.384z" fill="#0762ca"/><path d="m47.982 53.737c-10.984-2.174-32.76 4.008-40.48 8.497-7.729 4.49-8.559 11.443-2.537 16.501z" fill="#a3cdfb"/><path d="m47.982 53.737c-10.984-2.174-30.455 6.012-38.178 10.501-7.729 4.491-10.861 9.439-4.84 14.497z" fill="#61b8f9"/><path d="m52.648 56.431-43.017 24.998c8.734 3.461 20.746 2.962 28.471-1.527 7.724-4.489 18.326-17.121 14.546-23.471" fill="#61b8f9"/><path d="m49.627 59.411-39.996 22.018c8.734 3.461 20.746 2.962 28.471-1.527 7.724-4.489 15.306-14.14 11.525-20.491z" fill="#5295f7"/></g><g transform="matrix(-1 0 0 1 130 25.0917)"><path d="m52.041 59.411v2.773l-25.697 14.934c-.572-.654-1.324-1.271-2.268-1.814-.676-.39-1.424-.711-2.203-.99l21.168-12.303h4.869v-2.83l.072-.042c-.023-.004-.049-.006-.072-.01v-5.392l-12.346 1.126v4.345c-10.59 1.39-22.705 5.313-28.062 8.428-1.799 1.044-3.207 2.225-4.258 3.48h-2.234v5.655h.008c.006 2.574 1.311 5.152 3.947 7.366 1.307 1.258 2.934 2.12 4.703 2.672l-.037.021c8.734 3.461 20.746 2.962 28.471-1.527 6.605-3.837 15.281-13.618 15.307-20.345h.016v-.448-.036-5.062h-1.384z" fill="#0762ca"/><path d="m47.982 53.737c-10.984-2.174-32.76 4.008-40.48 8.497-7.729 4.49-8.559 11.443-2.537 16.501z" fill="#a3cdfb"/><path d="m47.982 53.737c-10.984-2.174-30.455 6.012-38.178 10.501-7.729 4.491-10.861 9.439-4.84 14.497z" fill="#61b8f9"/><path d="m52.648 56.431-43.017 24.998c8.734 3.461 20.746 2.962 28.471-1.527 7.724-4.489 18.326-17.121 14.546-23.471" fill="#61b8f9"/><path d="m49.627 59.411-39.996 22.018c8.734 3.461 20.746 2.962 28.471-1.527 7.724-4.489 15.306-14.14 11.525-20.491z" fill="#5295f7"/></g><g transform="matrix(-.457804 0 0 .457804 91.8318 27.4527)"><path d="m52.041 59.411v2.773l-25.697 14.934c-.572-.654-1.324-1.271-2.268-1.814-.676-.39-1.424-.711-2.203-.99l21.168-12.303h4.869v-2.83l.072-.042c-.023-.004-.049-.006-.072-.01v-5.392l-12.346 1.126v4.345c-10.59 1.39-22.705 5.313-28.062 8.428-1.799 1.044-3.207 2.225-4.258 3.48h-2.234v5.655h.008c.006 2.574 1.311 5.152 3.947 7.366 1.307 1.258 2.934 2.12 4.703 2.672l-.037.021c8.734 3.461 20.746 2.962 28.471-1.527 6.605-3.837 15.281-13.618 15.307-20.345h.016v-.448-.036-5.062h-1.384z" fill="#0762ca"/><path d="m47.982 53.737c-10.984-2.174-32.76 4.008-40.48 8.497-7.729 4.49-8.559 11.443-2.537 16.501z" fill="#a3cdfb"/><path d="m47.982 53.737c-10.984-2.174-30.455 6.012-38.178 10.501-7.729 4.491-10.861 9.439-4.84 14.497z" fill="#61b8f9"/><path d="m52.648 56.431-43.017 24.998c8.734 3.461 20.746 2.962 28.471-1.527 7.724-4.489 18.326-17.121 14.546-23.471" fill="#61b8f9"/><path d="m49.627 59.411-39.996 22.018c8.734 3.461 20.746 2.962 28.471-1.527 7.724-4.489 15.306-14.14 11.525-20.491z" fill="#5295f7"/></g><g transform="matrix(-.409057 0 0 .409057 62.0054 3.65267)"><path d="m52.041 59.411v2.773l-25.697 14.934c-.572-.654-1.324-1.271-2.268-1.814-.676-.39-1.424-.711-2.203-.99l21.168-12.303h4.869v-2.83l.072-.042c-.023-.004-.049-.006-.072-.01v-5.392l-12.346 1.126v4.345c-10.59 1.39-22.705 5.313-28.062 8.428-1.799 1.044-3.207 2.225-4.258 3.48h-2.234v5.655h.008c.006 2.574 1.311 5.152 3.947 7.366 1.307 1.258 2.934 2.12 4.703 2.672l-.037.021c8.734 3.461 20.746 2.962 28.471-1.527 6.605-3.837 15.281-13.618 15.307-20.345h.016v-.448-.036-5.062h-1.384z" fill="#0762ca"/><path d="m47.982 53.737c-10.984-2.174-32.76 4.008-40.48 8.497-7.729 4.49-8.559 11.443-2.537 16.501z" fill="#a3cdfb"/><path d="m47.982 53.737c-10.984-2.174-30.455 6.012-38.178 10.501-7.729 4.491-10.861 9.439-4.84 14.497z" fill="#61b8f9"/><path d="m52.648 56.431-43.017 24.998c8.734 3.461 20.746 2.962 28.471-1.527 7.724-4.489 18.326-17.121 14.546-23.471" fill="#61b8f9"/><path d="m49.627 59.411-39.996 22.018c8.734 3.461 20.746 2.962 28.471-1.527 7.724-4.489 15.306-14.14 11.525-20.491z" fill="#5295f7"/></g><g transform="matrix(-.151375 0 0 .151375 32.6443 7.8483)"><path d="m52.041 59.411v2.773l-25.697 14.934c-.572-.654-1.324-1.271-2.268-1.814-.676-.39-1.424-.711-2.203-.99l21.168-12.303h4.869v-2.83l.072-.042c-.023-.004-.049-.006-.072-.01v-5.392l-12.346 1.126v4.345c-10.59 1.39-22.705 5.313-28.062 8.428-1.799 1.044-3.207 2.225-4.258 3.48h-2.234v5.655h.008c.006 2.574 1.311 5.152 3.947 7.366 1.307 1.258 2.934 2.12 4.703 2.672l-.037.021c8.734 3.461 20.746 2.962 28.471-1.527 6.605-3.837 15.281-13.618 15.307-20.345h.016v-.448-.036-5.062h-1.384z" fill="#0762ca"/><path d="m47.982 53.737c-10.984-2.174-32.76 4.008-40.48 8.497-7.729 4.49-8.559 11.443-2.537 16.501z" fill="#a3cdfb"/><path d="m47.982 53.737c-10.984-2.174-30.455 6.012-38.178 10.501-7.729 4.491-10.861 9.439-4.84 14.497z" fill="#61b8f9"/><path d="m52.648 56.431-43.017 24.998c8.734 3.461 20.746 2.962 28.471-1.527 7.724-4.489 18.326-17.121 14.546-23.471" fill="#61b8f9"/><path d="m49.627 59.411-39.996 22.018c8.734 3.461 20.746 2.962 28.471-1.527 7.724-4.489 15.306-14.14 11.525-20.491z" fill="#5295f7"/></g></g></svg>