<svg clip-rule="evenodd" fill-rule="evenodd" height="32" stroke-linejoin="round" stroke-miterlimit="1.41421" viewBox="0 0 128 128" width="32" xmlns="http://www.w3.org/2000/svg"><g fill="#a3cdfb" fill-rule="nonzero"><path d="m18.3 40.4 4.7 78.7c.3 4.9 4.6 8.9 9.5 8.9h63.5c4.9 0 9.2-4 9.5-8.9l6-101.1h3c1.7 0 2.6-1.3 2.6-3v-1c0-1.3-1-2.4-2-2.8v-.2c0-6.1-4.5-11-10.6-11h-79.9c-6.1 0-11.6 4.9-11.6 11v.2c-1 .4-2 1.5-2 2.8v1c0 1.7 1.9 3 3.6 3h2.4l1.3 21.7c0 .1-.1.2-.1.3s0 .3.1.4zm85.7.6-3.6 60h-73.1l-3.6-60z"/><path d="m74 92.1c6.3-4.1 10.6-12.1 10.6-21.3 0-13.2-8.9-23.9-19.8-24.1-.1.2-.2.3-.3.5-.1.1-6.4 10.6 3 21 6.9 7.7 9.1 15.8 6.5 23.9z"/><path d="m64.5 95c.5 0 1.1 0 1.6-.1 4.7-7.7 3.8-15.1-3-22.6-8-8.7-7.4-18.2-5.5-24-7.6 3.4-13.1 12.2-13.1 22.6 0 13.3 9 24.1 20 24.1z"/></g></svg>