<svg clip-rule="evenodd" fill-rule="evenodd" stroke-linejoin="round" stroke-miterlimit="1.41421" viewBox="0 0 128 128" xmlns="http://www.w3.org/2000/svg" xmlns:xlink="http://www.w3.org/1999/xlink"><linearGradient id="a" gradientTransform="matrix(120.22 0 0 103.012 6.51248 61.7869)" gradientUnits="userSpaceOnUse" x1="0" x2="1" y1="0" y2="0"><stop offset="0" stop-color="#6dd6f3"/><stop offset="1" stop-color="#6b3afd"/></linearGradient><g fill-rule="nonzero"><g fill="#9ae3f7"><path d="m116.119 60.905c-1.007.31-2.186.061-2.944-.808-.973-1.17-.897-2.908.239-3.993l9.515-8.078c1.17-.973 2.908-.896 4.027.351.974 1.17.897 2.909-.238 3.994l-9.515 8.077c-.413.25-.749.354-1.084.457z"/><path d="m105.909 52.613c-.693.112-1.309-.025-1.846-.412-1.306-.736-1.837-2.547-.985-3.872l10.211-17.433c.852-1.325 2.548-1.838 3.872-.986 1.306.737 1.838 2.548.986 3.873l-10.212 17.433c-.446.903-1.217 1.265-2.026 1.397z"/><path d="m94.147 47.345c-.348.048-.712-.019-1.076-.086-1.472-.386-2.394-1.912-2.024-3.5l8.999-32.931c.386-1.472 1.912-2.394 3.5-2.024 1.472.385 2.394 1.911 2.025 3.499l-9.116 32.947c-.318 1.108-1.265 1.949-2.308 2.095z"/><path d="m11.248 61.621c-.329-.121-.619-.352-1.018-.623l-9.074-8.57c-1.117-1.033-1.211-2.814-.027-4 1.033-1.117 2.814-1.211 4.041-.138l9.074 8.57c1.117 1.034 1.211 2.814.137 4.041-.953.897-2.034 1.124-3.133.72z"/><path d="m22.595 54.117c-.801-.173-1.527-.69-1.95-1.501l-9.283-17.945c-.781-1.368-.18-3.034 1.187-3.815 1.343-.667 3.034-.18 3.815 1.187l9.283 17.945c.667 1.343.18 3.034-1.187 3.815-.582.473-1.293.438-1.865.314z"/><path d="m34.267 45.367c.293 1.114 1.22 1.977 2.26 2.146.347.056.712-.003 1.078-.063 1.48-.352 2.436-1.857 2.102-3.453l-8.141-33.106c-.353-1.48-1.858-2.436-3.454-2.102-1.48.352-2.436 1.857-2.103 3.453z"/></g><path d="m126.733 74.078c0-.702-.235-1.522-.82-1.99-.819-.819-15.218-15.452-35.82-22.944 0-.351-.117-.702-.351-.936l-20.72-36.523c-.468-.819-1.404-1.404-2.458-1.404s-1.99.585-2.458 1.404l-20.72 36.406c-.234.351-.351.702-.351 1.053-20.602 7.492-34.884 22.008-35.703 22.944-.468.585-.82 1.288-.82 1.99 0 .703.352 1.405.82 1.99.468.468 5.619 5.385 13.93 10.653l-12.642 22.358c-.469.936-.469 1.99 0 2.809.468.82 1.404 1.405 2.458 1.405h110.972c1.054 0 1.873-.585 2.458-1.405.469-.819.469-1.99 0-2.809l-12.642-22.241c8.428-5.385 13.579-10.302 14.047-10.77.468-.585.82-1.287.82-1.99zm-60.169 18.144c-10.652 0-19.198-8.662-19.198-19.197 0-10.653 8.663-19.198 19.198-19.198 10.652 0 19.198 8.662 19.198 19.198 0 10.535-8.546 19.197-19.198 19.197zm-12.994-40.385c-7.023 4.448-11.823 12.174-11.823 21.071 0 9.364 5.268 17.324 12.877 21.656-19.549-3.863-35.352-15.921-40.971-20.72 5.385-4.916 20.72-17.559 39.917-22.007zm24.934 42.844c7.726-4.215 12.994-12.292 12.994-21.656 0-9.014-4.8-16.74-11.94-21.188 19.197 4.331 34.766 17.091 40.268 22.124-5.736 4.682-21.656 16.857-41.322 20.72z" fill="url(#a)"/><path d="m76.046 68.928s-.937.234-1.99.234c-1.171 0-2.224-.234-2.575-.703-.586-.585-.586-2.809-.235-4.448.117-.585.117-1.054-.117-1.639-.468-1.405-1.99-2.809-4.097-2.809-7.14 0-12.876 5.853-12.876 12.876 0 7.141 5.736 12.877 12.876 12.877 7.141 0 12.877-5.736 12.877-12.877 0-1.521-.937-2.575-1.405-2.926-.585-.468-1.639-.82-2.458-.585z" fill="#8a39f9"/></g></svg>