<svg clip-rule="evenodd" fill-rule="evenodd" stroke-linejoin="round" stroke-miterlimit="1.41421" width="32" height="32" viewBox="0 0 30 30" xmlns="http://www.w3.org/2000/svg"><path d="m26.9 14.6-3.2-3.2v-4.6c0-.3-.2-.5-.5-.5h-4.6l-3.2-3.2c-.2-.2-.5-.2-.7 0l-3.2 3.2h-4.7c-.3 0-.5.2-.5.5v4.6l-3.2 3.2c-.2.2-.2.5 0 .7l3.2 3.2v4.6c0 .3.2.5.5.5h4.6l3.2 3.2c.1.2.3.2.4.2s.3 0 .4-.1l3.2-3.2h4.6c.3 0 .5-.2.5-.5v-4.6l3.2-3.2c.2-.2.2-.6 0-.8zm-9.6 6.2h-4.6v-1h4.6zm2.2-1.8h-9.1v-1h9.1zm1-1.8h-11v-1h11zm.7-1.7h-1v-.5c0-2.9-2.4-5.2-5.2-5.2s-5.2 2.3-5.2 5.2v.5h-1v-.5c0-3.4 2.8-6.2 6.2-6.2s6.2 2.8 6.2 6.2z" fill="#a3cdfb" fill-rule="nonzero" transform="matrix(1.24481 0 0 1.24481 -3.6722 -3.64108)"/></svg>