<svg clip-rule="evenodd" fill-rule="evenodd" stroke-linejoin="round" stroke-miterlimit="1.41421" viewBox="0 0 340 370" xmlns="http://www.w3.org/2000/svg" xmlns:xlink="http://www.w3.org/1999/xlink"><linearGradient id="a" gradientTransform="matrix(288.326 0 0 367.635 -132.11 147.73)" gradientUnits="userSpaceOnUse" x1="0" x2="1" y1="0" y2="0"><stop offset="0" stop-color="#1c67fd"/><stop offset=".55" stop-color="#1679fd"/><stop offset="1" stop-color="#0bf"/></linearGradient><g fill-rule="nonzero"><g fill="url(#a)"><path d="m132.945 5.979c4.035-2.175 8.55-3.225 13.087-3.623l.045.923c-11.497 2.61-21.3 9.772-30.09 17.325-8.422 7.297-16.027 15.465-23.475 23.745-17.752 20.272-33.57 42.307-46.492 65.97-13.853 25.17-24.218 52.695-27.03 81.435-.765 9.787-.615 19.627.097 29.415 1.17-5.993.885-12.128 1.575-18.165 1.328-15.383 4.845-30.533 10.058-45.053.288-.802.615-1.747.615-1.747 8.182-21.795 22.354-48.063 37.535-66.776.083.337-3.823 6.893-3.998 7.204-12.866 22.822-23.735 46.732-31.137 71.894-4.268 13.793-6.863 28.178-6.923 42.645-.322 16.523 2.093 33.338 8.865 48.518 2.573 5.722 5.37 11.445 9.353 16.342-1.298-3.727-3.045-7.282-4.335-11.017-5.018-14.085-7.89-29.003-7.875-43.98-.398-18.45 3.33-36.758 8.865-54.285 9.352-29.078 24.577-55.793 40.785-81.518 13.687-21.922 27.765-44.13 47.122-61.56 6.87-6.255 15.12-11.677 24.608-12.495-6.36 8.595-7.95 19.808-6.66 30.21.33 4.913 1.56 9.705 1.882 14.618-2.542.082-5.107.337-7.627-.053-2.265-.42-4.23-1.672-6.225-2.745 2.197 5.55 7.965 7.898 13.155 9.803-3.383 6.645-10.838 9.172-15.99 14.055-1.275 1.042-2.025 2.76-1.395 4.372 1.755 4.29 7.62 5.325 8.887 9.878-.795 2.415-3.892 3.532-4.522 5.955.78 3.712 4.627 5.497 7.68 7.102-2.16 1.538-5.625 3.158-4.68 6.42.787 3.833 5.422 3.728 8.407 4.658-.21 3.495-1.507 6.84-1.56 10.35.225 3.9 3.743 6.772 7.425 7.342 6.54.848 13.103-.465 19.328-2.4 3.832-1.147 8.13-1.92 11.917-.195 9.06 3.765 14.82 12.938 16.688 22.29 2.775 15.293 5.077 30.945 3.15 46.485-.51 3.45-.683 7.088-2.115 10.283-.623-3.03.06-6.188-.72-9.21-1.118-6.383-5.753-12.203-12.09-13.995-5.198-1.785-11.003.51-14.528 4.485-3.952 4.477-5.91 10.312-7.057 16.087-1.673 8.595-2.13 17.475-.728 26.153 1.35-8.805 3.3-17.535 6.615-25.83 1.133 1.41.3 3.225.12 4.822-2.542 13.515-2.272 28.148 3.96 40.673 4.208 9.097 11.573 16.327 19.695 22.005.053.322.165.967.225 1.29-.277-.083-.832-.263-1.11-.345-10.582-5.213-19.897-12.743-28.14-21.12-13.035-13.74-21.427-31.92-22.987-50.828-.653-5.505-.045-11.047-.18-16.567-1.875 6.375-2.295 13.05-3.045 19.627-.825 13.793-.405 27.855 3.555 41.198 3.337 11.445 8.805 22.32 16.507 31.455 9.885 11.97 22.815 21.277 36.975 27.547 6.06 2.955 12.623 4.575 18.9 6.975-4.207.128-8.325-.84-12.435-1.567-22.365-4.17-44.22-13.32-61.245-28.665-11.505-10.5-20.527-23.603-26.745-37.86-7.035-16.14-10.605-33.615-12.03-51.113-.787-7.222-.412-14.497-.487-21.742.082-9.21 1.425-18.338 2.31-27.488-8.61 14.985-15.75 30.818-21.578 47.085-5.632 16.403-9.637 33.48-10.342 50.858-.75 16.162 1.965 32.595 8.4 47.482 5.287 11.67 12.75 22.71 22.942 30.615-.345.315-.69.63-1.027.953-7.545-5.963-14.925-12.255-20.948-19.808-12.292-14.707-20.032-32.895-23.16-51.75-4.395-25.417-1.425-51.51 4.538-76.417 5.685-23.97 14.902-46.92 25.305-69.188l.3-.57c2.19-4.162 4.312-8.362 6.247-12.652-9.292 12.195-17.325 25.335-24.547 38.857-13.23 25.14-22.628 52.583-25.208 80.978-.997 13.785-.712 27.727 1.845 41.34 3.788 20.872 12.293 41.182 26.325 57.262l.323.81c-.225-.112-.675-.345-.893-.465-16.95-12.27-33.262-26.227-44.227-44.302-15.075-23.063-21.533-51.3-19.185-78.653 1.65-20.265 7.687-39.952 16.012-58.425 10.733-23.55 25.268-45.187 41.4-65.355 9.248-11.4 18.938-22.447 29.198-32.947 10.057-9.945 21.075-19.245 33.945-25.32z"/><path d="m161.64 9.016c1.387 18.563 10.357 36.968 25.89 47.67l.532.33c10.928 8.67 24.78 12.518 38.22 15.323-4.11.795-8.25-.128-12.3-.788-11.092-1.965-22.005-5.782-31.23-12.352-2.625-1.86-4.905-4.148-7.462-6.09 2.16 3.952 5.347 7.177 8.325 10.507 8.407 8.67 18.45 15.623 29.152 21.15 8.325 4.455 17.303 7.463 25.748 11.663 11.242 5.415 22.23 11.88 30.952 20.94 7.838 7.867 13.47 18.082 15.383 29.047.382-.007.765-.015 1.155-.022-1.215-10.058-2.753-20.153-6.173-29.738-4.92-14.362-12.727-27.832-23.317-38.76-4.013-4.2-8.153-8.392-13.155-11.407.412-.323.832-.638 1.252-.953 9.308 5.64 18.21 12.203 25.268 20.565 10.417 11.843 17.707 26.565 20.085 42.21 2.64 16.733.24 33.893-4.613 50.01l-.15.465c-.405-8.392-.63-16.89-2.827-25.05-3.353-12.45-10.245-23.835-19.365-32.917-10.073-9.855-22.193-17.625-35.28-22.793 6.24 4.613 12.997 8.535 18.907 13.605 10.545 8.633 19.455 19.433 25.215 31.83 5.595 11.79 8.355 24.818 8.618 37.838-.233 16.852-4.043 33.562-10.628 49.057-1.297-1.425-.487-3.397-.397-5.085 1.597-11.73 1.672-23.73-.698-35.355-2.167-10.402-5.542-20.632-10.642-29.977l-.053-.105c-9.652-19.32-24.472-35.678-41.025-49.358-13.32-10.245-26.505-20.97-37.012-34.192-9.998-12.338-18.24-26.73-20.43-42.675-1.41-8.22-.323-16.658 2.055-24.593z"/><path d="m240.735 152.221c.045-.345.135-1.027.18-1.372 9.6 10.672 16.845 23.437 20.895 37.215 7.335 24.202 4.095 50.52-5.025 73.777-1.02 2.205-1.553 4.965-3.593 6.48.87-4.8 2.453-9.435 3.39-14.22 2.265-10.86 3.908-21.937 3.675-33.06.593-24.172-5.715-48.802-19.522-68.82z"/><path d="m93.39 196.201.06-.3c.255 2.468.292 4.958.187 7.433l-.015.165c-.75 5.535-.48 11.152-.135 16.71.66 18.255 4.298 36.502 11.535 53.31 5.61 12.705 13.545 24.465 23.715 33.975 20.078 18.795 47.708 27.675 74.768 29.122v.773c-17.925.037-36.038-1.238-53.318-6.33-13.252-3.848-26.115-9.72-36.772-18.608-12.435-9.997-21.608-23.79-26.595-38.902-3.39-10.088-5.528-20.708-5.415-31.388.232.503.682 1.515.915 2.018 1.875 15.442 6.075 31.14 15.247 43.935-1.11-4.313-3.082-8.325-4.41-12.563-3.517-10.777-4.125-22.2-4.522-33.442.157-15.405 1.852-30.78 4.755-45.908z"/><path d="m102.045 227.071c-.18-2.16-.09-4.327.172-6.465 4.028 19.283 11.58 38.055 23.73 53.693 9.203 12.277 21.09 22.41 34.298 30.165 25.327 14.872 55.2 19.777 84.217 19.83 10.905-.188 21.99 1.275 32.07 5.617 3.563 1.418 6.608 3.84 10.013 5.573.36.352 1.087 1.042 1.455 1.395 1.575 1.86 3.315 3.592 5.28 5.055-3.96-8.228-11.288-14.348-19.313-18.42-12.667-6.375-27.022-7.523-40.77-10.02-22.657-4.545-44.767-14.663-60.87-31.568-9.705-10.162-16.777-22.635-21.15-35.947.323-.435.645-.863.975-1.29 1.508 4.702 4.395 8.782 7.433 12.607 7.717 9.878 18.03 17.34 28.672 23.775 12.63 7.208 26.123 13.185 40.418 16.148 6.217 1.432 12.622 1.845 18.847 3.255 8.13 1.717 16.118 4.305 23.513 8.122 10.462 5.52 19.657 14.063 24.457 25.013 5.13 11.325 5.895 24.307 3.315 36.382-.652-2.092-.997-4.267-1.222-6.442-.9-7.283-4.44-14.25-10.125-18.96-10.718-9.48-25.493-11.925-39.27-13.133-10.238-.442-20.483-.015-30.72.255-25.223.098-50.895-6.442-71.843-20.79-12.742-8.677-23.197-20.61-30.27-34.297-8.107-15.255-11.857-32.453-13.312-49.553z"/></g><path d="m53.116 53.342 30.111-10.043-30.111-10.039-10.043-30.114-10.042 30.114-30.11 10.039 30.112 10.043 10.041 30.112z" fill="#527aea"/><path d="m4.223 42.864h77.699l-28.806-9.604-10.043-30.114-10.042 30.114z" fill="#bdbefc"/><path d="m225.273 34.937 22.854-6.99-22.854-6.988-7.622-20.959-7.621 20.959-22.852 6.988 22.854 6.99 7.621 20.958z" fill="#527aea"/><path d="m188.167 27.644h58.969l-21.863-6.685-7.622-20.959-7.621 20.959z" fill="#bdbefc"/><path d="m317.138 238.609 22.853-6.99-22.853-6.988-7.622-20.959-7.621 20.959-22.852 6.988 22.853 6.99 7.621 20.958z" fill="#527aea"/><path d="m280.031 231.316h58.969l-21.862-6.685-7.622-20.959-7.621 20.959z" fill="#bdbefc"/><path d="m305.977 66.031 22.854-6.99-22.854-6.987-7.622-20.96-7.621 20.96-22.852 6.987 22.854 6.99 7.62 20.959z" fill="#527aea"/><path d="m268.871 58.738h58.969l-21.863-6.684-7.622-20.96-7.621 20.96z" fill="#bdbefc"/></g></svg>