<svg clip-rule="evenodd" fill-rule="evenodd" stroke-linejoin="round" stroke-miterlimit="1.41421" viewBox="0 0 24 24" xmlns="http://www.w3.org/2000/svg" xmlns:xlink="http://www.w3.org/1999/xlink"><linearGradient id="a" gradientTransform="matrix(17.9018 0 0 24 3 12)" gradientUnits="userSpaceOnUse" x1="0" x2="1" y1="0" y2="0"><stop offset="0" stop-color="#bf26f7"/><stop offset="1" stop-color="#6049fa"/></linearGradient><g fill="url(#a)"><g fill-rule="nonzero"><path d="m12 24c-4.9 0-9-4-9-9 0-.3.2-.5.5-.5h5c.1 0 .3.1.4.2l3 3.6 3-3.6c.1-.1.2-.2.4-.2h5c.3 0 .5.2.5.5.2 5-3.9 9-8.8 9zm-7.9-8.5c.2 4.2 3.7 7.5 7.9 7.5s7.7-3.3 7.9-7.5h-4.3l-3.3 3.9c-.2.2-.6.2-.8 0l-3.3-3.9z"/><path d="m12 24c-4.9 0-9-4-9-9 0-3.6 2.1-6.8 5.4-8.2v-3.4h-.2c-.9 0-1.7-.8-1.7-1.7s.8-1.7 1.7-1.7h7.5c.9 0 1.7.8 1.7 1.7s-.8 1.7-1.7 1.7h-.2v3.4c3.3 1.4 5.4 4.6 5.4 8.2.1 5-4 9-8.9 9zm-3.7-23c-.4 0-.7.3-.7.7s.3.7.7.7h.7c.3 0 .5.2.5.5v4.2c0 .2-.1.4-.3.5-3.2 1.2-5.2 4.1-5.2 7.4 0 4.4 3.6 8 7.9 8 4.4 0 8-3.6 8-8 0-3.3-2-6.2-5.1-7.4-.2-.1-.3-.3-.3-.5v-4.2c0-.3.2-.5.5-.5h.7c.4 0 .7-.3.7-.7s-.3-.7-.7-.7z"/><path d="m12.4 3.4h-3.4c-.3 0-.5-.2-.5-.5s.2-.5.5-.5h3.4c.3 0 .5.2.5.5s-.2.5-.5.5z"/><path d="m12 19.6c-.1 0-.3-.1-.4-.2l-3.7-4.4c-.3-.4-.5-.9-.5-1.4 0-1.3 1.2-2.3 2.6-2.3.8 0 1.5.3 2 .8.5-.5 1.2-.8 2-.8 1.4 0 2.6 1 2.6 2.3 0 .5-.2.9-.5 1.3l-.1.1-3.6 4.3c-.1.2-.3.3-.4.3zm-3.3-5.3c0 .1 0 .1 0 0l3.3 3.9 3.3-3.9c.2-.2.3-.5.3-.7 0-.7-.7-1.3-1.6-1.3-.7 0-1.3.4-1.5.9 0 0 0 .1-.1.1-.1.1-.2.2-.4.2s-.3-.1-.4-.2c0 0-.1-.1-.1-.2-.2-.6-.8-.9-1.5-.9-.9 0-1.6.6-1.6 1.3 0 .4.1.6.3.8z"/></g><path d="m12 19.6c-.1 0-.3-.1-.4-.2l-3.7-4.4c-.3-.4-.5-.9-.5-1.4 0-1.3 1.2-2.3 2.6-2.3.8 0 1.5.3 2 .8.5-.5 1.2-.8 2-.8 1.4 0 2.6 1 2.6 2.3 0 .5-.2.9-.5 1.3l-.1.1-3.6 4.3z"/></g></svg>