<?xml version="1.0" encoding="UTF-8" standalone="no"?>
<!DOCTYPE svg PUBLIC "-//W3C//DTD SVG 1.1//EN" "http://www.w3.org/Graphics/SVG/1.1/DTD/svg11.dtd">
<svg width="100%" height="100%" viewBox="0 0 232 68" version="1.1" xmlns="http://www.w3.org/2000/svg" xmlns:xlink="http://www.w3.org/1999/xlink" xml:space="preserve" xmlns:serif="http://www.serif.com/" style="fill-rule:evenodd;clip-rule:evenodd;stroke-linejoin:round;stroke-miterlimit:1.41421;">
    <g>
        <g id="ibispay" transform="matrix(0.0568979,0,0,0.0568979,25.8775,16.1323)">
            <g transform="matrix(1.17834,0,0,1.17834,-111.664,-158.275)">
                <path d="M221.843,91.423C257.866,37.689 325.468,0 400,0C474.532,0 542.134,37.689 578.157,91.423C642.703,95.753 709.144,135.454 746.41,200C783.676,264.546 784.837,341.937 756.314,400C784.837,458.063 783.676,535.454 746.41,600C709.144,664.546 642.703,704.247 578.157,708.577C542.134,762.311 474.532,800 400,800C325.468,800 257.866,762.311 221.843,708.577C157.297,704.247 90.856,664.546 53.59,600C16.324,535.454 15.163,458.063 43.686,400C15.163,341.937 16.324,264.546 53.59,200C90.856,135.454 157.297,95.753 221.843,91.423Z" style="fill:rgb(72,72,72);"/>
                <g transform="matrix(0.995106,0.0843259,-0.0843259,0.995106,38.9507,2.7997)">
                    <g>
                        <g>
                            <path d="M632.129,376.465C611.535,375.154 596.843,367.726 581.843,354.031C624.015,353.443 622.696,341.529 622.696,341.529C622.696,341.529 624.152,336.068 612.32,331.74C607.088,329.827 601.853,326.838 597.307,324.44C601.447,324.636 661.167,324.61 666.008,300.871C631.285,299.11 591.998,297.821 562.855,287.68C552.099,283.938 537.891,279.825 529.86,270.601C539.111,270.511 554.818,269.714 568.003,265.189C582.583,260.185 596.615,253.566 603.66,239.794C607.688,231.919 607.106,223.95 607.106,223.95C607.106,223.95 597.654,230.157 587.405,233.682C564.293,241.633 539.325,241.373 529.668,241.165C519.261,240.94 483.865,239.835 484.285,231.755C484.665,224.438 515.563,224.351 521.721,224.386C530.13,224.434 538.54,224.773 546.949,224.621C527.487,214.429 505.083,209.445 483.736,205.455C451.234,199.38 416.91,200.309 385.908,212.155C372.566,217.253 353.766,228.305 345.2,246.447C326.038,287.028 358.621,331.389 388.221,356.717C423.327,386.757 453.336,399.329 481.477,408.509C509.618,417.688 567.307,429.255 607.131,405.978C633.702,390.447 632.129,376.465 632.129,376.465Z" style="fill:white;"/>
                            <path d="M567.142,533.516C564.221,530.334 561.315,533.734 556.552,534.661C555.855,534.796 558.712,531.186 557.787,528.133C556.573,524.127 553.563,523.563 550.047,523.952C543.412,524.685 532.996,531.794 525.844,531.809C516.079,531.829 496.439,525.218 493.035,522.826C489.5,520.342 498.724,522.645 514.673,508.686C519.543,504.424 529.26,494.546 529.26,494.546C529.26,494.546 533.128,506.297 553.05,509.483C572.972,512.669 585.014,484.275 566.556,469.855C558.192,463.32 545.587,464.639 546.658,463.421C549.912,459.722 551.646,442.74 551.119,442.565C549.103,441.895 536.264,443.499 506.14,437.934C466.772,430.662 428.553,413.109 396.394,389.616C368.482,369.225 344.705,336.284 335.23,315.564C331.857,308.189 329.712,295.718 329.042,287.327C327.895,272.968 334.775,247.861 354.162,232.54C356.315,230.839 329.594,225.802 309.945,225.794C268.736,225.777 249.237,239.098 247.634,237.707C220.063,213.775 205.392,168.186 196.932,171.622C187.97,175.261 198.269,276.76 196.881,278.801C195.494,280.842 189.134,288.453 186.06,293.795C178.744,306.513 168.49,324.708 168.33,360.319C168.168,396.409 180.889,469.307 314.79,516.442C367.682,535.061 411.511,536.116 411.511,536.116C411.511,536.116 431.911,542.587 443.281,545.03C455.137,547.577 479.145,556.291 479.145,556.291C479.145,556.291 505.982,570.938 519.354,565.355C524.416,563.242 520.517,558.808 515.474,557.73C513.019,557.205 520.659,555.578 520.553,551.049C520.422,545.447 509.377,550.511 509.377,550.511C509.377,550.511 510.403,542.877 512.82,543.631C529.6,548.864 539.46,555.176 559.51,556.335C562.709,556.52 568.57,555.634 568.739,549.721C568.84,546.186 563.229,544.589 563.229,544.589C563.036,544.913 572.24,539.07 567.142,533.516Z" style="fill:white;"/>
                            <path d="M455.446,533.939C451.974,533.075 460.227,533.01 464.105,532.04C465.759,531.626 478.448,537.189 499.161,540.312C503.054,540.899 487.99,542.668 487.574,542.59C470.031,539.299 462.261,535.633 455.446,533.939Z" style="fill:rgb(37,84,193);"/>
                        </g>
                    </g>
                </g>
            </g>
            <g transform="matrix(39.1048,0,0,39.1048,-3350.6,-1748.44)">
                <g>
                    <text x="117.39px" y="57.339px" style="font-family:'PingFangSC-Semibold', 'PingFang SC', sans-serif;font-weight:600;font-size:13px;fill:rgb(72,72,72);">鸟币支付</text>
                </g>
            </g>
            <g transform="matrix(8.24174,0,0,8.24174,1488.02,340.918)">
                <text x="70.014px" y="53.492px" style="font-family:'HiraMaruPro-W4', 'Hiragino Maru Gothic Pro', sans-serif;font-size:24px;fill:rgb(72,72,72);">NIAOBI.NET</text>
            </g>
        </g>
        <path d="M216.212,0.001L216.418,0.005L216.623,0.012L216.828,0.021L217.032,0.032L217.235,0.047L217.438,0.063L217.639,0.083L217.841,0.104L218.041,0.129L218.241,0.155L218.44,0.184L218.638,0.216L218.835,0.25L219.031,0.286L219.227,0.325L219.422,0.366L219.615,0.41L219.808,0.456L220,0.504L220.192,0.554L220.382,0.607L220.571,0.662L220.759,0.72L220.947,0.779L221.133,0.841L221.318,0.905L221.502,0.971L221.685,1.04L221.868,1.11L222.049,1.183L222.229,1.258L222.407,1.335L222.585,1.414L222.762,1.495L222.937,1.578L223.111,1.664L223.284,1.751L223.456,1.84L223.627,1.932L223.796,2.025L223.964,2.12L224.131,2.218L224.296,2.317L224.461,2.418L224.624,2.521L224.785,2.626L224.945,2.733L225.104,2.842L225.262,2.953L225.418,3.065L225.573,3.179L225.726,3.295L225.878,3.413L226.028,3.533L226.177,3.654L226.324,3.778L226.47,3.902L226.615,4.029L226.757,4.157L226.899,4.287L227.038,4.419L227.176,4.552L227.313,4.687L227.448,4.824L227.581,4.962L227.713,5.101L227.843,5.243L227.971,5.385L228.098,5.53L228.222,5.676L228.346,5.823L228.467,5.972L228.587,6.122L228.705,6.274L228.821,6.427L228.935,6.582L229.047,6.738L229.158,6.896L229.267,7.055L229.374,7.215L229.479,7.376L229.582,7.539L229.683,7.704L229.782,7.869L229.88,8.036L229.975,8.204L230.068,8.373L230.16,8.544L230.249,8.716L230.336,8.889L230.422,9.063L230.505,9.238L230.586,9.415L230.665,9.593L230.742,9.771L230.817,9.951L230.89,10.132L230.96,10.315L231.029,10.498L231.095,10.682L231.159,10.867L231.221,11.053L231.28,11.241L231.338,11.429L231.393,11.618L231.446,11.808L231.496,12L231.544,12.192L231.59,12.385L231.634,12.578L231.675,12.773L231.714,12.969L231.75,13.165L231.784,13.362L231.816,13.56L231.845,13.759L231.871,13.959L231.896,14.159L231.917,14.361L231.937,14.562L231.953,14.765L231.968,14.968L231.979,15.172L231.988,15.377L231.995,15.582L231.999,15.788L232,15.995L232,52.005L231.999,52.212L231.995,52.418L231.988,52.623L231.979,52.828L231.968,53.032L231.953,53.235L231.937,53.438L231.917,53.639L231.896,53.841L231.871,54.041L231.845,54.241L231.816,54.44L231.784,54.638L231.75,54.835L231.714,55.031L231.675,55.227L231.634,55.422L231.59,55.615L231.544,55.808L231.496,56L231.446,56.192L231.393,56.382L231.338,56.571L231.28,56.759L231.221,56.947L231.159,57.133L231.095,57.318L231.029,57.502L230.96,57.685L230.89,57.868L230.817,58.049L230.742,58.229L230.665,58.407L230.586,58.585L230.505,58.762L230.422,58.937L230.336,59.111L230.249,59.284L230.16,59.456L230.068,59.627L229.975,59.796L229.88,59.964L229.782,60.131L229.683,60.296L229.582,60.461L229.479,60.624L229.374,60.785L229.267,60.945L229.158,61.104L229.047,61.262L228.935,61.418L228.821,61.573L228.705,61.726L228.587,61.878L228.467,62.028L228.346,62.177L228.222,62.324L228.098,62.47L227.971,62.615L227.843,62.757L227.713,62.899L227.581,63.038L227.448,63.176L227.313,63.313L227.176,63.448L227.038,63.581L226.899,63.713L226.757,63.843L226.615,63.971L226.47,64.098L226.324,64.222L226.177,64.346L226.028,64.467L225.878,64.587L225.726,64.705L225.573,64.821L225.418,64.935L225.262,65.047L225.104,65.158L224.945,65.267L224.785,65.374L224.624,65.479L224.461,65.582L224.296,65.683L224.131,65.782L223.964,65.88L223.796,65.975L223.627,66.068L223.456,66.16L223.284,66.249L223.111,66.336L222.937,66.422L222.762,66.505L222.585,66.586L222.407,66.665L222.229,66.742L222.049,66.817L221.868,66.89L221.685,66.96L221.502,67.029L221.318,67.095L221.133,67.159L220.947,67.221L220.759,67.28L220.571,67.338L220.382,67.393L220.192,67.446L220,67.496L219.808,67.544L219.615,67.59L219.422,67.634L219.227,67.675L219.031,67.714L218.835,67.75L218.638,67.784L218.44,67.816L218.241,67.845L218.041,67.871L217.841,67.896L217.639,67.917L217.438,67.937L217.235,67.953L217.032,67.968L216.828,67.979L216.623,67.988L216.418,67.995L216.212,67.999L216.005,68L15.995,68L15.788,67.999L15.582,67.995L15.377,67.988L15.172,67.979L14.968,67.968L14.765,67.953L14.562,67.937L14.361,67.917L14.159,67.896L13.959,67.871L13.759,67.845L13.56,67.816L13.362,67.784L13.165,67.75L12.969,67.714L12.773,67.675L12.578,67.634L12.385,67.59L12.192,67.544L12,67.496L11.808,67.446L11.618,67.393L11.429,67.338L11.241,67.28L11.053,67.221L10.867,67.159L10.682,67.095L10.498,67.029L10.315,66.96L10.132,66.89L9.951,66.817L9.771,66.742L9.593,66.665L9.415,66.586L9.238,66.505L9.063,66.422L8.889,66.336L8.716,66.249L8.544,66.16L8.373,66.068L8.204,65.975L8.036,65.88L7.869,65.782L7.704,65.683L7.539,65.582L7.376,65.479L7.215,65.374L7.055,65.267L6.896,65.158L6.738,65.047L6.582,64.935L6.427,64.821L6.274,64.705L6.122,64.587L5.972,64.467L5.823,64.346L5.676,64.222L5.53,64.098L5.385,63.971L5.243,63.843L5.101,63.713L4.962,63.581L4.824,63.448L4.687,63.313L4.552,63.176L4.419,63.038L4.287,62.899L4.157,62.757L4.029,62.615L3.902,62.47L3.778,62.324L3.654,62.177L3.533,62.028L3.413,61.878L3.295,61.726L3.179,61.573L3.065,61.418L2.953,61.262L2.842,61.104L2.733,60.945L2.626,60.785L2.521,60.624L2.418,60.461L2.317,60.296L2.218,60.131L2.12,59.964L2.025,59.796L1.932,59.627L1.84,59.456L1.751,59.284L1.664,59.111L1.578,58.937L1.495,58.762L1.414,58.585L1.335,58.407L1.258,58.229L1.183,58.049L1.11,57.868L1.04,57.685L0.971,57.502L0.905,57.318L0.841,57.133L0.779,56.947L0.72,56.759L0.662,56.571L0.607,56.382L0.554,56.192L0.504,56L0.456,55.808L0.41,55.615L0.366,55.422L0.325,55.227L0.286,55.031L0.25,54.835L0.216,54.638L0.184,54.44L0.155,54.241L0.129,54.041L0.104,53.841L0.083,53.639L0.063,53.438L0.047,53.235L0.032,53.032L0.021,52.828L0.012,52.623L0.005,52.418L0.001,52.212L0,52.005L0,15.995L0.001,15.788L0.005,15.582L0.012,15.377L0.021,15.172L0.032,14.968L0.047,14.765L0.063,14.562L0.083,14.361L0.104,14.159L0.129,13.959L0.155,13.759L0.184,13.56L0.216,13.362L0.25,13.165L0.286,12.969L0.325,12.773L0.366,12.578L0.41,12.385L0.456,12.192L0.504,12L0.554,11.808L0.607,11.618L0.662,11.429L0.72,11.241L0.779,11.053L0.841,10.867L0.905,10.682L0.971,10.498L1.04,10.315L1.11,10.132L1.183,9.951L1.258,9.771L1.335,9.593L1.414,9.415L1.495,9.238L1.578,9.063L1.664,8.889L1.751,8.716L1.84,8.544L1.932,8.373L2.025,8.204L2.12,8.036L2.218,7.869L2.317,7.704L2.418,7.539L2.521,7.376L2.626,7.215L2.733,7.055L2.842,6.896L2.953,6.738L3.065,6.582L3.179,6.427L3.295,6.274L3.413,6.122L3.533,5.972L3.654,5.823L3.778,5.676L3.902,5.53L4.029,5.385L4.157,5.243L4.287,5.101L4.419,4.962L4.552,4.824L4.687,4.687L4.824,4.552L4.962,4.419L5.101,4.287L5.243,4.157L5.385,4.029L5.53,3.902L5.676,3.778L5.823,3.654L5.972,3.533L6.122,3.413L6.274,3.295L6.427,3.179L6.582,3.065L6.738,2.953L6.896,2.842L7.055,2.733L7.215,2.626L7.376,2.521L7.539,2.418L7.704,2.317L7.869,2.218L8.036,2.12L8.204,2.025L8.373,1.932L8.544,1.84L8.716,1.751L8.889,1.664L9.063,1.578L9.238,1.495L9.415,1.414L9.593,1.335L9.771,1.258L9.951,1.183L10.132,1.11L10.315,1.04L10.498,0.971L10.682,0.905L10.867,0.841L11.053,0.779L11.241,0.72L11.429,0.662L11.618,0.607L11.808,0.554L12,0.504L12.192,0.456L12.385,0.41L12.578,0.366L12.773,0.325L12.969,0.286L13.165,0.25L13.362,0.216L13.56,0.184L13.759,0.155L13.959,0.129L14.159,0.104L14.361,0.083L14.562,0.063L14.765,0.047L14.968,0.032L15.172,0.021L15.377,0.012L15.582,0.005L15.788,0.001L15.995,0L216.005,0L216.212,0.001ZM15.997,0.75L15.798,0.751L15.601,0.755L15.406,0.761L15.21,0.77L15.016,0.781L14.822,0.795L14.629,0.81L14.436,0.829L14.245,0.85L14.054,0.873L13.863,0.898L13.674,0.926L13.485,0.956L13.297,0.988L13.11,1.023L12.924,1.06L12.738,1.099L12.553,1.141L12.37,1.184L12.187,1.23L12.004,1.278L11.823,1.329L11.643,1.381L11.464,1.436L11.285,1.492L11.108,1.551L10.931,1.612L10.756,1.675L10.581,1.741L10.408,1.808L10.235,1.877L10.064,1.948L9.893,2.022L9.724,2.097L9.556,2.175L9.389,2.254L9.223,2.335L9.058,2.418L8.894,2.504L8.732,2.591L8.57,2.68L8.41,2.771L8.251,2.863L8.093,2.958L7.937,3.054L7.781,3.153L7.627,3.253L7.475,3.355L7.323,3.458L7.173,3.564L7.024,3.671L6.877,3.78L6.731,3.891L6.586,4.003L6.443,4.117L6.301,4.233L6.16,4.35L6.021,4.469L5.883,4.59L5.747,4.712L5.612,4.836L5.479,4.962L5.348,5.089L5.217,5.217L5.089,5.348L4.962,5.479L4.836,5.612L4.712,5.747L4.59,5.883L4.469,6.021L4.35,6.16L4.233,6.301L4.117,6.443L4.003,6.586L3.891,6.731L3.78,6.877L3.671,7.024L3.564,7.173L3.458,7.323L3.355,7.475L3.253,7.627L3.153,7.781L3.054,7.937L2.958,8.093L2.863,8.251L2.771,8.41L2.68,8.57L2.591,8.732L2.504,8.894L2.418,9.058L2.335,9.223L2.254,9.389L2.175,9.556L2.097,9.724L2.022,9.893L1.948,10.064L1.877,10.235L1.808,10.408L1.741,10.581L1.675,10.756L1.612,10.931L1.551,11.108L1.492,11.285L1.436,11.464L1.381,11.643L1.329,11.823L1.278,12.004L1.23,12.187L1.184,12.37L1.141,12.553L1.099,12.738L1.06,12.924L1.023,13.11L0.988,13.297L0.956,13.485L0.926,13.674L0.898,13.863L0.873,14.054L0.85,14.245L0.829,14.436L0.81,14.629L0.795,14.822L0.781,15.016L0.77,15.21L0.761,15.406L0.755,15.601L0.751,15.798L0.75,15.997L0.75,52.003L0.751,52.202L0.755,52.399L0.761,52.594L0.77,52.79L0.781,52.984L0.795,53.178L0.81,53.371L0.829,53.564L0.85,53.755L0.873,53.946L0.898,54.137L0.926,54.326L0.956,54.515L0.988,54.703L1.023,54.89L1.06,55.076L1.099,55.262L1.141,55.447L1.184,55.63L1.23,55.813L1.278,55.996L1.329,56.177L1.381,56.357L1.436,56.536L1.492,56.715L1.551,56.892L1.612,57.069L1.675,57.244L1.741,57.419L1.808,57.592L1.877,57.765L1.948,57.936L2.022,58.107L2.097,58.276L2.175,58.444L2.254,58.611L2.335,58.777L2.418,58.942L2.504,59.106L2.591,59.268L2.68,59.43L2.771,59.59L2.863,59.749L2.958,59.907L3.054,60.063L3.153,60.219L3.253,60.373L3.355,60.525L3.458,60.677L3.564,60.827L3.671,60.976L3.78,61.123L3.891,61.269L4.003,61.414L4.117,61.557L4.233,61.699L4.35,61.84L4.469,61.979L4.59,62.117L4.712,62.253L4.836,62.388L4.962,62.521L5.089,62.652L5.217,62.783L5.348,62.911L5.479,63.038L5.612,63.164L5.747,63.288L5.883,63.41L6.021,63.531L6.16,63.65L6.301,63.767L6.443,63.883L6.586,63.997L6.731,64.109L6.877,64.22L7.024,64.329L7.173,64.436L7.323,64.542L7.475,64.645L7.627,64.747L7.781,64.847L7.937,64.946L8.093,65.042L8.251,65.137L8.41,65.229L8.57,65.32L8.732,65.409L8.894,65.496L9.058,65.582L9.223,65.665L9.389,65.746L9.556,65.825L9.724,65.903L9.893,65.978L10.064,66.052L10.235,66.123L10.408,66.192L10.581,66.259L10.756,66.325L10.931,66.388L11.108,66.449L11.285,66.508L11.464,66.564L11.643,66.619L11.823,66.671L12.004,66.722L12.187,66.77L12.37,66.816L12.553,66.859L12.738,66.901L12.924,66.94L13.11,66.977L13.297,67.012L13.485,67.044L13.674,67.074L13.863,67.102L14.054,67.127L14.245,67.15L14.436,67.171L14.629,67.19L14.822,67.205L15.016,67.219L15.21,67.23L15.406,67.239L15.601,67.245L15.798,67.249L15.997,67.25L216.003,67.25L216.202,67.249L216.399,67.245L216.594,67.239L216.79,67.23L216.984,67.219L217.178,67.205L217.371,67.19L217.564,67.171L217.755,67.15L217.946,67.127L218.137,67.102L218.326,67.074L218.515,67.044L218.703,67.012L218.89,66.977L219.076,66.94L219.262,66.901L219.447,66.859L219.63,66.816L219.813,66.77L219.996,66.722L220.177,66.671L220.357,66.619L220.536,66.564L220.715,66.508L220.892,66.449L221.069,66.388L221.244,66.325L221.419,66.259L221.592,66.192L221.765,66.123L221.936,66.052L222.107,65.978L222.276,65.903L222.444,65.825L222.611,65.746L222.777,65.665L222.942,65.582L223.106,65.496L223.268,65.409L223.43,65.32L223.59,65.229L223.749,65.137L223.907,65.042L224.063,64.946L224.219,64.847L224.373,64.747L224.525,64.645L224.677,64.542L224.827,64.436L224.976,64.329L225.123,64.22L225.269,64.109L225.414,63.997L225.557,63.883L225.699,63.767L225.84,63.65L225.979,63.531L226.117,63.41L226.253,63.288L226.388,63.164L226.521,63.038L226.652,62.911L226.783,62.783L226.911,62.652L227.038,62.521L227.164,62.388L227.288,62.253L227.41,62.117L227.531,61.979L227.65,61.84L227.767,61.699L227.883,61.557L227.997,61.414L228.109,61.269L228.22,61.123L228.329,60.976L228.436,60.827L228.542,60.677L228.645,60.525L228.747,60.373L228.847,60.219L228.946,60.063L229.042,59.907L229.137,59.749L229.229,59.59L229.32,59.43L229.409,59.268L229.496,59.106L229.582,58.942L229.665,58.777L229.746,58.611L229.825,58.444L229.903,58.276L229.978,58.107L230.052,57.936L230.123,57.765L230.192,57.592L230.259,57.419L230.325,57.244L230.388,57.069L230.449,56.892L230.508,56.715L230.564,56.536L230.619,56.357L230.671,56.177L230.722,55.995L230.77,55.813L230.816,55.63L230.859,55.447L230.901,55.262L230.94,55.076L230.977,54.89L231.012,54.703L231.044,54.515L231.074,54.326L231.102,54.137L231.127,53.946L231.15,53.755L231.171,53.564L231.19,53.371L231.205,53.178L231.219,52.984L231.23,52.79L231.239,52.594L231.245,52.399L231.249,52.202L231.25,52.003L231.25,15.997L231.249,15.798L231.245,15.601L231.239,15.406L231.23,15.21L231.219,15.016L231.205,14.822L231.19,14.629L231.171,14.436L231.15,14.245L231.127,14.054L231.102,13.863L231.074,13.674L231.044,13.485L231.012,13.297L230.977,13.11L230.94,12.924L230.901,12.738L230.859,12.553L230.816,12.37L230.77,12.187L230.722,12.005L230.671,11.823L230.619,11.643L230.564,11.464L230.508,11.285L230.449,11.108L230.388,10.931L230.325,10.756L230.259,10.581L230.192,10.408L230.123,10.235L230.052,10.064L229.978,9.893L229.903,9.724L229.825,9.556L229.746,9.389L229.665,9.223L229.582,9.058L229.496,8.894L229.409,8.732L229.32,8.57L229.229,8.41L229.137,8.251L229.042,8.093L228.946,7.937L228.847,7.781L228.747,7.627L228.645,7.475L228.542,7.323L228.436,7.173L228.329,7.024L228.22,6.877L228.109,6.731L227.997,6.586L227.883,6.443L227.767,6.301L227.65,6.16L227.531,6.021L227.41,5.883L227.288,5.747L227.164,5.612L227.038,5.479L226.911,5.348L226.783,5.217L226.652,5.089L226.521,4.962L226.388,4.836L226.253,4.712L226.117,4.59L225.979,4.469L225.84,4.35L225.699,4.233L225.557,4.117L225.414,4.003L225.269,3.891L225.123,3.78L224.976,3.671L224.827,3.564L224.677,3.458L224.525,3.355L224.373,3.253L224.219,3.153L224.063,3.054L223.907,2.958L223.749,2.863L223.59,2.771L223.43,2.68L223.268,2.591L223.106,2.504L222.942,2.418L222.777,2.335L222.611,2.254L222.444,2.175L222.276,2.097L222.107,2.022L221.936,1.948L221.765,1.877L221.592,1.808L221.419,1.741L221.244,1.675L221.069,1.612L220.892,1.551L220.715,1.492L220.536,1.436L220.357,1.381L220.177,1.329L219.996,1.278L219.813,1.23L219.63,1.184L219.447,1.141L219.262,1.099L219.076,1.06L218.89,1.023L218.703,0.988L218.515,0.956L218.326,0.926L218.137,0.898L217.946,0.873L217.755,0.85L217.564,0.829L217.371,0.81L217.178,0.795L216.984,0.781L216.79,0.77L216.594,0.761L216.399,0.755L216.202,0.751L216.003,0.75L15.997,0.75Z" style="fill:rgb(72,72,72);"/>
    </g>
</svg>
