<svg clip-rule="evenodd" fill-rule="evenodd" stroke-linejoin="round" stroke-miterlimit="1.41421" viewBox="0 0 137 122" xmlns="http://www.w3.org/2000/svg" xmlns:xlink="http://www.w3.org/1999/xlink"><linearGradient id="a" gradientTransform="matrix(41.8862 0 0 42.3208 -.216401 22.0075)" gradientUnits="userSpaceOnUse" x1="0" x2="1" y1="0" y2="0"><stop offset="0" stop-color="#1b99fd"/><stop offset="1" stop-color="#a330f8"/></linearGradient><path d="m83.946 10.808c1.892-1.077 4.216-1.077 6.108 0 8.92 5.078 34.864 19.848 43.844 24.961 1.918 1.092 3.102 3.124 3.102 5.325v49.812c0 2.201-1.184 4.233-3.102 5.325-8.98 5.113-34.924 19.883-43.844 24.961-1.892 1.077-4.216 1.077-6.108 0-8.92-5.078-34.864-19.848-43.844-24.961-1.918-1.092-3.102-3.124-3.102-5.325 0-10.223 0-39.589 0-49.812 0-2.201 1.184-4.233 3.102-5.325 8.98-5.113 34.924-19.883 43.844-24.961z" fill="#f0d9ff"/><path d="m-9.003 0h142v100h-142z" fill="none"/><g fill="url(#a)" fill-rule="nonzero"><path d="m106.606 96.309c-.365 0-.73-.183-.913-.365l-61.36-61.179c-.731-.73-2.375-.547-3.47.548l-2.74 2.74-3.652 3.652c-.548.548-1.461.548-2.009 0s-.548-1.461 0-2.009l6.574-6.574c2.192-2.192 5.479-2.374 7.305-.548l61.179 61.178c.547.548.547 1.461 0 2.009-.366.365-.731.548-.914.548z"/><path d="m94.006 108.727c-.366 0-.731-.183-.914-.365l-61.178-61.178c-.913-.913-1.278-2.009-1.278-3.288 0-1.461.73-2.921 1.826-4.017l3.653-3.653c.547-.548 1.461-.548 2.008 0 .548.548.548 1.461 0 2.009l-3.652 3.653c-.548.547-.913 1.461-.913 2.191 0 .365 0 .913.548 1.278l61.178 61.179c.548.547.548 1.461 0 2.008-.548.183-.913.183-1.278.183z"/><path d="m95.039 106.416c.57.57.57 1.495 0 2.066-.571.57-1.496.57-2.066 0-.571-.571-.571-1.496 0-2.066.57-.571 1.495-.571 2.066 0"/><path d="m94.006 108.91c-.366 0-.731-.183-.914-.366-.365-.365-.365-.73-.365-1.095 0-.366.183-.731.365-.913.548-.548 1.461-.548 2.009 0 .183.182.366.547.366.913 0 .365-.183.73-.366.913-.365.365-.73.548-1.095.548z"/><path d="m19.679 54.489c-.366 0-.914-.183-1.096-.548-2.374-3.288-5.661-6.94-6.574-7.305 0 0-.183 0-.548 0-2.192 0-7.305 1.096-9.131 1.643-.731.183-1.279-.182-1.644-.73s-.183-1.278.365-1.644c3.287-2.374 6.94-5.478 7.305-6.574.365-.913-.548-5.661-1.644-9.496-.182-.548.183-1.279.731-1.644s1.278-.183 1.644.365c2.374 3.287 5.478 6.94 6.574 7.305h.73c2.74 0 8.766-1.643 8.949-1.643.548-.183 1.278.182 1.643.73.366.548.183 1.278-.365 1.644-3.104 2.374-6.939 5.478-7.122 6.391-.365.913.548 5.662 1.644 9.679.182.548-.183 1.279-.731 1.644-.183.183-.365.183-.73.183zm-8.036-10.593c.548 0 1.096 0 1.461.183 1.096.365 2.557 1.826 4.018 3.653-.365-2.192-.548-4.566-.183-5.479.366-1.096 1.826-2.557 3.47-4.018-1.278.183-2.739.365-3.835.365-.73 0-1.096 0-1.644-.182-1.095-.365-2.556-1.826-4.017-3.47.365 2.191.548 4.2.182 5.296-.365 1.096-1.826 2.557-3.469 4.018 1.461-.183 2.922-.366 4.017-.366z"/><path d="m63.325 35.496c-.365 0-.73-.183-.913-.365-4.383-4.383-9.679-9.131-11.323-9.497 0 0-.182 0-.365 0-2.739 0-11.14 3.105-14.062 4.383-.547.183-1.278 0-1.643-.548s-.365-1.278.182-1.643c4.383-4.383 9.314-9.862 9.497-11.323.365-1.461-2.009-8.583-4.383-14.244-.183-.548 0-1.279.548-1.644s1.278-.365 1.643.183c3.653 3.652 9.497 9.131 11.323 9.496h.365c2.922 0 10.957-3.104 13.879-4.383.548-.182 1.279 0 1.644.548s.365 1.278-.183 1.826c-3.652 3.653-9.131 9.497-9.496 11.323s2.191 9.131 4.2 13.879c.183.183.183.548.183.731.365.73-.365 1.278-1.096 1.278zm-12.601-12.601h.913c1.827.365 5.296 3.287 8.218 5.844-1.278-3.653-2.556-8.035-2.191-9.862.365-2.009 3.104-5.296 5.844-8.218-3.653 1.279-8.036 2.557-9.862 2.192-2.009-.365-5.478-3.287-8.4-5.844 1.278 3.835 2.556 8.218 2.191 9.861-.365 1.827-3.287 5.479-6.026 8.401 3.287-1.278 7.304-2.374 9.313-2.374z"/><path d="m97.475 58.506c-.365 0-.73-.182-.913-.365-2.739-3.105-6.574-6.392-7.487-6.757-1.826 0-6.94 1.644-9.679 2.739-.548.183-1.279 0-1.644-.548-.365-.547-.182-1.278.183-1.643 3.104-2.922 6.392-6.575 6.757-7.488.182-.913-1.278-5.844-2.739-9.679-.183-.547 0-1.278.547-1.643.548-.365 1.279-.183 1.644.182 2.739 3.105 6.574 6.392 7.487 6.757h.183c2.009 0 7.488-2.008 9.496-2.739.548-.183 1.279 0 1.644.548s.183 1.278-.183 1.826c-3.104 2.739-6.391 6.575-6.757 7.488-.182 1.095 1.096 5.661 2.74 9.496.182.183.182.548.182.73 0 .548-.73 1.096-1.461 1.096zm-8.583-9.861h.731c1.095.182 2.922 1.643 4.565 3.287-.73-2.192-1.096-4.383-.913-5.661.183-1.096 1.644-2.922 3.287-4.749-2.191.731-4.383 1.096-5.661.913-1.096-.182-2.922-1.643-4.748-3.287.73 2.374 1.096 4.566.913 5.662-.183 1.095-1.644 2.922-3.287 4.748 1.826-.366 3.835-.913 5.113-.913z"/><path d="m55.107 70.011c-.365 0-.73-.182-.913-.365-.548-.548-.548-1.461 0-2.009l12.418-12.418c.548-.548 1.461-.548 2.009 0s.548 1.461 0 2.009l-12.418 12.418c-.365.183-.731.365-1.096.365z"/></g></svg>