<svg clip-rule="evenodd" fill-rule="evenodd" viewBox="0 0 123 104" xmlns="http://www.w3.org/2000/svg" xmlns:xlink="http://www.w3.org/1999/xlink"><linearGradient id="a"><stop offset="0" stop-color="#98ceff" stop-opacity=".011765"/><stop offset="1" stop-color="#148fff" stop-opacity=".294118"/></linearGradient><linearGradient id="b" gradientTransform="matrix(-14.6958 -18.8733 18.8733 -14.6958 103.17 99.679)" gradientUnits="userSpaceOnUse" x1="0" x2="1" xlink:href="#a" y1="0" y2="0"/><linearGradient id="c" gradientTransform="matrix(-7.95515 -8.15429 8.15429 -7.95515 43.0197 98.4367)" gradientUnits="userSpaceOnUse" x1="0" x2="1" xlink:href="#a" y1="0" y2="0"/><linearGradient id="d" gradientTransform="matrix(7.47243 -15.869 15.869 7.47243 14.5512 64.1546)" gradientUnits="userSpaceOnUse" x1="0" x2="1" y1="0" y2="0"><stop offset="0" stop-color="#3895ff"/><stop offset="1" stop-color="#005cc6"/></linearGradient><g fill-rule="nonzero" transform="translate(-8.7 -.3)"><g transform="translate(9 1)"><path d="m22.4 68.7 40 23.1 40-23.1v-12.3l-40-23-40 23" fill="#c7e3fc"/><path d="m62.4 91.8v-12.3l40-23.1v12.3z" fill="#98ceff"/><path d="m22.4 56.4 40 23.1 40-23.1-40-23z" fill="#ecfbff"/><path d="m62.4 91.8 20 11.5 40-23.1-20-11.5z" fill="url(#b)"/></g><path d="m31.4 52.6 40 23.1 40-23.1v-12.2l-40-23.1-40 23.1" fill="#c7e3fc"/><path d="m71.4 75.7v-12.2l40-23.1v12.2z" fill="#98ceff"/><path d="m31.4 40.4 40 23.1 40-23.1-40-23.1z" fill="#ecfbff"/><path d="m31.4 35.7 40 23.1 40-23.1v-12.3l-40-23.1-40 23.1" fill="#39baff"/><path d="m71.4 58.8v-12.3l40-23.1v12.3z" fill="#3895ff"/><path d="m31.4 23.4 40 23.1 40-23.1-40-23.1z" fill="#58c5ff"/></g><g transform="translate(.3 .7)"><path d="m34.7 84.7-12.3 7.1 11.8 6.7 14.6 1.1 6.1-3.5" fill="url(#c)" fill-rule="nonzero"/><path d="m28.8 88.1 9.4 5.4 13.5-7.9" fill="none" stroke="#58c5ff" stroke-width="1.44"/><g fill-rule="nonzero"><path d="m34.7 84.7-12.3 7.1-20-11.6v-16.4l9.8-19.7 2.5-1.4 20 11.6" fill="#c7e3fc"/><path d="m34.7 84.7-12.3 7.1v-16.4l9.8-19.7 2.5-1.4" fill="#98ceff"/><path d="m34.7 84.7-12.3 7.1v-16.4l9.8-19.7 2.5-1.4" fill="#98ceff"/><path d="m21 71.5 7.8-15.7-15.9-9.2-7.8 15.7z" fill="url(#d)"/><path d="m24.7 59.2 1-2.2-12.6-7.3-1 2.2zm-9.2.2 1.5-3-5.5-3.2-1.5 3zm4.6 8.6 3.9-7.5-6-3.4-3.8 7.5zm-7-4.1 1.5-3-5.5-3.2-1.5 3.1z" fill="#fff"/></g></g><ellipse cx="6.2" cy="88.1" fill="#c3e2ff" rx="6.2" ry="3.3"/><g fill-rule="nonzero" transform="translate(.3 58.7)"><path d="m7.7 15.9s-6.5-3.4-6.5-3.3c0 0 1 8.4 1.1 9.1v.1c0 .7.6 8.6.6 8.6l.9-.4s.6-6.5.7-7.5v-.3c0-.6-.2-3.5-.2-3.5l.9.2s.5 3.6.6 4.2v.2c0 1 .2 8.8.2 8.8l.8-.5s1-7.1 1.1-8.2v-.3c.1-1-.2-7.2-.2-7.2z" fill="#0877ed"/><path d="m4.5 5 2.7.2 5.2-1.4.5.7-4.7 2-.9.1.1.1.8 10c-2.9.6-5.4 0-7.2-2.3-.1-.2-.2-.4-.1-.6.3-1.6 1.6-8.8 1.6-8.8h.3c.5-.2 1.1-.1 1.7 0z" fill="#58c5ff"/><path d="m6.8 6.3s2.9 1.1 4.2 1.6c.3.1.7.1 1-.1 1-.8 3.6-2.7 3.6-2.7l.4.7-3.5 3.5c-.2.2-.5.3-.8.3-1.2-.2-4.2-.5-4.2-.5z" fill="#58c5ff"/><path d="m2.7 2.9c-.4-1 .2-2.1 1.2-2.5s2.1.2 2.5 1.2c.2.5.4 1.1.6 1.7.4 1-.2 2.1-1.2 2.5s-2.1-.2-2.5-1.2c-.1-.6-.4-1.2-.6-1.7z" fill="#ffd1aa"/><path d="m6.2.6c-.6-.6-1.5-.8-2.3-.5-1.1.4-1.9 1.6-1.5 2.7.2.6.4.9.6 1.5.5 1.1 2.2.5 2-.1-.3-.8-.3-.8-.6-1.4-.4-.9.6-1.1 1.3-1.4.4-.2.4-.7.5-.8z" fill="#845003"/></g><g transform="matrix(.0361258 -.0316133 .0285666 .0336124 38.5401 24.5827)"><path d="m632.129 376.465c-20.594-1.311-35.286-8.739-50.286-22.434 42.172-.588 40.853-12.502 40.853-12.502s1.456-5.461-10.376-9.789c-5.232-1.913-10.467-4.902-15.013-7.3 4.14.196 63.86.17 68.701-23.569-34.723-1.761-74.01-3.05-103.153-13.191-10.756-3.742-24.964-7.855-32.995-17.079 9.251-.09 24.958-.887 38.143-5.412 14.58-5.004 28.612-11.623 35.657-25.395 4.028-7.875 3.446-15.844 3.446-15.844s-9.452 6.207-19.701 9.732c-23.112 7.951-48.08 7.691-57.737 7.483-10.407-.225-45.803-1.33-45.383-9.41.38-7.317 31.278-7.404 37.436-7.369 8.409.048 16.819.387 25.228.235-19.462-10.192-41.866-15.176-63.213-19.166-32.502-6.075-66.826-5.146-97.828 6.7-13.342 5.098-32.142 16.15-40.708 34.292-19.162 40.581 13.421 84.942 43.021 110.27 35.106 30.04 65.115 42.612 93.256 51.792 28.141 9.179 85.83 20.746 125.654-2.531 26.571-15.531 24.998-29.513 24.998-29.513z" fill="#fff"/><path d="m567.142 533.516c-2.921-3.182-5.827.218-10.59 1.145-.697.135 2.16-3.475 1.235-6.528-1.214-4.006-4.224-4.57-7.74-4.181-6.635.733-17.051 7.842-24.203 7.857-9.765.02-29.405-6.591-32.809-8.983-3.535-2.484 5.689-.181 21.638-14.14 4.87-4.262 14.587-14.14 14.587-14.14s3.868 11.751 23.79 14.937 31.964-25.208 13.506-39.628c-8.364-6.535-20.969-5.216-19.898-6.434 3.254-3.699 4.988-20.681 4.461-20.856-2.016-.67-14.855.934-44.979-4.631-39.368-7.272-77.587-24.825-109.746-48.318-27.912-20.391-51.689-53.332-61.164-74.052-3.373-7.375-5.518-19.846-6.188-28.237-1.147-14.359 5.733-39.466 25.12-54.787 2.153-1.701-24.568-6.738-44.217-6.746-41.209-.017-60.708 13.304-62.311 11.913-27.571-23.932-42.242-69.521-50.702-66.085-8.962 3.639 1.337 105.138-.051 107.179-1.387 2.041-7.747 9.652-10.821 14.994-7.316 12.718-17.57 30.913-17.73 66.524-.162 36.09 12.559 108.988 146.46 156.123 52.892 18.619 96.721 19.674 96.721 19.674s20.4 6.471 31.77 8.914c11.856 2.547 35.864 11.261 35.864 11.261s26.837 14.647 40.209 9.064c5.062-2.113 1.163-6.547-3.88-7.625-2.455-.525 5.185-2.152 5.079-6.681-.131-5.602-11.176-.538-11.176-.538s1.026-7.634 3.443-6.88c16.78 5.233 26.64 11.545 46.69 12.704 3.199.185 9.06-.701 9.229-6.614.101-3.535-5.51-5.132-5.51-5.132-.193.324 9.011-5.519 3.913-11.073z" fill="#fff"/><path d="m455.446 533.939c-3.472-.864 4.781-.929 8.659-1.899 1.654-.414 14.343 5.149 35.056 8.272 3.893.587-11.171 2.356-11.587 2.278-17.543-3.291-25.313-6.957-32.128-8.651z" fill="#2554c1"/></g></svg>