<svg clip-rule="evenodd" fill-rule="evenodd" stroke-linecap="round" stroke-linejoin="round" viewBox="0 0 36 36" xmlns="http://www.w3.org/2000/svg" xmlns:xlink="http://www.w3.org/1999/xlink"><linearGradient id="a" gradientTransform="matrix(33.974 0 0 30.9853 .987699 17.9859)" gradientUnits="userSpaceOnUse" x1="0" x2="1" y1="0" y2="0"><stop offset="0" stop-color="#12a0ff"/><stop offset="1" stop-color="#6f58ec"/></linearGradient><path d="m16.529 2.946c1.188 1.542 1.789 3.455 1.696 5.399-.212 3.133-1.648 8.118 0 11.569 0 0 1.639-3.596 2.632-3.124.993.473-.665 7.54 4.821 9.391 5.485 1.851-2.353 3.769-5.785 5.186.159 1.01-.53 1.958-1.54 2.117-.202.032-.408.03-.61-.005-2.41-.068-.684-2.709-2.14-2.96s-12.417 0-13.015-.964-3.104-8.966 1.928-13.044c0 0 1.851-5.38 4.965-6.054 0 0 1.292-4.715 4.252-4.821 0 .01 1.745-3.027 2.796-2.69z" fill="#a5cfed" fill-rule="nonzero"/><path d="m13.694 6.099s-1.774 3.692.309 6.989c1.567.942 2.526 2.636 2.526 4.464.202 3.336 2.506 7.395 3.403 9.641.896 2.246-1.62 3.673-6.247 3.239-4.628-.434-14.76 1.292-13.025-6.662 1.735-7.953 4.232-7.356 5.495-11.366l3.48-2.468s2.102-4.685 4.059-3.837z" fill="#9ae3f7" fill-rule="nonzero"/><g stroke="url(#a)"><g fill="none" stroke-width="1.93"><path d="m26.69 30.23h3.856c2.439 0 4.416-1.977 4.416-4.416v-1.851c0-3.991-1.928-7.23-4.252-7.23-2.323 0-4.251 3.239-4.251 7.23"/><path d="m9.491 23.963c0-3.991-1.928-7.23-4.252-7.23-2.323 0-4.251 3.239-4.251 7.23v1.851c0 2.439 1.977 4.416 4.415 4.416h9.332c.842 0 1.524.682 1.524 1.523v.202c0 .842.682 1.524 1.523 1.524h.424c.841 0 1.523-.682 1.523-1.524v-.202c0-.841.682-1.523 1.524-1.523"/><path d="m17.984 23.963c0-3.972-1.928-7.192-4.213-7.23h-.077c-2.323 0-4.213 3.258-4.213 7.23"/><path d="m26.478 23.963c0-3.972-1.88-7.192-4.204-7.23h-.077c-2.333 0-4.213 3.258-4.213 7.23"/><path d="m5.982 13.599c.771-1.928 2.053-3.133 3.499-3.133.08-.009.161-.009.241 0 2.054.193 3.702 2.844 3.972 6.247"/><path d="m22.197 16.733c-.27-3.404-1.928-6.055-3.972-6.248-.159-.025-.322-.025-.482 0-2.053.193-3.702 2.844-3.972 6.248"/><path d="m22.274 16.733c.27-3.404 1.929-6.055 3.963-6.248.08-.009.161-.009.241 0 2.159 0 3.933 2.729 4.213 6.267"/><path d="m9.722 10.485c.579-2.815 2.16-4.82 4.011-4.82.245-.001.49.038.723.116 1.533.434 2.786 2.275 3.287 4.724"/><path d="m25.186 7.68c-.556-1.151-1.677-1.924-2.95-2.034-.229-.002-.456.03-.675.096-1.562.415-2.834 2.275-3.336 4.743"/><path d="m14.456 5.761c.761-1.928 2.073-3.268 3.557-3.268.719.015 1.406.297 1.928.791"/></g><path d="m24.749 29.548c.377.376.377.987 0 1.363-.376.377-.987.377-1.363 0-.377-.376-.377-.987 0-1.363.376-.377.987-.377 1.363 0" fill="#536ef2" fill-rule="nonzero" stroke-linecap="butt" stroke-miterlimit="1.41421"/></g></svg>