<svg width="1600" height="457" xmlns="http://www.w3.org/2000/svg" xmlns:xlink="http://www.w3.org/1999/xlink"><defs><linearGradient x1="21.054%" y1="27.511%" x2="101.993%" y2="115.605%" id="a"><stop stop-color="#3B54CD" offset="0%"/><stop stop-color="#3759D0" offset="4.681%"/><stop stop-color="#01ADFE" offset="57.465%"/><stop stop-color="#89DAFF" offset="100%"/></linearGradient><path id="b" d="M0 0h1600v457H0z"/><radialGradient cx="196.867%" cy="150.899%" fx="196.867%" fy="150.899%" r="26.432%" gradientTransform="matrix(1 0 0 .90414 0 .145)" id="c"><stop stop-color="#5AC7FA" stop-opacity=".147" offset="0%"/><stop stop-color="#418BE5" stop-opacity="0" offset="100%"/></radialGradient><path id="e" d="M0 0h1600v457H0z"/><linearGradient x1="34.498%" y1="41.985%" x2="85.048%" y2="74.998%" id="f"><stop stop-color="#4CAAF7" offset="0%"/><stop stop-color="#5B90FF" offset="100%"/></linearGradient><path id="h" d="M0 0h1600v457H0z"/><radialGradient cx="0%" cy="47.84%" fx="0%" fy="47.84%" r="18.931%" gradientTransform="matrix(1 0 0 .90342 0 .046)" id="i"><stop stop-color="#4597F1" offset="0%"/><stop stop-color="#554BD8" stop-opacity="0" offset="100%"/></radialGradient><path id="k" d="M0 0h1600v457H0z"/></defs><g fill="none" fill-rule="evenodd"><path d="M0 0h1600v457H0z" fill="url(#a)" fill-rule="nonzero"/><mask id="d" fill="#fff"><use xlink:href="#b"/></mask><path d="M452.188-484c1.668.043 3.334.112 5 .212 13.28 1.265 24.712 4.686 35.124 10.282a21641.808 21641.808 0 0 1 351.757 199.618c18.052 10.894 32.028 28.32 37.98 48.385 2.056 6.927 2.692 14.182 3.358 21.421l.043 400.882c-.771 10.552-2.745 21.068-6.883 30.779-1.166 2.553-1.206 2.627-1.484 3.194-1.276 2.586-3.144 5.868-3.457 6.386-.776 1.278-1.134 1.832-1.536 2.458-6.8 10.516-16.054 19.354-26.689 26.012-112.935 67.661-227.557 130.784-342.13 194.344l-5.544 3.076-5.556 3.086c-13.744 7.247-29.202 10.826-44.507 10.343-14.61-.85-26.934-4.548-38.05-10.523C291.27 399.93 174.337 333.668 57.932 266.371c-13.01-7.893-23.819-19.051-31.202-32.278-3.197-5.98-3.985-8.341-5.062-11.266-2.442-6.625-3.755-13.53-4.668-20.881.686-132.648 1.48-264.324 2.283-396.054l.172-28.043c.124-1.617.608-3.349.667-3.54.43-1.415.997-3.108 1.133-3.489 6.568-17.386 16.573-30.723 30.498-40.474a223.85 223.85 0 0 1 6.263-4.221l352.699-200.129c10.194-4.748 20.831-8.53 32.391-9.638 4.65-.306 6.867-.36 9.082-.358z" fill="url(#c)" fill-rule="nonzero" mask="url(#d)"/><mask id="g" fill="#fff"><use xlink:href="#e"/></mask><path d="M452.602-452c1.54.04 3.08.103 4.618.196l1.464.118c10.864 1.056 21.47 4.24 31.196 9.507a20273.11 20273.11 0 0 1 328.247 186.443c4.979 3.006 9.686 6.458 13.913 10.444 9.965 9.394 17.41 21.451 21.246 34.576 1.876 6.417 2.441 13.208 3.049 19.975l.015.174-.018 373.97c-.7 9.656-2.435 19.15-6.251 28.201 0 0-.426.999-.821 1.82l-.16.358a115.457 115.457 0 0 1-1.872 3.727s-1.585 2.815-1.811 3.188c-.27.446-.652 1.044-.652 1.044-.093.157-.188.314-.284.47-6.209 9.927-15.008 18.462-25.127 24.798l-.222.137C712.458 311.11 603.63 371.01 494.707 431.511l-5.181 2.88c-12.645 6.67-26.96 10.006-41.11 9.56-.22-.008-1.017-.043-1.975-.098-12.783-.734-23.212-4.281-33.155-9.628C303.093 372.689 193.568 310.58 84.884 247.691c-11.882-7.215-22-17.618-28.81-29.828l-.69-1.296c-3.663-7.253-6.344-15.075-7.557-23.056-.308-2.028-.58-4.063-.824-6.1l-.003-.057c.739-123.086 1.48-246.163 2.23-369.288l.16-26.18c.148-1.911.762-3.767 1.382-5.603.082-.242.421-1.198.755-2.091a80.652 80.652 0 0 1 3.88-8.792c.593-1.146 1.156-2.31 1.871-3.387 0 0 1.33-2.237 2.452-3.891 5.245-7.745 11.744-14.543 19.44-19.939 1.91-1.338 3.847-2.64 5.801-3.912l329.325-187.027c9.482-4.42 19.113-7.876 29.92-8.913.153-.015 1.96-.135 1.96-.135s2.687-.163 4.897-.19c.51-.005 1.02-.007 1.529-.006zm-.764.898a109.946 109.946 0 0 0-4.53.115c-.037.002-.692.034-.738.038-.962.085-2.27.174-2.27.174-7.373.757-14.623 2.423-21.604 5.306A203.587 203.587 0 0 0 414.8-442l-.092.042L85.44-254.961c-4.98 3.243-9.874 6.591-14.24 10.793-4.189 4.03-7.894 8.55-11.124 13.386l-.195.296a81.344 81.344 0 0 0-8.014 16.368c-.085.24-.424 1.242-.512 1.515-.452 1.407-.943 2.94-1.065 4.526-.719 117.331-1.424 234.72-2.131 352.184l-.26 43.225c.585 4.884 1.252 9.742 2.589 14.425 1.413 4.952 3.346 9.746 5.683 14.372l.693 1.304c6.727 12.063 16.543 22.237 28.479 29.485 107.062 61.951 215.29 123.342 323.227 183.644l5.15 2.875c8.826 4.746 18.383 7.922 28.393 9.118.59.07 2.62.27 4.316.4l1.124.065c14.37.562 28.907-2.752 41.545-9.42 104.033-57.805 208.937-115.456 311.775-176.594 7.496-4.457 15.262-8.608 22.24-13.586 8.318-5.934 15.737-13.374 20.89-22.153l.645-1.033a90.835 90.835 0 0 0 3.517-6.576s.12-.264.479-1.027l.51-1.142c2.847-6.694 4.846-13.777 5.631-20.901.236-2.142.424-4.288.591-6.435l.059-.782.018-373.899c-.595-6.836-1.206-13.793-3.12-20.246-5.427-18.299-18.088-34.127-34.443-44.056l-.22-.132a20206.101 20206.101 0 0 0-328.22-186.43 80.963 80.963 0 0 0-30.734-9.389s-2.002-.154-2.126-.16a91.398 91.398 0 0 0-.857-.046 75.072 75.072 0 0 0-3.894-.115zm-.612 255.109c-14.599-.123-29.212-4.216-41.628-12.18-18.7-11.994-31.868-32.224-35.149-54.138-3.665-24.476 5.004-50.448 23.021-67.835 14.134-13.638 33.496-21.612 53.196-21.892.42-.004.841-.006 1.261-.006 23.95.116 47.326 11.696 61.892 30.818 12.437 16.33 17.999 37.645 15.221 57.943-3.643 26.628-22.03 50.72-46.98 61.278-9.437 3.993-19.672 5.986-29.936 6.015v113.898c10.784.077 21.593 2.374 31.46 6.804 15.424 6.925 28.474 19 36.626 33.851l97.821-58.169c-11.758-20.305-13.89-45.958-5.2-68.033 7.285-18.507 21.924-33.962 40.02-42.3 10.27-4.733 21.632-7.162 32.863-7.13 18.998.113 37.887 7.334 52.016 20.055 10.772 9.698 18.751 22.465 22.782 36.416 7.469 25.853.469 55.322-18.155 75.127-14.44 15.356-35.346 24.485-56.445 24.583-25.683.12-51.038-13.144-65.438-34.784a73.936 73.936 0 0 1-1.988-3.16l-97.848 58.186c.27.505.534 1.014.793 1.526 7.08 14.021 9.74 30.22 7.61 45.788-2.353 17.194-10.669 33.463-23.161 45.521-14.261 13.764-33.883 21.62-53.756 21.85v113.82c10.784.076 21.593 2.374 31.46 6.804 16.218 7.282 29.813 20.258 37.847 36.168 7.08 14.021 9.74 30.22 7.61 45.788-3.643 26.62-22.014 50.713-46.982 61.278-22.726 9.616-50.06 7.644-71.266-5.418-12.514-7.708-22.807-19.015-29.295-32.262-10.325-21.078-10.432-46.906-.208-68.112 7.824-16.229 21.44-29.612 37.829-37.148 10.045-4.619 20.986-7.018 32.107-7.097V74.044c-4.466 0-8.94-.386-13.367-1.177-15.046-2.693-29.2-9.95-40.22-20.515-12.511-11.998-20.89-28.248-23.296-45.44-2.2-15.72.488-32.1 7.683-46.243.225-.44.453-.88.685-1.315l-97.909-58.222c-9.184 15.117-23.475 27.185-40.224 33.264-18.778 6.816-40.164 6.115-58.395-2.005-22.37-9.964-39.47-30.913-44.64-55.033-5.667-26.441 3.373-55.496 23.72-74.05 14.205-12.952 33.34-20.323 52.609-20.377h.471c25.634.152 50.784 13.634 64.967 35.437 12.306 18.918 15.909 43.264 9.429 64.97-1.78 5.96-4.31 11.676-7.475 17.024l97.876 58.201c8.066-14.7 20.947-26.7 36.194-33.655 9.966-4.546 20.912-6.92 31.892-7v-113.901zm.2 384.75c-19.027.087-37.83 7.433-51.813 20.218-12.091 11.057-20.561 26.03-23.702 42.131-3.16 16.206-.984 33.418 6.189 48.295 10.501 21.782 31.678 38.038 55.443 42.446 14.636 2.714 30.033 1.1 43.733-4.596 27.452-11.415 47.195-39.408 47.585-70.307.265-21.073-8.491-42.04-23.773-56.703-14.118-13.547-33.33-21.394-53.163-21.485h-.5zm0-269.952c-19.027.088-37.83 7.434-51.813 20.219-12.091 11.057-20.561 26.03-23.702 42.132-3.974 20.37.627 42.268 12.687 59.324 11.204 15.846 28.517 27.246 47.528 31.139 24.16 4.948 50.513-2.434 68.627-19.596 12.436-11.782 20.814-27.79 23.296-44.756 3.54-24.209-5.085-49.824-22.96-66.977-13.942-13.378-32.94-21.2-52.417-21.478-.416-.005-.83-.008-1.247-.007zm-166.881-18.872a77.317 77.317 0 0 0 7.195-16.394c7.792-25.488 1.276-54.827-16.96-74.714-14.119-15.397-34.601-24.667-55.74-24.989a84.182 84.182 0 0 0-1.167-.007c-19.004.054-37.948 7.325-52.004 20.142-16.337 14.898-25.77 37.026-25.14 59.163.648 22.72 11.78 44.88 29.788 58.843 13.269 10.287 29.926 16.107 46.692 16.235 17.839.136 35.654-6.096 49.48-17.362 6.92-5.639 12.812-12.501 17.398-20.143l-.804-.479.459-.772.803.477zm334.76.749c8.45 13.963 21.284 25.289 36.533 31.611 19.083 7.91 41.337 7.803 60.293-.428 22.472-9.758 39.737-30.743 44.846-54.922 5.426-25.68-3.197-53.782-22.453-72.003-14.243-13.476-33.863-21.111-53.281-21.111-25.491.079-50.317 13.442-64.322 34.833-12.18 18.603-15.829 42.593-9.585 63.96a76.14 76.14 0 0 0 7.508 17.289l.764-.455.46.772-.763.454zm-167.88-251.828c-19.326.094-38.434 7.684-52.492 20.849-11.68 10.939-19.861 25.565-22.976 41.266-4.98 25.118 3.392 52.427 21.97 70.462 17.767 17.247 44.079 25.164 68.59 20.379 14.267-2.785 27.67-9.727 38.236-19.738 12.436-11.782 20.814-27.79 23.296-44.756 3.473-23.747-4.714-48.847-21.966-66.006-14.009-13.932-33.378-22.165-53.41-22.45-.417-.004-.832-.006-1.248-.006z" fill="url(#f)" fill-rule="nonzero" opacity=".4" mask="url(#g)"/><g><mask id="j" fill="#fff"><use xlink:href="#h"/></mask><path d="M707.116 359.284s1.427-2.399 2.626-4.169c8.207-11.455 16.81-18.896 26.54-25.309l353.461-200.801c10.194-4.751 20.83-8.538 32.39-9.646 4.649-.307 6.866-.362 9.081-.359 1.668.043 3.334.112 4.999.212 13.282 1.267 24.7 4.683 35.122 10.29a21612.787 21612.787 0 0 1 351.736 199.779c18.127 10.947 32.169 28.523 38.079 48.764 2.026 6.935 2.644 14.27 3.299 21.572l.001 400.729c-.772 10.686-2.686 20.945-6.884 30.804-1.165 2.556-1.205 2.629-1.483 3.197-1.277 2.591-3.154 5.888-3.457 6.39-.774 1.279-1.134 1.835-1.537 2.462-6.795 10.517-16.024 19.358-26.685 26.032-112.775 67.626-227.545 130.888-342.11 194.5l-5.544 3.079-5.556 3.088c-13.714 7.235-29.2 10.834-44.504 10.351-4.37-.186-7.288-.587-7.86-.665-10.592-1.449-20.786-4.808-30.188-9.866-117.577-65.655-234.77-132.106-351.66-199.745-12.97-7.875-23.795-19.028-31.2-32.304-1.738-3.252-2.773-5.59-2.95-5.999-1.202-2.858-1.764-4.304-2.29-5.762-2.413-6.698-3.678-13.786-4.542-20.833a766938.38 766938.38 0 0 1 2.335-395.95l.171-28.065c.203-2.644 1.13-5.178 1.935-7.41a90.985 90.985 0 0 1 3.195-7.766c2.031-4.195 2.71-5.442 3.48-6.6z" fill="url(#i)" fill-rule="nonzero" opacity=".4" mask="url(#j)"/></g><g><mask id="l" fill="#fff"><use xlink:href="#k"/></mask><path d="M1130.33 151.01a.45.45 0 0 1 .187 0h.085c1.54.04 3.08.103 4.618.195l1.464.118c10.793 1.05 21.32 4.194 30.975 9.387l.222.12a20261.295 20261.295 0 0 1 328.246 186.444c16.773 10.124 29.72 26.384 35.159 45.02 1.873 6.417 2.441 13.207 3.049 19.975l.015.173-.018 373.971c-.415 5.721-.972 11.45-2.383 16.888-1.025 3.947-2.377 7.805-3.97 11.555l-.425.954c-.304.656-.453.982-.453.982-.562 1.17-1.144 2.33-1.745 3.48l-.26.494c-.206.37-.412.74-.62 1.109a119.3 119.3 0 0 1-.987 1.71c0 .189-.094.25-.162.269-.258.42-.562.896-.562.896-.093.158-.188.315-.283.47-6.32 10.106-15.027 18.472-25.128 24.798l-.222.138c-105.199 63.074-212.252 122.08-319.247 181.489l-5.178 2.876-5.181 2.879c-12.282 6.48-26.187 9.824-39.962 9.588-.154.101-.257.037-.303-.006a76.335 76.335 0 0 1-.844-.022 104.06 104.06 0 0 1-1.976-.097c-12.773-.733-23.222-4.287-33.154-9.629-110.36-61.628-219.717-123.646-328.403-186.533-10.91-6.625-20.32-15.86-27.137-26.971a1.026 1.026 0 0 1-.05-.063s-.02-.023-.032-.071a80.028 80.028 0 0 1-1.59-2.723l-.69-1.296c-3.587-7.101-6.262-14.705-7.485-22.586a193.565 193.565 0 0 1-.897-6.57l-.003-.057c.74-123.087 1.48-246.163 2.23-369.288l.16-26.18c.135-1.742.627-3.264 1.109-4.764.081-.253.34-1.04.645-1.89a84.745 84.745 0 0 1 2.796-6.84c5.61-12.125 14.29-22.482 24.788-29.897a206.174 206.174 0 0 1 5.538-3.764l.705-.46 329.325-187.027c9.47-4.416 19.113-7.876 29.92-8.914.154-.014 1.96-.134 1.96-.134s2.687-.163 4.897-.19c.42-.004.838-.006 1.258-.006zm392.038 672.69L940.19 600.087l187.512 446a82.18 82.18 0 0 0 39.396-9.476c110.133-61.194 221.301-122.309 329.566-187.221 9.81-6.1 18.288-14.126 24.578-23.895.396-.615.862-1.363.862-1.363l.264-.43zm-395.648 222.367L939.227 600.113 736.671 823.518c6.674 10.796 15.848 19.837 26.67 26.41 106.73 61.755 214.671 122.994 323.228 183.643l5.15 2.876c8.813 4.739 18.383 7.922 28.393 9.118.596.07 2.626.27 4.316.4l1.125.064c.389.016.778.028 1.167.038zm-392.918-666.37a80.825 80.825 0 0 0-3.936 9.195c-.166.465-1.245 3.186-1.494 5.102-.04.312-.06.627-.083.94-.719 117.329-1.424 234.719-2.13 352.183l-.26 43.225c.584 4.858 1.246 9.722 2.588 14.425 1.413 4.952 3.346 9.745 5.683 14.372l.694 1.304a79.05 79.05 0 0 0 1.319 2.275l202.574-223.424-204.955-219.597zm206.162 219.34L1522 822.597l-391.341-670.14-190.695 446.58zm191.427-447.108l391.64 670.654a90.705 90.705 0 0 0 3.134-5.916s.144-.331.287-.627c.209-.429.284-.601.284-.601l.419-.94c2.841-6.686 4.845-13.777 5.63-20.901.235-2.142.423-4.288.591-6.435l.058-.782.018-373.9c-.586-6.826-1.195-13.757-3.12-20.245-5.42-18.275-18.092-34.127-34.443-44.056l-.219-.133a20216.702 20216.702 0 0 0-328.221-186.43 81.003 81.003 0 0 0-30.733-9.388s-2.007-.155-2.127-.161l-.857-.046c-.78-.038-1.56-.073-2.341-.093zm-1.475-.02h-.078a109.835 109.835 0 0 0-5.268.15c-.961.086-2.27.176-2.27.176-7.488.768-14.86 2.495-21.904 5.43a213.074 213.074 0 0 0-7.597 3.345l-.092.043L763.44 348.047c-4.981 3.244-9.874 6.593-14.24 10.794-4.19 4.032-7.896 8.554-11.123 13.387l-.196.296a81.27 81.27 0 0 0-3.644 6.322l204.99 219.633 190.69-446.57z" fill="#5A7CF1" fill-rule="nonzero" opacity=".3" mask="url(#l)"/></g></g></svg>