<svg clip-rule="evenodd" fill-rule="evenodd" stroke-linejoin="round" stroke-miterlimit="1.41421" viewBox="0 0 101 104" xmlns="http://www.w3.org/2000/svg" xmlns:xlink="http://www.w3.org/1999/xlink"><linearGradient id="a"><stop offset="0" stop-color="#98ceff" stop-opacity=".015686"/><stop offset="1" stop-color="#148fff" stop-opacity=".298039"/></linearGradient><linearGradient id="b" gradientTransform="matrix(-19.2186 -12.7647 12.7647 -19.2186 67.1141 101.618)" gradientUnits="userSpaceOnUse" x1="0" x2="1" xlink:href="#a" y1="0" y2="0"/><linearGradient id="c" gradientTransform="matrix(-19.2217 -12.7629 12.7629 -19.2217 81.1803 93.4932)" gradientUnits="userSpaceOnUse" x1="0" x2="1" xlink:href="#a" y1="0" y2="0"/><linearGradient id="d" gradientTransform="matrix(-19.2217 -12.7629 12.7629 -19.2217 95.1911 85.4011)" gradientUnits="userSpaceOnUse" x1="0" x2="1" xlink:href="#a" y1="0" y2="0"/><g fill-rule="nonzero"><g transform="translate(28 32)"><path d="m.2 20.6 11.7 6.7 11.7-6.7v-13.6l-11.7-6.7-11.7 6.7z" fill="#c7e3fc"/><path d="m11.9 27.3v-13.5l11.7-6.8v13.6z" fill="#98ceff"/><path d="m.2 7 11.7 6.7 11.7-6.7-11.7-6.8z" fill="#ecfbff"/></g><g transform="translate(14 41)"><path d="m.1 19.7 11.7 6.8 11.7-6.8v-13.5l-11.7-6.8-11.7 6.8z" fill="#c7e3fc"/><path d="m11.8 26.4v-13.5l11.7-6.7v13.5z" fill="#98ceff"/><path d="m.1 6.1 11.7 6.7 11.7-6.6-11.7-6.8z" fill="#ecfbff"/></g><g transform="translate(0 49)"><path d="m0 19.8 11.7 6.8 11.7-6.8v-13.5l-11.7-6.7-11.7 6.7z" fill="#c7e3fc"/><path d="m11.7 26.6v-13.5l11.7-6.8v13.5z" fill="#98ceff"/><path d="m0 6.3 11.7 6.7 11.7-6.7-11.7-6.8z" fill="#ecfbff"/></g><g transform="translate(28 16)"><path d="m.2 20.4 11.7 6.8 11.7-6.8v-13.5l-11.7-6.7-11.7 6.7z" fill="#c7e3fc"/><path d="m11.9 27.2v-13.5l11.7-6.8v13.5z" fill="#98ceff"/><path d="m.2 6.9 11.7 6.7 11.7-6.7-11.7-6.8z" fill="#ecfbff"/></g><g transform="translate(14 24)"><path d="m.1 20.6 11.7 6.8 11.7-6.8v-13.5l-11.7-6.8-11.7 6.8z" fill="#c7e3fc"/><path d="m11.8 27.3v-13.5l11.7-6.7v13.5z" fill="#98ceff"/><path d="m.1 7 11.7 6.7 11.7-6.7-11.7-6.7z" fill="#ecfbff"/></g><g transform="translate(0 33)"><path d="m0 19.7 11.7 6.8 11.7-6.8v-13.5l-11.7-6.8-11.7 6.8z" fill="#c7e3fc"/><path d="m11.7 26.5v-13.6l11.7-6.7v13.5z" fill="#98ceff"/><path d="m0 6.1 11.7 6.8 11.7-6.7-11.7-6.8z" fill="#ecfbff"/></g><g transform="translate(28)"><path d="m.2 20.3 11.7 6.8 11.7-6.8v-13.5l-11.7-6.8-11.7 6.8z" fill="#c7e3fc"/><path d="m11.9 27.1v-13.6l11.7-6.7v13.5z" fill="#98ceff"/><path d="m.2 6.7 11.7 6.8 11.7-6.7-11.7-6.8z" fill="#ecfbff"/></g><g transform="translate(14 8)"><path d="m.1 20.5 11.7 6.7 11.7-6.7v-13.6l-11.7-6.7-11.7 6.7z" fill="#c7e3fc"/><path d="m11.8 27.2v-13.5l11.7-6.8v13.6z" fill="#98ceff"/><path d="m.1 6.9 11.7 6.7 11.7-6.7-11.7-6.8z" fill="#ecfbff"/></g><g transform="translate(0 16)"><path d="m0 20.6 11.7 6.8 11.7-6.8v-13.5l-11.7-6.8-11.7 6.8z" fill="#c7e3fc"/><path d="m11.7 27.4v-13.6l11.7-6.7v13.5z" fill="#98ceff"/><path d="m0 7 11.7 6.8 11.7-6.7-11.7-6.8z" fill="#ecfbff"/></g><g transform="translate(43 41)"><path d="m.2 20.2 11.7 6.8 11.7-6.8v-13.5l-11.7-6.8-11.7 6.8z" fill="#c7e3fc"/><path d="m11.8 26.9v-13.5l11.8-6.7v13.5z" fill="#98ceff"/><path d="m.2 6.6 11.6 6.7 11.8-6.7-11.8-6.7z" fill="#ecfbff"/></g><g transform="translate(29 49)"><path d="m0 20.3 11.8 6.8 11.7-6.8v-13.5l-11.7-6.8-11.8 6.8z" fill="#c7e3fc"/><path d="m11.7 27.1v-13.6l11.8-6.7v13.5z" fill="#98ceff"/><path d="m0 6.7 11.7 6.8 11.7-6.7-11.7-6.8z" fill="#ecfbff"/></g><g transform="translate(15 57)"><path d="m-.1 20.5 11.8 6.7 11.7-6.7v-13.6l-11.7-6.7-11.8 6.7z" fill="#c7e3fc"/><path d="m11.6 27.2v-13.5l11.8-6.8v13.6z" fill="#98ceff"/><path d="m-.1 6.9 11.7 6.7 11.7-6.7-11.7-6.8z" fill="#ecfbff"/></g><g transform="translate(43 25)"><path d="m.2 20.1 11.7 6.7 11.7-6.7v-13.6l-11.7-6.7-11.7 6.7z" fill="#c7e3fc"/><path d="m11.8 26.8v-13.5l11.8-6.8v13.6z" fill="#98ceff"/><path d="m.2 6.5 11.6 6.7 11.8-6.7-11.8-6.8z" fill="#ecfbff"/></g><g transform="translate(29 33)"><path d="m0 20.2 11.8 6.8 11.7-6.8v-13.5l-11.7-6.8-11.8 6.8z" fill="#c7e3fc"/><path d="m11.7 27v-13.6l11.8-6.7v13.5z" fill="#98ceff"/><path d="m0 6.6 11.7 6.8 11.7-6.7-11.7-6.8z" fill="#ecfbff"/></g><g transform="translate(15 41)"><path d="m-.1 20.4 11.8 6.7 11.7-6.7v-13.6l-11.7-6.7-11.8 6.7z" fill="#39baff"/><path d="m11.6 27.1v-13.5l11.8-6.8v13.6z" fill="#3895ff"/><path d="m-.1 6.8 11.7 6.7 11.7-6.7-11.7-6.8z" fill="#58c5ff"/></g><g transform="translate(43 9)"><path d="m.2 20 11.7 6.7 11.7-6.7v-13.6l-11.7-6.7-11.7 6.7z" fill="#c7e3fc"/><path d="m11.8 26.7v-13.5l11.8-6.8v13.6z" fill="#98ceff"/><path d="m.2 6.4 11.6 6.7 11.8-6.7-11.8-6.8z" fill="#ecfbff"/></g><g transform="translate(29 17)"><path d="m0 20.1 11.8 6.8 11.7-6.8v-13.5l-11.7-6.8-11.8 6.8z" fill="#c7e3fc"/><path d="m11.7 26.8v-13.5l11.8-6.7v13.5z" fill="#98ceff"/><path d="m0 6.5 11.7 6.7 11.7-6.6-11.7-6.8z" fill="#ecfbff"/></g><g transform="translate(15 25)"><path d="m-.1 20.2 11.8 6.8 11.7-6.8v-13.5l-11.7-6.7-11.8 6.7z" fill="#c7e3fc"/><path d="m11.6 27v-13.5l11.8-6.8v13.5z" fill="#98ceff"/><path d="m-.1 6.7 11.7 6.7 11.7-6.7-11.7-6.8z" fill="#ecfbff"/></g><g transform="translate(58 50)"><path d="m.1 19.8 11.7 6.8 11.7-6.8v-13.5l-11.7-6.8-11.7 6.8z" fill="#c7e3fc"/><path d="m11.8 26.6v-13.6l11.7-6.7v13.5z" fill="#98ceff"/><path d="m.1 6.2 11.7 6.8 11.7-6.7-11.7-6.8z" fill="#ecfbff"/></g><g transform="translate(44 58)"><path d="m0 20 11.7 6.7 11.7-6.7v-13.6l-11.7-6.7-11.7 6.7z" fill="#c7e3fc"/><path d="m11.7 26.7v-13.5l11.7-6.8v13.6z" fill="#98ceff"/><path d="m0 6.4 11.7 6.7 11.7-6.7-11.8-6.8z" fill="#ecfbff"/></g><g transform="translate(30 66)"><path d="m-.1 20.1 11.7 6.8 11.7-6.8v-13.5l-11.7-6.8-11.7 6.8z" fill="#c7e3fc"/><path d="m11.6 26.8v-13.5l11.7-6.7v13.5z" fill="#98ceff"/><path d="m-.1 6.5 11.7 6.7 11.7-6.6-11.8-6.8z" fill="#ecfbff"/></g><g transform="translate(58 34)"><path d="m.1 19.7 11.7 6.8 11.7-6.8v-13.5l-11.7-6.8-11.7 6.8z" fill="#c7e3fc"/><path d="m11.8 26.4v-13.5l11.7-6.7v13.5z" fill="#98ceff"/><path d="m.1 6.1 11.7 6.7 11.7-6.6-11.7-6.8z" fill="#ecfbff"/></g><g transform="translate(44 42)"><path d="m0 19.8 11.7 6.8 11.7-6.8v-13.5l-11.7-6.7-11.7 6.7z" fill="#c7e3fc"/><path d="m11.7 26.6v-13.5l11.7-6.8v13.5z" fill="#98ceff"/><path d="m0 6.3 11.7 6.7 11.7-6.7-11.8-6.8z" fill="#ecfbff"/></g><g transform="translate(30 50)"><path d="m-.1 20 11.7 6.8 11.7-6.8v-13.5l-11.7-6.8-11.7 6.8z" fill="#c7e3fc"/><path d="m11.6 26.7v-13.5l11.7-6.7v13.5z" fill="#98ceff"/><path d="m-.1 6.4 11.7 6.7 11.7-6.7-11.8-6.7z" fill="#ecfbff"/></g><g transform="translate(58 17)"><path d="m.1 20.6 11.7 6.8 11.7-6.8v-13.5l-11.7-6.8-11.7 6.8z" fill="#c7e3fc"/><path d="m11.8 27.3v-13.5l11.7-6.7v13.5z" fill="#98ceff"/><path d="m.1 7 11.7 6.7 11.7-6.7-11.7-6.7z" fill="#ecfbff"/></g><g transform="translate(44 26)"><path d="m0 19.7 11.7 6.8 11.7-6.8v-13.5l-11.7-6.8-11.7 6.8z" fill="#c7e3fc"/><path d="m11.7 26.5v-13.6l11.7-6.7v13.5z" fill="#98ceff"/><path d="m0 6.1 11.7 6.8 11.7-6.7-11.8-6.8z" fill="#ecfbff"/></g><g transform="translate(30 34)"><path d="m-.1 19.9 11.7 6.7 11.7-6.7v-13.6l-11.7-6.7-11.7 6.7z" fill="#c7e3fc"/><path d="m11.6 26.6v-13.5l11.7-6.8v13.6z" fill="#98ceff"/><path d="m-.1 6.3 11.7 6.7 11.7-6.7-11.8-6.8z" fill="#ecfbff"/></g></g><ellipse cx="18.6" cy="85.6" fill="#c3e2ff" rx="5.3" ry="2.9"/><path d="m20.1 74.1-5.5-2.9s.8 7.2.9 7.8v.1c0 .6.5 7.4.5 7.4l.7-.3s.5-5.5.6-6.4c0-.1 0-.2 0-.3 0-.6-.1-2.9-.1-2.9l.8.2s.5 3 .5 3.6v.2c0 .9.2 7.6.2 7.6l.7-.5s.8-6 1-7c0-.1 0-.2 0-.3 0-1.1-.3-6.3-.3-6.3z" fill="#0877ed" fill-rule="nonzero"/><path d="m15.6 64.7 1.8-2.6 3.5-2.6.3.6-3.3 3.3-.7 1.4c.9.2 1.7.7 2.6 1.4l.7 8.6c-2.5.5-4.6 0-6.1-1.9-.1-.2-.2-.4-.1-.6.2-1.5 1.3-7.6 1.3-7.6z" fill="#3895ff" fill-rule="nonzero"/><path d="m19.4 65.8s2.4.9 3.5 1.3c.3.1.7.1 1-.1.9-.7 3-2.3 3-2.3l.3.6s-2.1 2.1-2.9 2.9c-.2.2-.5.3-.8.3-1.1-.1-3.6-.5-3.6-.5z" fill="#3895ff" fill-rule="nonzero"/><path d="m15.9 62.9c-.2-.4-.1-.9.1-1.3s.5-.7.9-.9.9-.1 1.3.1.7.5.9.9c.2.5.4 1 .5 1.4.2.4.1.9-.1 1.3s-.5.7-.9.9-.9.1-1.3-.1-.7-.5-.9-.9c-.2-.5-.3-1-.5-1.4z" fill="#ffd1aa" fill-rule="nonzero"/><path d="m18.8 60.9c-.5-.5-1.3-.7-2-.5-1 .4-1.6 1.4-1.3 2.3.2.5.3.8.5 1.3.4.9 1.9.4 1.7-.1-.2-.7-.2-.7-.5-1.2-.4-.8.5-.9 1.1-1.2.4-.1.5-.5.5-.6z" fill="#845003" fill-rule="nonzero"/><path d="m41.6 92.8 19.3 11.2 11.8-6.8-19.4-11.1z" fill="url(#b)" fill-rule="nonzero"/><path d="m55.7 84.7 19.3 11.2 11.8-6.8-19.4-11.2z" fill="url(#c)" fill-rule="nonzero"/><path d="m69.7 76.6 19.3 11.1 11.8-6.7-19.3-11.2z" fill="url(#d)" fill-rule="nonzero"/></svg>