<svg clip-rule="evenodd" fill-rule="evenodd" stroke-linecap="round" stroke-linejoin="round" viewBox="0 0 64 64" xmlns="http://www.w3.org/2000/svg" xmlns:xlink="http://www.w3.org/1999/xlink"><linearGradient id="a" gradientTransform="matrix(45.6313 0 0 52.2124 7.83561 31.0041)" gradientUnits="userSpaceOnUse" x1="0" x2="1" y1="0" y2="0"><stop offset="0" stop-color="#60d6f4"/><stop offset="1" stop-color="#155693"/></linearGradient><linearGradient id="b" gradientTransform="matrix(60.8188 0 0 55.9903 1.59062 32)" gradientUnits="userSpaceOnUse" x1="0" x2="1" y1="0" y2="0"><stop offset="0" stop-color="#12a0ff"/><stop offset="1" stop-color="#6f58ec"/></linearGradient><g fill-rule="nonzero"><path d="m45.395 8.655s4.954 11.956-1.483 15.858c-6.438 3.901.385 12.327 2.076 12.89 1.691.564 6.868 3.323 4.925 4.91s-7.788 1.988-11.452-.949c-1.842-1.713-4.484-2.256-6.853-1.409 0 0 2.477-9.583 2.448-9.895-.03-.311 1.483-7.876 5.933-8.9 4.45-1.023 4.406-12.505 4.406-12.505z" fill="url(#a)"/><path d="m43.912 55.753c-8.322-.861-17.801 2.225-21.302 1.112-3.501-1.112-9.627-1.276-11.956-5.711s-3.99-8.5-1.78-7.268c2.21 1.231 5.681.37 4.821-2.967-.584-2.115-1.511-4.119-2.744-5.934 0 0-4.065-6.838.549-11.867 0 0 2.966-2.077.83-8.455-2.136-6.379-1.691-9.509-1.691-9.523.104-.801 1.765.637 1.84.726.828 1.243 1.412 2.633 1.72 4.095.831 3.07 1.484 6.156 2.181 9.271.531 2.544.075 5.196-1.276 7.417-2.833 5.933 9.42 14.7 9.42 14.7s-.608 6.735 4.539 6.735c1.144-.016 2.283-.155 3.397-.416 2.892-.652 5.014-1.483 9.953 1.973.773.558 1.61 1.021 2.492 1.38 4.614 1.839 6.112-2.196 7.892-2.196 2.062 0-.564 7.788-8.885 6.928z" fill="url(#a)"/><path d="m36.257 25.907c-.057-.054-.122-.099-.193-.134 0 0 .119-.089.193.134z" fill="#9ae3f7"/><path d="m44.92 51.021c-.882-.359-1.719-.822-2.492-1.38-4.939-3.427-7.061-2.625-9.953-1.973-.742-2.24-.327-5.533 1.483-11.57 2.284-7.684 2.433-9.687 2.314-10.176.579.445 2.285 2.462 2.507 9.983.282 9.093 3.071 8.707 5.756 12.149.722.817.875 1.992.385 2.967z" fill="#9ae3f7"/><path d="m10.491 31.01c2.925 2.308 5.569 4.952 7.877 7.877 2.685 3.797 3.159 8.722.845 8.811s-8.856-10.844-8.722-16.688z" fill="#9ae3f7"/></g><g stroke="url(#b)"><g fill="none" stroke-width="2.97"><path d="m4.068 39.272-2.477-10.398"/><path d="m62.409 28.874-2.477 10.398"/><path d="m32.608 39.272 3.145-12.401c.885-3.486 3.707-6.146 7.239-6.823"/><path d="m50.483 21.946c2.832 2.26 4.079 5.967 3.189 9.479l-2.759 10.873"/><path d="m42.992 20.062c.976-.199 1.98-.23 2.967-.089"/><path d="m45.098 12.052 1.736-6.823c.217-.867 1.096-1.392 1.962-1.175.003.001.007.002.011.003l4.287 1.083c.866.217 1.392 1.095 1.174 1.961-.001.004-.001.008-.002.011l-3.768 14.834"/><path d="m20.741 20.048c3.572.641 6.442 3.307 7.343 6.823l3.041 12.416"/><path d="m13.324 21.946c-2.859 2.242-4.136 5.953-3.263 9.479l2.729 10.755"/><path d="m17.774 19.973c.987-.141 1.991-.11 2.967.089"/><path d="m13.25 21.946-3.768-14.834c-.223-.864.296-1.746 1.161-1.97.004-.001.007-.001.011-.002l4.287-1.083c.865-.224 1.747.296 1.97 1.161.001.003.002.007.003.011l2.344 9.078"/><path d="m59.932 39.272-2.596 10.903c-1.299 5.46-6 9.44-11.6 9.82h-.86-25.752c-.385 0-.771 0-1.142 0-5.486-.5-10.042-4.446-11.318-9.805l-2.596-10.903c2.16.063 4.276.621 6.186 1.632l.667.371c.599.328 1.224.606 1.869.83 1.575.592 3.243.893 4.925.89 2.382.005 4.728-.587 6.824-1.72l.652-.371c.481-.27.976-.513 1.484-.727l.83-.297c.487-.162.982-.296 1.484-.4l.652-.06.579-.089c.307 0 .618-.029.934-.089h-.029 1.75c.297 0 .594.03.89.089l.638.089.43.089.697.149.816.252c.282.089.549.178.801.282.551.211 1.086.458 1.602.741l.653.371c2.097 1.13 4.442 1.722 6.824 1.721 1.575.003 3.139-.257 4.628-.771.748-.253 1.473-.57 2.166-.95l.682-.371"/><path d="m27.594 39.955c-.281.089-.549.178-.83.296"/></g><path d="m44.96 14.86c.58.579.58 1.519 0 2.098-.579.579-1.518.579-2.097 0-.58-.579-.58-1.519 0-2.098.579-.579 1.518-.579 2.097 0" fill="#536ef2" fill-rule="nonzero" stroke-linecap="butt" stroke-miterlimit="1.41421"/></g></svg>