<svg clip-rule="evenodd" fill-rule="evenodd" stroke-linejoin="round" stroke-miterlimit="1.41421" width="180" height="180" viewBox="0 0 196 196" xmlns="http://www.w3.org/2000/svg"><g fill-rule="nonzero"><path d="m97.83 0h.04c10.25 10.42 20.25 21.08 30.5 31.5 2.25 2.12 4.04 5.14 7.26 5.83 15.95 3.83 31.92 7.64 47.86 11.53-4.33 14.65-8.55 29.34-12.92 43.98-.68 2.4-1.76 4.95-.77 7.43 4.63 15.55 9.24 31.1 13.8 46.66-15.83 3.86-31.66 7.75-47.51 11.55-2.92.47-4.67 3.01-6.62 4.95-10.47 10.81-20.81 21.77-31.3 32.57h-.04c-10.28-10.44-20.3-21.13-30.58-31.58-2.21-2.09-3.98-5.08-7.17-5.74-15.96-3.85-31.93-7.65-47.87-11.54 4.25-14.38 8.4-28.79 12.68-43.17.71-2.66 2.07-5.45 1.02-8.22-4.65-15.54-9.21-31.11-13.84-46.66 15.92-3.92 31.85-7.8 47.78-11.63 2.81-.53 4.47-3.04 6.39-4.9 10.48-10.81 20.8-21.76 31.29-32.56m-31.79 43.32c-14.61 4.02-29.56 6.94-44.15 11.11l-.53-.3c4.21 13.87 8.23 27.8 12.39 41.68 1.11 2.41-.15 4.87-.77 7.22-3.41 11.69-6.94 23.37-10.24 35.09-.44 1.3-.85 2.61-1.23 3.92 14.24 3.12 28.34 6.84 42.56 10.08 1.45.2 2.71.97 3.67 2.07 9.93 10.4 19.99 20.67 29.99 31l-.06.62c1.32-1.06 2.59-2.17 3.74-3.42 8.65-9.34 17.68-18.32 26.39-27.61.82-.78 1.55-1.7 2.58-2.21 14.62-3.84 29.48-6.86 44.01-11.03l.28.16c-4.39-13.9-8.3-27.95-12.52-41.9-.91-2.26.29-4.53.84-6.72 3.86-13.06 7.69-26.14 11.5-39.22-1.16-.16-2.31-.31-3.46-.45-13.63-3.73-27.56-6.49-41.19-10.21-10.85-10.75-21.3-21.94-32.01-32.85-10.49 11.08-21.05 22.14-31.79 32.97z"/><path d="m51.24 70.09c8.36-14.876 23.94-25.417 40.82-27.078 3.9-.344 7.8.506 11.71.142 16.95 1.255 32.54 12.071 40.95 26.866 5.75 10.157 8.25 22.248 6.33 33.863-2.61 13.458-9.87 26.015-20.75 34.299-12.64 9.853-29.81 13.488-45.27 9.407-15.42-3.777-28.73-15.038-35.46-29.539-4.52-9.732-6.59-20.891-4.37-31.524 1.15-5.752 3.18-11.332 6.04-16.436m4.34 11.95c-3.11 8.638-3.15 18.562.71 26.967 3.67 7.97 10.45 14.319 18.37 17.843.3 2.694-.16 5.61 1.07 8.112 1.37 2.136 4.01 2.45 6.31 2.319 11.71-.152 23.43.192 35.13-.173 4.67-1.043 3.91-6.633 4.18-10.268 12.53-5.387 22.01-18.491 21.29-32.557-.4-23.605-22.62-43.514-45.63-42.572-18.21.233-35.41 12.982-41.43 30.329z"/><path d="m79.241 54.932c23.255-10.247 52.793 2.469 61.459 24.688 11.23 23.267-3.791 53.603-29.971 60.637-23.688 7.643-51.059-7.169-57.848-29.321-7.872-21.441 4.044-47.109 26.36-56.004z"/><path d="m68.321 62.417c.094-.186.267-.424.506-.304.679.262.998.985 1.346 1.572.694 1.362 1.299 2.768 2.001 4.126 1.112 2.197 2.406 4.307 3.932 6.241 2.604-.997 5.416-1.367 8.193-1.3 3.086.095 6.179.555 9.094 1.595.218.072.434.145.657.199.036.032.108.096.144.129l-.032.049c-.172.087-.381.177-.409.395-1.153.902-2.19 1.965-2.998 3.19-.636.967-1.118 2.036-1.397 3.16-.55 2.322-.198 4.762.518 7.008 1.105 3.388 3.04 6.451 5.304 9.181 2.675 3.2 5.864 5.958 9.356 8.231 5.856 3.83 12.633 6.257 19.605 6.918l-.027.112c-.276 1.168-.67 2.307-1.173 3.395 1.41.007 2.835.629 3.708 1.752.543.685.77 1.551.854 2.408.082 1.274-.631 2.544-1.765 3.131-.455.237-.951.391-1.458.461-1.964.219-4.048-.973-4.704-2.866-1.824 1.901-4.145 3.268-6.604 4.181 1.564.639 3.139 1.272 4.771 1.72 1.124.33 2.294.028 3.386-.279.714-.185 1.453-.5 2.197-.277.222.118.462.279.505.548.085.474-.169.913-.38 1.317.507-.202 1.055-.368 1.605-.254.513.222.582.937.261 1.345-.253.346-.672.497-1.06.636.485.101 1.106.267 1.26.808.093.561-.514.859-.956 1.003-.298.089-.613.136-.923.091-1.343-.156-2.623-.639-3.854-1.179-1.27-.552-2.515-1.168-3.817-1.642-.107.32-.239.632-.402.929.436-.14.91-.285 1.367-.152.364.12.447.588.316.907-.183.382-.591.562-.952.735.314.093.685.163.876.462.124.181.06.409.021.608-.926.701-2.182.388-3.202.09-1.414-.544-2.67-1.415-4.033-2.064-1.433-.693-2.904-1.302-4.39-1.869-1.607-.636-3.292-1.058-4.884-1.733-.633-.22-1.187-.662-1.866-.739-6.149-.828-12.065-2.926-17.62-5.646-3.349-1.666-6.584-3.585-9.55-5.873-3.379-2.633-6.492-5.751-8.503-9.575-1.431-2.685-2.245-5.705-2.273-8.752-.094-2.802.241-5.632 1.143-8.292 1.043-3.116 2.809-5.986 5.116-8.324.116-1.824.194-3.648.253-5.473.058-1.518.101-3.038.158-4.556.053-1.297.105-2.594.197-3.888.064-.838.139-1.676.28-2.504.068-.372.143-.747.302-1.092m38.105 64.266c1.274.586 2.563 1.14 3.888 1.602.538.178 1.085.365 1.658.381.672.033 1.336-.105 2-.192-1.943-.658-3.88-1.34-5.845-1.929-.568-.016-1.129.139-1.701.138z" fill="#febc22"/></g><path d="m75.099 79.12c4.577-2.525 9.834-1.781 11.731 1.659s-.28 8.282-4.857 10.806c-4.578 2.524-9.834 1.781-11.731-1.659s.279-8.282 4.857-10.806z" fill="#fff"/><path d="m107.002 70.778c2.805.051 5.596.463 8.327 1.096 4.025.974 7.978 2.384 11.55 4.502-.427-.041-.853-.091-1.28-.127-1.93-.21-3.866-.401-5.806-.459-.938-.024-1.884-.025-2.81.139-.344.079-.739.163-.959.464-.189.291.105.582.338.727.748.452 1.606.672 2.445.885 2.181.511 4.42.736 6.654.839 2.648.101 5.33.038 7.926-.543 1.205-.264 2.393-.68 3.429-1.36-.13 1.309-.603 2.604-1.478 3.602-1.151 1.344-2.815 2.109-4.488 2.586-2.505.681-5.137.744-7.713.557.09.411.337.766.663 1.028.736.609 1.597 1.047 2.456 1.454 2.653 1.211 5.462 2.038 8.286 2.744 3.453.851 6.968 1.449 10.506 1.788.135.018.27.035.407.053-.042.17-.084.341-.132.51-.296.8-1.036 1.31-1.777 1.661-1.422.64-2.988.852-4.527.992-1.714.141-3.432.036-5.144-.049.37.589 1.045.845 1.605 1.211.652.421 1.384.751 1.919 1.327.349.336.13.881-.153 1.184-.579.567-1.414.74-2.187.859-1.474.202-2.963.082-4.439-.001.207.642.729 1.097 1.223 1.525.963.8 2.041 1.457 3.168 2.002 1.033.492 2.125.882 3.26 1.049.122.018.245.037.368.058-.142.636-.489 1.201-.9 1.7-.61.735-1.364 1.335-2.154 1.866-.9.578-1.861 1.063-2.867 1.429-1.529.55-3.132.865-4.749.994-1.958.118-3.92-.037-5.855-.341-5.076-.768-9.991-2.516-14.441-5.067-3.64-2.11-6.988-4.736-9.84-7.833-2.255-2.455-4.225-5.207-5.578-8.265-.791-1.857-1.395-3.851-1.32-5.89.056-1.117.29-2.226.692-3.27.359-.881.834-1.72 1.433-2.461.339-.432.8-.754 1.102-1.219l.032-.049c.25-.135.466-.326.689-.501 1.218-.946 2.621-1.626 4.069-2.143 2.588-.871 5.326-1.243 8.05-1.253z" fill="#febc22" fill-rule="nonzero"/><path d="m99.526 73.934c3.352-1.383 6.92-.454 7.963 2.073 1.042 2.527-.833 5.702-4.185 7.085-3.352 1.382-6.92.454-7.962-2.073-1.043-2.528.832-5.702 4.184-7.085z" fill="#fff"/><g fill-rule="nonzero"><path d="m68.887 62.573c.354-.158 2.699 5.967 2.814 7.351.06.723-1.84 1.692-2.124.949-.469-1.225-1.044-8.141-.69-8.3z" fill="#fffef4"/><path d="m66.04 43.32c10.74-10.83 21.3-21.89 31.79-32.97.182 11.169.5 22.348.073 33.51-19.004.13-37.249 10.677-46.663 27.22-9.83-5.47-19.51-11.19-29.35-16.65 14.59-4.17 29.54-7.09 44.15-11.11" fill="#fff"/><path d="m21.36 54.13.53.3c9.84 5.46 19.52 11.18 29.35 16.65-2.86 5.04-4.89 10.55-6.04 16.23-2.22 10.5-.15 21.52 4.37 31.13 6.73 14.32 20.04 25.44 35.46 29.17 15.46 4.03 32.63.44 45.27-9.29 10.88-8.18 18.14-20.58 20.75-33.87.59 7.32-2.36 14.33-5.59 20.74-9.16 17.08-28.07 27.97-47.37 28.02-12.8-.21-25.59-4.63-35.31-13.05-5-4.15-8.9-9.41-12.29-14.91-9.41 5.09-18.51 10.73-27.9 15.85.04-.75.11-2.23.15-2.98 3.3-11.72 6.83-23.4 10.24-35.09.62-2.35 1.88-4.81.77-7.22-4.16-13.88-8.18-27.81-12.39-41.68z" fill="#ffe25b"/><path d="m97.851 10.33c10.082 10.52 20.246 20.958 30.341 31.465.699.65 1.311 1.537 2.33 1.699 14.505 3.555 29.053 6.94 43.546 10.551-9.651 5.853-19.552 11.288-29.297 16.985-5.604-9.826-14.374-17.797-24.7-22.407-6.953-3.161-14.58-4.691-22.201-4.748-.013-11.181-.082-22.363-.019-33.545z" fill="#ffe35b"/><path d="m171.03 53.41c1.15.14 2.3.29 3.46.45-3.81 13.08-7.64 26.16-11.5 39.22-.55 2.19-1.75 4.46-.84 6.72 4.22 13.95 8.13 28 12.52 41.9l-.28-.16c-9.67-5.4-19.18-11.1-28.93-16.35 3.23-6.41 6.18-13.42 5.59-20.74 1.92-11.47-.58-23.41-6.33-33.44 9.49-5.53 19.09-10.89 28.54-16.49-.74-.38-1.48-.75-2.23-1.11z" fill="#ffbb20"/><path d="m22.59 141.1c9.39-5.12 18.49-10.76 27.9-15.85 3.39 5.5 7.29 10.76 12.29 14.91 9.72 8.42 22.51 12.84 35.31 13.05-.06 10.66.57 21.36-.36 31.98-10-10.33-20.06-20.6-29.99-31-.96-1.1-2.22-1.87-3.67-2.07-14.22-3.24-28.32-6.96-42.56-10.08.38-1.31.79-2.62 1.23-3.92-.04.75-.11 2.23-.15 2.98z" fill="#ffbb20"/><path d="m145.46 125.19c9.75 5.25 19.26 10.95 28.93 16.35-14.53 4.17-29.39 7.19-44.01 11.03-1.03.51-1.76 1.43-2.58 2.21-8.71 9.29-17.74 18.27-26.39 27.61-1.15 1.25-2.42 2.36-3.74 3.42l.06-.62c.93-10.62.3-21.32.36-31.98 19.3-.05 38.21-10.94 47.37-28.02z" fill="#c85e40"/></g></svg>