<svg clip-rule="evenodd" fill-rule="evenodd" stroke-linejoin="round" stroke-miterlimit="1.41421" width="180" height="180" viewBox="0 0 800 800" xmlns="http://www.w3.org/2000/svg"><path d="m221.316 90.51c36.621-53.284 104.257-90.51 178.684-90.51s142.063 37.226 178.684 90.51c64.456 5.072 130.512 45.034 167.726 109.49s38.793 141.643 10.958 200c27.835 58.357 26.256 135.544-10.958 200s-103.27 104.418-167.726 109.49c-36.621 53.284-104.257 90.51-178.684 90.51s-142.063-37.226-178.684-90.51c-64.456-5.072-130.512-45.034-167.726-109.49s-38.793-141.643-10.958-200c-27.835-58.357-26.256-135.544 10.958-200s103.27-104.418 167.726-109.49z" fill="#2554c2"/><g transform="matrix(.998672 0 0 .998672 7.0498 32.2022)"><path d="m632.129 376.465c-20.594-1.311-35.286-8.739-50.286-22.434 42.172-.588 40.853-12.502 40.853-12.502s1.456-5.461-10.376-9.789c-5.232-1.913-10.467-4.902-15.013-7.3 4.14.196 63.86.17 68.701-23.569-34.723-1.761-74.01-3.05-103.153-13.191-10.756-3.742-24.964-7.855-32.995-17.079 9.251-.09 24.958-.887 38.143-5.412 14.58-5.004 28.612-11.623 35.657-25.395 4.028-7.875 3.446-15.844 3.446-15.844s-9.452 6.207-19.701 9.732c-23.112 7.951-48.08 7.691-57.737 7.483-10.407-.225-45.803-1.33-45.383-9.41.38-7.317 31.278-7.404 37.436-7.369 8.409.048 16.819.387 25.228.235-19.462-10.192-41.866-15.176-63.213-19.166-32.502-6.075-66.826-5.146-97.828 6.7-13.342 5.098-32.142 16.15-40.708 34.292-19.162 40.581 13.421 84.942 43.021 110.27 35.106 30.04 65.115 42.612 93.256 51.792 28.141 9.179 85.83 20.746 125.654-2.531 26.571-15.531 24.998-29.513 24.998-29.513z" fill="#fff"/><path d="m567.142 533.516c-2.921-3.182-5.827.218-10.59 1.145-.697.135 2.16-3.475 1.235-6.528-1.214-4.006-4.224-4.57-7.74-4.181-6.635.733-17.051 7.842-24.203 7.857-9.765.02-29.405-6.591-32.809-8.983-3.535-2.484 5.689-.181 21.638-14.14 4.87-4.262 14.587-14.14 14.587-14.14s3.868 11.751 23.79 14.937 31.964-25.208 13.506-39.628c-8.364-6.535-20.969-5.216-19.898-6.434 3.254-3.699 4.988-20.681 4.461-20.856-2.016-.67-14.855.934-44.979-4.631-39.368-7.272-77.587-24.825-109.746-48.318-27.912-20.391-51.689-53.332-61.164-74.052-3.373-7.375-5.518-19.846-6.188-28.237-1.147-14.359 5.733-39.466 25.12-54.787 2.153-1.701-24.568-6.738-44.217-6.746-41.209-.017-60.708 13.304-62.311 11.913-27.571-23.932-42.242-69.521-50.702-66.085-8.962 3.639 1.337 105.138-.051 107.179-1.387 2.041-7.747 9.652-10.821 14.994-7.316 12.718-17.57 30.913-17.73 66.524-.162 36.09 12.559 108.988 146.46 156.123 52.892 18.619 96.721 19.674 96.721 19.674s20.4 6.471 31.77 8.914c11.856 2.547 35.864 11.261 35.864 11.261s26.837 14.647 40.209 9.064c5.062-2.113 1.163-6.547-3.88-7.625-2.455-.525 5.185-2.152 5.079-6.681-.131-5.602-11.176-.538-11.176-.538s1.026-7.634 3.443-6.88c16.78 5.233 26.64 11.545 46.69 12.704 3.199.185 9.06-.701 9.229-6.614.101-3.535-5.51-5.132-5.51-5.132-.193.324 9.011-5.519 3.913-11.073z" fill="#fff"/><path d="m455.446 533.939c-3.472-.864 4.781-.929 8.659-1.899 1.654-.414 14.343 5.149 35.056 8.272 3.893.587-11.171 2.356-11.587 2.278-17.543-3.291-25.313-6.957-32.128-8.651z" fill="#2554c1"/></g></svg>