<svg clip-rule="evenodd" fill-rule="evenodd" stroke-linejoin="round" stroke-miterlimit="1.41421" width="180" height="180" viewBox="0 0 31 31" xmlns="http://www.w3.org/2000/svg" xmlns:xlink="http://www.w3.org/1999/xlink"><linearGradient id="a"><stop offset="0" stop-color="#fed040"/><stop offset="1" stop-color="#f15a2a"/></linearGradient><linearGradient id="b" gradientTransform="matrix(-25.2438 -1.86712 -1.86712 25.2438 25.7509 7.4924)" gradientUnits="userSpaceOnUse" x1="0" x2="1" xlink:href="#a" y1="0" y2="0"/><linearGradient id="c" gradientTransform="matrix(-23.6984 -8.89653 -8.89653 23.6984 26.8857 13.8099)" gradientUnits="userSpaceOnUse" x1="0" x2="1" xlink:href="#a" y1="0" y2="0"/><linearGradient id="d" gradientTransform="matrix(-20.2354 -15.2079 -15.2079 20.2354 26.1959 20.1916)" gradientUnits="userSpaceOnUse" x1="0" x2="1" xlink:href="#a" y1="0" y2="0"/><linearGradient id="e" gradientTransform="matrix(-15.1361 -20.2891 -20.2891 15.1361 23.7376 26.121)" gradientUnits="userSpaceOnUse" x1="0" x2="1" xlink:href="#a" y1="0" y2="0"/><linearGradient id="f" gradientTransform="matrix(-8.81306 -23.7295 -23.7295 8.81306 19.7097 31.1187)" gradientUnits="userSpaceOnUse" x1="0" x2="1" xlink:href="#a" y1="0" y2="0"/><path d="m10.55 12.38c-.377-.268-.736-.566-1.071-.884-1.249-1.188-2.9-1.968-4.753-2.105-1.668-.123-3.251.293-4.579 1.1 2.473-4.148 8.172-3.319 15.656-2.077 8.545 1.418 10.395-8.327 10.395-8.327.243 12.143-8.947 17.07-15.648 12.293z" fill="url(#b)"/><path d="m10.923 14.221c-.286-.364-.547-.75-.779-1.15-.864-1.491-2.229-2.704-3.968-3.357-1.565-.588-3.202-.635-4.703-.234 3.54-3.285 8.775-.885 15.608 2.414 7.8 3.767 12.318-5.064 12.318-5.064-3.185 11.72-13.391 13.861-18.476 7.391z" fill="url(#c)"/><path d="m10.763 16.093c-.172-.43-.314-.874-.423-1.323-.41-1.674-1.378-3.222-2.863-4.338-1.337-1.005-2.894-1.51-4.448-1.548 4.322-2.156 8.67 1.621 14.298 6.709 6.424 5.81 13.246-1.391 13.246-1.391-6.356 10.349-16.752 9.531-19.81 1.891z" fill="url(#d)"/><path d="m10.083 17.844c-.044-.46-.055-.927-.034-1.389.078-1.721-.415-3.479-1.526-4.968-1-1.341-2.352-2.264-3.832-2.738 4.754-.852 7.863 3.996 11.83 10.463 4.53 7.383 13.103 2.393 13.103 2.393-9.012 8.142-18.757 4.431-19.541-3.761z" fill="url(#e)"/><path d="m8.937 19.332c.087-.454.208-.905.358-1.342.56-1.63.582-3.455-.065-5.197-.582-1.568-1.62-2.834-2.907-3.705 4.802.52 6.421 6.048 8.407 13.37 2.268 8.36 11.899 5.984 11.899 5.984-10.94 5.276-19.246-1.028-17.692-9.11z" fill="url(#f)"/></svg>