<svg clip-rule="evenodd" fill-rule="evenodd" stroke-linecap="round" viewBox="0 0 400 120" width="400" height="120" xmlns="http://www.w3.org/2000/svg"><path d="m16.5 8.5c.3.1.4.5.2.8-.1.1-.1.2-.2.2l-11.4 7c-.5.3-.8.1-.8-.5v-14c0-.5.4-.8.8-.5z" fill="#fff" fill-rule="nonzero"/><path d="m24 1h2.2c.6 0 1 .4 1 1v14c0 .6-.4 1-1 1h-2.2c-.6 0-1-.4-1-1v-14c0-.5.4-1 1-1zm9.8 0h2.2c.6 0 1 .4 1 1v14c0 .6-.4 1-1 1h-2.2c-.6 0-1-.4-1-1v-14c0-.5.4-1 1-1z" fill="#fff" fill-rule="nonzero"/><path d="m81 1.4c0-.6.4-1 1-1h5.4c.6 0 .7.3.3.7l-6 6c-.4.4-.7.3-.7-.3zm0 15.8c0 .6.4 1 1 1h5.4c.6 0 .7-.3.3-.7l-6-6c-.4-.4-.7-.3-.7.3zm17.8-15.8c0-.6-.4-1-1-1h-5.4c-.6 0-.7.3-.3.7l6 6c.4.4.7.3.7-.3zm0 15.8c0 .6-.4 1-1 1h-5.4c-.6 0-.7-.3-.3-.7l6-6c.4-.4.7-.3.7.3z" fill="#fff" fill-rule="nonzero"/><path d="m112.7 5c0 .6.4 1 1 1h4.1c.6 0 .7-.3.3-.7l-4.7-4.7c-.4-.4-.7-.3-.7.3zm-7.1 1c.6 0 1-.4 1-1v-4.1c0-.6-.3-.7-.7-.3l-4.7 4.7c-.4.4-.3.7.3.7zm1 7.1c0-.6-.4-1-1-1h-4.1c-.6 0-.7.3-.3.7l4.7 4.7c.4.4.7.3.7-.3zm7.1-1c-.6 0-1 .4-1 1v4.1c0 .5.3.7.7.3l4.7-4.7c.4-.4.3-.7-.3-.7z" fill="#fff" fill-rule="nonzero"/><path d="m67 5.8c-.5.4-1.2.6-1.8.6h-3.2c-.6 0-1 .4-1 1v5.7c0 .6.4 1 1 1h4.2c.3.2.5.4.8.6l3.5 2.6c.4.3.8.1.8-.4v-13.4c0-.5-.4-.7-.8-.4z" fill="#fff" fill-rule="nonzero"/><path d="m73.9 2.5s3.9-.8 3.9 7.7-3.9 7.8-3.9 7.8" fill="none" stroke="#fff" stroke-width="1.5"/><path d="m72.6 6.4s2.6-.4 2.6 3.8-2.6 3.9-2.6 3.9" fill="none" stroke="#fff" stroke-width="1.5"/><path d="m47 5.8c-.5.4-1.2.6-1.8.6h-3.2c-.6 0-1 .4-1 1v5.7c0 .6.4 1 1 1h4.2c.3.2.5.4.8.6l3.5 2.6c.4.3.8.1.8-.4v-13.4c0-.5-.4-.7-.8-.4z" fill="#fff" fill-rule="nonzero"/><path d="m52.8 7 5.4 5.4m-5.4 0 5.4-5.4" fill="none" stroke="#fff" stroke-width="2"/><path d="m128.7 8.6c-6.2-4.2-6.5 7.8 0 3.9m6.5-3.9c-6.2-4.2-6.5 7.8 0 3.9" fill="none" stroke="#fff" stroke-linecap="butt"/><path d="m122.2 3.4h15.7v13.1h-15.7zm-1.4-1.4v15.7h18.3v-15.7z" fill="#fff" fill-rule="nonzero"/><path d="m143.2 3h14c1.1 0 2 .9 2 2v10c0 1.1-.9 2-2 2h-14c-1.1 0-2-.9-2-2v-10c0-1.1.9-2 2-2z" fill="#fff" fill-rule="nonzero"/><path d="m146.4 13.8c-.8 0-1.6-.4-2.1-1-1.1-1.4-1-3.4.1-4.8.5-.6 2-1.7 4.6.2l-.6.8c-1.4-1-2.6-1.1-3.3-.3-.8 1-.8 2.4-.1 3.5.7.9 1.9.8 3.4-.1l.5.9c-.7.5-1.6.7-2.5.8zm7.5 0c-.8 0-1.6-.4-2.1-1-1.1-1.4-1-3.4.1-4.8.5-.6 2-1.7 4.6.2l-.5.8c-1.4-1-2.6-1.1-3.3-.3-.8 1-.8 2.4-.1 3.5.7.9 1.9.8 3.4-.1l.5.9c-.8.5-1.7.7-2.6.8z" fill="#231f20" fill-rule="nonzero"/><path d="m60.3 77c.6.2.8.8.6 1.4-.1.3-.3.5-.6.6l-30.3 17.5c-1 .6-1.7.1-1.7-1v-35c0-1.1.8-1.5 1.7-1z" fill="#fff" fill-opacity=".760784" fill-rule="nonzero" transform="matrix(.8 0 0 .799684 .5 8.31313)"/><path d="m40.242 41.501.242.002.242.004.241.005.241.007.241.009.24.009.24.012.239.013.239.014.239.016.238.017.238.019.237.021.237.021.236.024.236.024.236.027.235.027.235.029.234.031.234.032.234.033.232.035.233.037.232.037.231.039.231.041.231.042.23.043.229.045.229.046.229.048.228.049.228.05.227.052.226.053.226.054.225.056.225.057.225.059.223.06.224.061.222.062.222.064.222.065.221.067.22.068.22.069.219.07.219.072.218.073.218.075.217.075.216.077.215.079.216.079.214.081.214.082.213.083.212.085.212.086.212.087.21.088.21.09.209.091.209.092.208.093.207.095.207.096.206.097.205.098.205.099.204.101.203.101.202.103.202.105.201.105.2.106.2.108.199.109.198.11.197.111.197.113.196.113.195.115.195.116.193.116.193.119.192.119.192.12.19.121.19.123.189.124.188.124.188.126.187.127.185.128.185.129.185.131.183.131.183.132.181.134.181.134.18.136.18.136.178.138.177.139.177.139.176.141.175.142.174.143.173.143.173.145.171.146.171.147.169.148.169.149.168.15.167.151.166.151.165.153.164.154.164.155.162.156.161.156.161.158.159.159.159.159.158.161.156.161.156.162.155.164.154.164.153.165.151.166.151.167.15.168.149.169.148.169.147.171.146.171.145.173.143.173.143.174.142.175.141.176.139.177.139.177.138.178.136.18.136.18.134.181.134.181.132.183.131.183.131.185.129.185.128.185.127.187.126.188.124.188.124.189.123.19.121.19.12.192.119.192.119.193.116.193.116.195.115.195.113.196.113.197.111.197.11.198.109.199.108.2.106.2.105.201.105.202.103.202.101.203.101.204.099.205.098.205.097.206.096.207.095.207.093.208.092.209.091.209.09.21.088.21.087.212.086.212.085.212.083.213.082.214.081.214.079.216.079.215.077.216.075.217.075.218.073.218.072.219.07.219.069.22.068.22.067.221.065.222.064.222.062.222.061.224.06.223.059.225.057.225.056.225.054.226.053.226.052.227.05.228.049.228.048.229.046.229.045.229.043.23.042.231.041.231.039.231.037.232.037.233.035.232.033.234.032.234.031.234.029.235.027.235.027.236.024.236.024.236.021.237.021.237.019.238.017.238.016.239.014.239.013.239.012.24.009.24.009.241.007.241.005.241.004.242.002.242.001.242-.001.242-.002.242-.004.242-.005.241-.007.241-.009.241-.009.24-.012.24-.013.239-.014.239-.016.239-.017.238-.019.238-.021.237-.021.237-.024.236-.024.236-.027.236-.027.235-.029.235-.031.234-.032.234-.033.234-.035.232-.037.233-.037.232-.039.231-.041.231-.042.231-.043.23-.045.229-.046.229-.048.229-.049.228-.05.228-.052.227-.053.226-.054.226-.056.225-.057.225-.059.225-.06.223-.061.224-.062.222-.064.222-.065.222-.067.221-.068.22-.069.22-.07.219-.072.219-.073.218-.075.218-.075.217-.077.216-.079.215-.079.216-.081.214-.082.214-.083.213-.085.212-.086.212-.087.212-.088.21-.09.21-.091.209-.092.209-.093.208-.095.207-.096.207-.097.206-.098.205-.099.205-.101.204-.101.203-.103.202-.105.202-.105.201-.106.2-.108.2-.109.199-.11.198-.111.197-.113.197-.113.196-.115.195-.116.195-.116.193-.119.193-.119.192-.12.192-.121.19-.123.19-.124.189-.124.188-.126.188-.127.187-.128.185-.129.185-.131.185-.131.183-.132.183-.134.181-.134.181-.136.18-.136.18-.138.178-.139.177-.139.177-.141.176-.142.175-.143.174-.143.173-.145.173-.146.171-.147.171-.148.169-.149.169-.15.168-.151.167-.151.166-.153.165-.154.164-.155.164-.156.162-.156.161-.158.161-.159.16-.159.158-.161.158-.161.156-.162.156-.164.155-.164.154-.165.153-.166.151-.167.151-.168.15-.169.149-.169.148-.171.147-.171.146-.173.145-.173.143-.174.143-.175.142-.176.141-.177.139-.177.139-.178.138-.18.136-.18.136-.181.134-.181.134-.183.132-.183.131-.185.131-.185.129-.185.128-.187.127-.188.126-.188.124-.189.124-.19.123-.19.121-.192.12-.192.119-.193.119-.193.116-.195.116-.195.115-.196.113-.197.113-.197.111-.198.11-.199.109-.2.108-.2.106-.201.105-.202.105-.202.103-.203.101-.204.101-.205.099-.205.098-.206.097-.207.096-.207.095-.208.093-.209.092-.209.091-.21.09-.21.088-.212.087-.212.086-.212.085-.213.083-.214.082-.214.081-.216.079-.215.079-.216.077-.217.075-.218.075-.218.073-.219.072-.219.07-.22.069-.22.068-.221.067-.222.065-.222.064-.222.062-.224.061-.223.06-.225.059-.225.057-.225.056-.226.054-.226.053-.227.052-.228.05-.228.049-.229.048-.229.046-.229.045-.23.043-.231.042-.231.041-.231.039-.232.037-.233.037-.232.035-.234.033-.234.032-.234.031-.235.029-.235.027-.236.027-.236.024-.236.024-.237.021-.237.021-.238.019-.238.017-.239.016-.239.014-.239.013-.24.012-.24.009-.241.009-.241.007-.241.005-.242.004-.242.002-.242.001-.242-.001-.242-.002-.242-.004-.241-.005-.241-.007-.241-.009-.24-.009-.24-.012-.239-.013-.239-.014-.239-.016-.238-.017-.238-.019-.237-.021-.237-.021-.236-.024-.236-.024-.236-.027-.235-.027-.235-.029-.234-.031-.234-.032-.234-.033-.232-.035-.233-.037-.232-.037-.231-.039-.231-.041-.231-.042-.23-.043-.229-.045-.229-.046-.229-.048-.228-.049-.228-.05-.227-.052-.226-.053-.226-.054-.225-.056-.225-.057-.225-.059-.223-.06-.224-.061-.222-.062-.222-.064-.222-.065-.221-.067-.22-.068-.22-.069-.219-.07-.219-.072-.218-.073-.218-.075-.217-.075-.216-.077-.215-.079-.216-.079-.214-.081-.214-.082-.213-.083-.212-.085-.212-.086-.212-.087-.21-.088-.21-.09-.209-.091-.209-.092-.208-.093-.207-.095-.207-.096-.206-.097-.205-.098-.205-.099-.204-.101-.203-.101-.202-.103-.202-.105-.201-.105-.2-.106-.2-.108-.199-.109-.198-.11-.197-.111-.197-.113-.196-.113-.195-.115-.195-.116-.193-.116-.193-.119-.192-.119-.192-.12-.19-.121-.19-.123-.189-.124-.188-.124-.188-.126-.187-.127-.185-.128-.185-.129-.185-.131-.183-.131-.183-.132-.181-.134-.181-.134-.18-.136-.18-.136-.178-.138-.177-.139-.177-.139-.176-.141-.175-.142-.174-.143-.173-.143-.173-.145-.171-.146-.171-.147-.169-.148-.169-.149-.168-.15-.167-.151-.166-.151-.165-.153-.164-.154-.164-.155-.162-.156-.161-.156-.161-.158-.16-.158-.158-.16-.158-.161-.156-.161-.156-.162-.155-.164-.154-.164-.153-.165-.151-.166-.151-.167-.15-.168-.149-.169-.148-.169-.147-.171-.146-.171-.145-.173-.143-.173-.143-.174-.142-.175-.141-.176-.139-.177-.139-.177-.138-.178-.136-.18-.136-.18-.134-.181-.134-.181-.132-.183-.131-.183-.131-.185-.129-.185-.128-.185-.127-.187-.126-.188-.124-.188-.124-.189-.123-.19-.121-.19-.12-.192-.119-.192-.119-.193-.116-.193-.116-.195-.115-.195-.113-.196-.113-.197-.111-.197-.11-.198-.109-.199-.108-.2-.106-.2-.105-.201-.105-.202-.103-.202-.101-.203-.101-.204-.099-.205-.098-.205-.097-.206-.096-.207-.095-.207-.093-.208-.092-.209-.091-.209-.09-.21-.088-.21-.087-.212-.086-.212-.085-.212-.083-.213-.082-.214-.081-.214-.079-.216-.079-.215-.077-.216-.075-.217-.075-.218-.073-.218-.072-.219-.07-.219-.069-.22-.068-.22-.067-.221-.065-.222-.064-.222-.062-.222-.061-.224-.06-.223-.059-.225-.057-.225-.056-.225-.054-.226-.053-.226-.052-.227-.05-.228-.049-.228-.048-.229-.046-.229-.045-.229-.043-.23-.042-.231-.041-.231-.039-.231-.037-.232-.037-.233-.035-.232-.033-.234-.032-.234-.031-.234-.029-.235-.027-.235-.027-.236-.024-.236-.024-.236-.021-.237-.021-.237-.019-.238-.017-.238-.016-.239-.014-.239-.013-.239-.012-.24-.009-.24-.009-.241-.007-.241-.005-.241-.004-.242-.002-.242-.001-.242.001-.242.002-.242.004-.242.005-.241.007-.241.009-.241.009-.24.012-.24.013-.239.014-.239.016-.239.017-.238.019-.238.021-.237.021-.237.024-.236.024-.236.027-.236.027-.235.029-.235.031-.234.032-.234.033-.234.035-.232.037-.233.037-.232.039-.231.041-.231.042-.231.043-.23.045-.229.046-.229.048-.229.049-.228.05-.228.052-.227.053-.226.054-.226.056-.225.057-.225.059-.225.06-.223.061-.224.062-.222.064-.222.065-.222.067-.221.068-.22.069-.22.07-.219.072-.219.073-.218.075-.218.075-.217.077-.216.079-.215.079-.216.081-.214.082-.214.083-.213.085-.212.086-.212.087-.212.088-.21.09-.21.091-.209.092-.209.093-.208.095-.207.096-.207.097-.206.098-.205.099-.205.101-.204.101-.203.103-.202.105-.202.105-.201.106-.2.108-.2.109-.199.11-.198.111-.197.113-.197.113-.196.115-.195.116-.195.116-.193.119-.193.119-.192.12-.192.121-.19.123-.19.124-.189.124-.188.126-.188.127-.187.128-.185.129-.185.131-.185.131-.183.132-.183.134-.181.134-.181.136-.18.136-.18.138-.178.139-.177.139-.177.141-.176.142-.175.143-.174.143-.173.145-.173.146-.171.147-.171.148-.169.149-.169.15-.168.151-.167.151-.166.153-.165.154-.164.155-.164.156-.162.156-.161.158-.161.158-.16.16-.158.161-.158.161-.156.162-.156.164-.155.164-.154.165-.153.166-.151.167-.151.168-.15.169-.149.169-.148.171-.147.171-.146.173-.145.173-.143.174-.143.175-.142.176-.141.177-.139.177-.139.178-.138.18-.136.18-.136.181-.134.181-.134.183-.132.183-.131.185-.131.185-.129.185-.128.187-.127.188-.126.188-.124.189-.124.19-.123.19-.121.192-.12.192-.119.193-.119.193-.116.195-.116.195-.115.196-.113.197-.113.197-.111.198-.11.199-.109.2-.108.2-.106.201-.105.202-.105.202-.103.203-.101.204-.101.205-.099.205-.098.206-.097.207-.096.207-.095.208-.093.209-.092.209-.091.21-.09.21-.088.212-.087.212-.086.212-.085.213-.083.214-.082.214-.081.216-.079.215-.079.216-.077.217-.075.218-.075.218-.073.219-.072.219-.07.22-.069.22-.068.221-.067.222-.065.222-.064.222-.062.224-.061.223-.06.225-.059.225-.057.225-.056.226-.054.226-.053.227-.052.228-.05.228-.049.229-.048.229-.046.229-.045.23-.043.231-.042.231-.041.231-.039.232-.037.233-.037.232-.035.234-.033.234-.032.234-.031.235-.029.235-.027.236-.027.236-.024.236-.024.237-.021.237-.021.238-.019.238-.017.239-.016.239-.014.239-.013.24-.012.24-.009.241-.009.241-.007.241-.005.242-.004.242-.002.242-.001zm-.453 5.001-.21.002-.21.003-.21.005-.209.006-.209.007-.208.009-.209.009-.207.012-.208.012-.207.014-.206.015-.207.016-.205.018-.206.019-.205.02-.205.022-.204.022-.204.024-.203.026-.203.026-.203.028-.202.029-.202.03-.201.031-.201.033-.201.034-.2.035-.2.036-.199.038-.199.039-.198.04-.198.041-.197.042-.197.044-.197.045-.196.046-.195.047-.196.048-.194.049-.194.051-.194.052-.193.053-.193.054-.192.055-.192.057-.191.057-.191.059-.191.06-.189.061-.19.062-.188.063-.189.065-.187.065-.188.067-.186.068-.187.069-.185.069-.185.072-.185.072-.184.073-.183.074-.183.076-.183.076-.181.078-.182.079-.18.079-.18.081-.18.082-.179.083-.178.084-.178.085-.177.086-.177.087-.176.088-.175.09-.175.09-.174.091-.174.092-.173.094-.172.094-.172.095-.171.097-.17.097-.17.098-.169.1-.169.1-.168.101-.167.103-.166.103-.166.104-.165.106-.165.106-.164.107-.163.108-.163.109-.161.11-.162.111-.16.112-.16.113-.159.114-.158.115-.158.116-.157.116-.156.118-.155.118-.155.12-.154.12-.153.121-.153.122-.152.123-.151.124-.15.125-.149.126-.149.126-.148.128-.147.128-.147.129-.145.13-.145.131-.144.132-.144.132-.142.134-.142.134-.141.135-.14.136-.139.137-.138.137-.138.139-.137.139-.136.14-.135.141-.134.142-.134.142-.132.144-.132.144-.131.144-.13.146-.129.147-.128.147-.128.148-.126.148-.126.15-.125.15-.123.151-.123.152-.123.152-.121.154-.12.154-.119.154-.119.156-.117.156-.117.157-.116.157-.115.159-.113.159-.113.16-.112.16-.111.161-.11.162-.109.162-.109.164-.107.164-.106.164-.105.165-.105.166-.103.167-.102.167-.101.168-.101.168-.099.169-.099.17-.097.171-.096.171-.096.171-.094.173-.093.173-.092.173-.092.174-.09.175-.089.176-.088.175-.087.177-.087.177-.085.178-.084.178-.082.179-.082.18-.081.18-.08.181-.079.181-.077.182-.077.182-.075.183-.074.183-.074.184-.072.185-.071.185-.07.185-.069.187-.067.186-.067.187-.065.188-.065.188-.063.189-.062.189-.061.19-.06.19-.059.191-.057.191-.057.192-.055.192-.054.193-.053.193-.052.194-.051.194-.049.195-.048.195-.048.196-.046.196-.044.196-.044.197-.042.197-.041.198-.04.199-.039.198-.038.2-.036.199-.035.2-.034.201-.033.201-.031.201-.03.202-.029.202-.028.202-.027.203-.025.204-.024.204-.022.204-.022.205-.02.205-.019.205-.018.206-.016.206-.015.207-.014.207-.012.207-.012.208-.009.208-.009.208-.007.209-.006.209-.005.21-.003.21-.002.21-.001.211.001.211.002.21.003.21.005.21.006.209.007.209.009.208.009.208.012.208.012.207.014.207.015.207.016.206.018.206.019.205.02.205.022.205.022.204.024.204.025.204.027.203.028.202.029.202.03.202.031.201.033.201.034.201.035.2.036.2.038.199.039.198.04.199.041.198.042.197.044.197.044.196.046.196.048.196.048.195.049.195.051.194.052.194.053.193.054.193.055.192.057.192.057.191.059.191.06.19.061.19.062.189.063.189.065.188.065.188.067.187.067.186.069.187.07.185.071.185.072.185.074.184.074.183.075.183.077.182.077.182.079.181.08.181.081.18.082.18.082.179.084.178.085.178.087.177.087.176.088.176.089.176.09.175.092.174.092.173.093.173.094.173.096.171.096.171.097.171.099.17.099.169.101.168.101.168.102.167.103.167.105.166.105.165.106.164.107.164.109.164.109.162.11.162.111.161.112.16.113.16.113.159.115.159.116.157.117.157.117.156.119.156.119.154.12.154.121.154.123.152.123.152.123.151.125.15.126.15.126.148.128.148.128.148.129.146.13.146.131.144.132.144.132.144.134.142.134.142.135.141.136.14.137.139.138.139.138.137.139.137.14.136.141.135.142.134.142.134.144.132.144.132.145.131.145.13.147.129.147.128.148.128.149.126.149.126.15.125.151.124.152.123.153.122.153.121.154.12.155.12.155.118.156.118.157.116.158.116.158.115.159.114.16.113.16.112.162.111.161.11.163.109.163.108.164.107.165.106.165.106.166.104.166.103.167.103.168.101.169.1.169.1.17.098.17.097.171.097.172.095.172.094.173.094.174.092.174.091.175.09.175.09.176.088.177.087.177.086.178.085.178.084.179.083.18.082.18.081.18.079.182.079.182.078.182.076.183.076.183.074.184.073.185.072.185.071.185.07.187.069.186.068.188.067.187.065.189.065.188.063.19.062.189.061.191.06.191.059.191.057.192.057.192.055.193.054.193.053.194.052.194.051.194.049.196.048.195.047.196.046.197.045.197.044.197.042.198.041.198.04.199.039.199.038.2.036.2.035.201.034.201.033.201.031.202.03.202.029.203.028.203.027.203.025.204.024.204.022.205.022.205.02.206.019.205.018.207.016.206.015.207.014.208.012.207.012.209.009.208.009.209.007.209.006.21.005.21.003.21.002.211.001.211-.001.21-.002.21-.003.21-.005.209-.006.209-.007.208-.009.209-.009.207-.012.208-.012.207-.014.206-.015.207-.016.205-.018.206-.019.205-.02.205-.022.204-.022.204-.024.203-.026.203-.026.203-.028.202-.029.202-.03.201-.031.201-.033.201-.034.2-.035.2-.036.199-.038.199-.039.198-.04.198-.041.197-.042.197-.044.197-.045.196-.046.195-.047.196-.048.194-.049.194-.051.194-.052.193-.053.193-.054.192-.055.192-.057.191-.057.191-.059.191-.06.189-.061.19-.062.188-.063.189-.065.187-.065.188-.067.186-.068.187-.069.185-.07.185-.071.185-.072.184-.073.183-.074.183-.076.182-.076.182-.078.182-.079.18-.079.18-.081.18-.082.179-.083.178-.084.178-.085.177-.086.177-.087.176-.088.175-.09.175-.09.174-.091.174-.092.173-.094.172-.094.172-.095.171-.097.17-.097.17-.098.169-.1.169-.1.168-.101.167-.103.166-.103.166-.104.165-.106.165-.106.164-.107.163-.108.163-.109.161-.11.162-.111.16-.112.16-.113.159-.114.158-.115.158-.116.157-.116.156-.118.155-.118.155-.12.154-.12.153-.121.153-.122.152-.123.151-.124.15-.125.149-.126.149-.126.148-.128.147-.128.147-.129.145-.13.145-.131.144-.132.144-.132.142-.134.142-.134.141-.135.14-.136.139-.137.138-.137.138-.139.137-.139.136-.14.135-.141.134-.142.134-.142.132-.144.132-.144.131-.144.13-.146.129-.146.128-.148.128-.148.126-.148.126-.15.125-.15.123-.151.123-.152.123-.152.121-.154.12-.154.119-.154.119-.156.117-.156.117-.157.116-.157.115-.159.113-.159.113-.16.112-.16.111-.161.11-.162.109-.162.109-.164.107-.164.106-.164.105-.165.105-.166.103-.167.102-.167.101-.168.101-.168.099-.169.099-.17.097-.171.096-.171.096-.171.094-.173.093-.173.092-.173.092-.174.09-.175.089-.175.088-.177.087-.176.086-.177.086-.178.084-.178.082-.179.082-.18.081-.18.08-.181.079-.181.077-.182.077-.182.075-.183.074-.183.074-.184.072-.185.071-.185.07-.185.069-.187.067-.186.067-.187.066-.188.064-.188.063-.189.062-.189.061-.19.06-.19.059-.191.057-.191.057-.192.055-.192.054-.193.053-.193.052-.194.051-.194.049-.195.048-.195.048-.196.046-.196.044-.196.044-.197.042-.197.041-.198.04-.199.039-.198.038-.199.036-.2.035-.2.034-.201.033-.201.031-.201.03-.202.029-.202.028-.203.027-.202.025-.204.024-.204.022-.204.022-.205.02-.205.019-.205.018-.206.016-.206.015-.207.014-.207.012-.207.012-.208.009-.208.009-.208.007-.209.006-.209.005-.21.003-.21.002-.21.001-.211-.001-.211-.002-.21-.003-.21-.005-.21-.006-.209-.007-.209-.009-.208-.009-.208-.012-.208-.012-.207-.014-.207-.015-.207-.016-.206-.018-.206-.019-.205-.02-.205-.022-.205-.022-.204-.024-.204-.025-.204-.027-.202-.028-.203-.029-.202-.03-.202-.031-.201-.033-.201-.034-.201-.035-.2-.036-.2-.038-.199-.039-.198-.04-.199-.041-.198-.042-.197-.044-.197-.044-.196-.046-.196-.048-.196-.048-.195-.049-.195-.051-.194-.052-.194-.053-.193-.054-.193-.055-.192-.057-.192-.057-.191-.059-.191-.06-.19-.061-.19-.062-.189-.063-.189-.064-.188-.066-.188-.067-.187-.067-.186-.069-.187-.07-.185-.071-.185-.072-.185-.074-.184-.074-.183-.075-.183-.077-.182-.077-.182-.079-.181-.08-.181-.081-.18-.082-.18-.082-.179-.084-.178-.085-.178-.087-.177-.087-.176-.088-.177-.089-.175-.09-.175-.092-.174-.092-.173-.093-.173-.094-.173-.096-.171-.096-.171-.097-.171-.099-.17-.099-.169-.101-.168-.101-.168-.102-.167-.103-.167-.105-.166-.105-.165-.106-.164-.107-.164-.109-.164-.109-.162-.11-.162-.111-.161-.112-.16-.113-.16-.113-.159-.115-.159-.116-.157-.117-.157-.117-.156-.119-.156-.119-.154-.12-.154-.121-.154-.123-.152-.123-.152-.123-.151-.125-.15-.126-.15-.126-.148-.128-.148-.128-.148-.129-.146-.13-.146-.131-.144-.132-.144-.132-.144-.134-.142-.134-.142-.135-.141-.136-.14-.137-.139-.138-.139-.138-.137-.139-.137-.14-.136-.141-.135-.142-.134-.142-.134-.144-.132-.144-.132-.145-.131-.145-.13-.147-.129-.147-.128-.148-.128-.149-.126-.149-.126-.15-.125-.151-.124-.152-.123-.153-.122-.153-.121-.154-.12-.155-.12-.155-.118-.156-.118-.157-.116-.158-.116-.158-.115-.159-.114-.16-.113-.16-.112-.162-.111-.161-.11-.163-.109-.163-.108-.164-.107-.165-.106-.165-.106-.166-.104-.166-.103-.167-.103-.168-.101-.169-.1-.169-.1-.17-.098-.17-.097-.171-.097-.172-.095-.172-.094-.173-.094-.174-.092-.174-.091-.175-.09-.175-.09-.176-.088-.177-.087-.177-.086-.178-.085-.178-.084-.179-.083-.18-.082-.18-.081-.18-.079-.182-.079-.181-.078-.183-.076-.183-.076-.183-.074-.184-.073-.185-.072-.185-.072-.185-.069-.187-.069-.186-.068-.188-.067-.187-.065-.189-.065-.188-.063-.19-.062-.189-.061-.191-.06-.191-.059-.191-.057-.192-.057-.192-.055-.193-.054-.193-.053-.194-.052-.194-.051-.194-.049-.196-.048-.195-.047-.196-.046-.197-.045-.197-.044-.197-.042-.198-.041-.198-.04-.199-.039-.199-.038-.2-.036-.2-.035-.201-.034-.201-.033-.201-.031-.202-.03-.202-.029-.203-.028-.203-.026-.203-.026-.204-.024-.204-.022-.205-.022-.205-.02-.206-.019-.205-.018-.207-.016-.206-.015-.207-.014-.208-.012-.207-.012-.209-.009-.208-.009-.209-.007-.209-.006-.21-.005-.21-.003-.21-.002-.211-.001z" fill="#fff" fill-opacity=".75" transform="matrix(.8 0 0 .799684 .5 8.31313)"/><path d="m140.3 77c.6.2.8.8.6 1.4-.1.3-.3.5-.6.6l-30.3 17.5c-1 .6-1.7.1-1.7-1v-35c0-1.1.8-1.5 1.7-1z" fill="#fff" fill-rule="nonzero" transform="matrix(.8 0 0 .8 16.5 8.3)"/><path d="m82.5 79c0-20.7 16.8-37.5 37.5-37.5s37.5 16.8 37.5 37.5-16.8 37.5-37.5 37.5-37.5-16.8-37.5-37.5z" fill="none" stroke="#fff" stroke-linecap="butt" stroke-width="5" transform="matrix(.8 0 0 .8 16.5 8.3)"/><g fill="#fff"><circle cx="201.9" cy="47.1" r="8.1"/><circle cx="233.9" cy="79" fill-opacity=".4" r="5"/><circle cx="201.9" cy="110.9" fill-opacity=".6" r="6"/><circle cx="170.1" cy="79" fill-opacity=".8" r="7"/><circle cx="178.2" cy="56.3" fill-opacity=".9" r="7.5"/><circle cx="226.3" cy="56.1" fill-opacity=".3" r="4.5"/><circle cx="225.8" cy="102.8" fill-opacity=".5" r="5.5"/><circle cx="178.2" cy="102.8" fill-opacity=".7" r="6.5"/><path d="m178 9.4c0 .4-.4.7-.9.7-.1 0-.2 0-.2-.1l-4.9-1.8c-.5-.2-.6-.6-.1-.8l6.2-3.6c.5-.3.8-.1.7.5z" fill-rule="nonzero"/><path d="m169.4 15.9c-1 0-2-.2-2.9-.7-2-1-3.2-3-3.2-5.2.1-3.4 2.9-6 6.3-6 2.5.1 4.8 1.7 5.6 4.1l.1-.1 2.1 1.1c-.6-4.4-4.7-7.5-9.1-6.9-3.9.6-6.9 3.9-7 7.9 0 2.9 1.7 5.6 4.3 7 1.2.6 2.5.9 3.8 1 2.6 0 5-1.2 6.6-3.3l-1.8-.9c-1.2 1.2-3 2-4.8 2z" fill-rule="nonzero"/><path d="m183.4 3.2c.8 0 1.5.7 1.5 1.5s-.7 1.5-1.5 1.5-1.5-.7-1.5-1.5c0-.9.7-1.5 1.5-1.5zm5.1 0h8.5c.9 0 1.5.7 1.5 1.5s-.7 1.5-1.5 1.5h-8.5c-.9 0-1.5-.7-1.5-1.5-.1-.9.6-1.5 1.5-1.5zm-5.1 5c.8 0 1.5.7 1.5 1.5s-.7 1.5-1.5 1.5-1.5-.7-1.5-1.5c0-.9.7-1.5 1.5-1.5zm5.1 0h8.5c.9 0 1.5.7 1.5 1.5s-.7 1.5-1.5 1.5h-8.5c-.9 0-1.5-.7-1.5-1.5-.1-.9.6-1.5 1.5-1.5zm-5.1 5c.8 0 1.5.7 1.5 1.5s-.7 1.5-1.5 1.5-1.5-.7-1.5-1.5c0-.9.7-1.5 1.5-1.5zm5.1 0h8.5c.9 0 1.5.7 1.5 1.5s-.7 1.5-1.5 1.5h-8.5c-.9 0-1.5-.7-1.5-1.5-.1-.9.6-1.5 1.5-1.5z" fill-rule="nonzero"/></g></svg>