<svg version="1.1" xmlns="http://www.w3.org/2000/svg" xmlns:xlink="http://www.w3.org/1999/xlink" x="0px" y="0px"
							 width="95.2px" height="96px" viewBox="0 0 95.2 96" enable-background="new 0 0 95.2 96" xml:space="preserve">
						<g class="svg-garage" style="display: none">
							<polygon opacity="0.1" fill="#025EC8" points="55.9,73.1 74.7,62.2 77.6,63.8 58.7,74.7 	"/>
							<path fill="#C7E3FC" d="M75.4,62.6l-1.9,1.1l-0.7-0.4l-12.3,7.1l0,0.8l-3.9,2.3L37.8,62.6v-1.8L59,49.6l17.9,10.6l0.2,1.5
								L75.4,62.6z"/>
							<path fill="#ECFBFF" d="M75.4,42.6l-17.4-10L39.2,43.5l0.8,16l-2.2,1.3l18.8,10.9l18.8-10.9l1.3-0.7c-1.9-1.2-3.8-2.3-5.8-3.4
								L75.4,42.6 M60.5,69.4L59,68.6h0l13-7.5l1.5,0.8L60.5,69.4z"/>
							<polygon fill="#C7E3FC" points="39.2,60.9 56.6,70.9 56.6,53.6 39.2,43.5 	"/>
							<path fill="#98CEFF" d="M56.6,70.9L75.4,60V42.6L56.6,53.5L56.6,70.9z"/>
							<path fill="#328FF9" d="M60.5,70.4l12.3-7.1V46.7l-13,7.5V69l0.7,0.4L60.5,70.4z"/>
							<path fill="#3895FF" d="M60.5,70.4l12.3-7.1V46.7l-13,7.5V69l0.7,0.4L60.5,70.4z"/>
							<path fill="#1672DC" d="M72.8,48.4l-13,7.5v-1.7l13-7.5V48.4z"/>
							<polygon fill="#328FF9" points="44.9,59.5 50.9,62.9 50.9,54.9 44.9,51.5 	"/>
							<path fill="#1672DC" d="M44.9,51.5V52l5.9,3.4v-0.5L44.9,51.5z"/>
						</g>
						<g class="svg-floor-0">
							<polygon opacity="0.1" fill="#025EC8" points="75.7,81.2 39.9,60.6 16.2,74.3 51.9,94.9 	"/>
							<path fill="#C7E3FC" d="M63.8,74.4v-1.2L39.9,60.6L16.2,73.1v1.2l23.9,13.8L63.8,74.4z"/>
							<path fill="#ECFBFF" d="M63.8,73.1L39.9,59.4L16.2,73.1l23.9,13.8L63.8,73.1z"/>
							<path fill="#C7E3FC" d="M17.9,54.4l22.2,12.8v18.7L17.9,73V54.4z"/>
							<path fill="#328FF9" d="M29.9,68.7v6.1l4.5,2.6v-6.1L29.9,68.7z"/>
							<path fill="#1672DC" d="M29.9,68.7v0.4l4.5,2.6v-0.4L29.9,68.7z"/>
							<path fill="#328FF9" d="M22.8,64.6v6.1l4.5,2.6v-6.1L22.8,64.6z"/>
							<path fill="#1672DC" d="M22.8,64.6V65l4.5,2.6v-0.4L22.8,64.6z"/>
							<path fill="#98CEFF" d="M62.2,54.4L40.1,67.2v18.7L62.2,73V54.4z"/>
							<polygon opacity="0.5" fill="#328FF9" points="62.2,54.6 40.1,67.4 40.1,69.8 62.2,57 	"/>
							<path fill="#328FF9" d="M49.1,68.3l5.6-3.3v12.3l-5.6,3.3V68.3z"/>
							<path fill="#1672DC" d="M49.1,68.3l5.6-3.3v1.2l-5.6,3.3V68.3z"/>
							<polygon opacity="0.5" fill="#98CEFF" points="17.9,54.6 40.1,67.4 40.1,69.8 17.9,57 	"/>
							<path fill="#C7E3FC" d="M63.8,54.8v-1.2L39.9,41L16.2,53.4v1.2l23.9,13.8L63.8,54.8z"/>
							<path fill="#ECFBFF" d="M63.8,53.5L39.9,39.7L16.2,53.4l23.9,13.8L63.8,53.5z"/>
							<path fill="#98CEFF" d="M56.5,53.5l-16.9-9.7l-16.7,9.7l16.9,9.7L56.5,53.5z"/>
							<path fill="#C7E3FC" d="M55.8,54l-16.1-9.3l-16,9.2l16.1,9.3L55.8,54z"/>
						</g>
						<g class="svg-camper" style="display: none">
							<path opacity="0.1" fill="#025EC8" d="M95.2,73.9l-17.3,10l-5.3-3.1l-5.5,3.2c-0.4,0.2-0.9,0.3-1.2,0.2c-0.2-0.1,0-0.4,0.4-0.7
								l5.5-3.2l-4.5-2.6l17.3-10L95.2,73.9L95.2,73.9z"/>
							<path fill="#98CEFF" d="M64.1,81.4L64.1,81.4c0.2,0.1,0.7,0,1.2-0.2l8.7-5l-0.8-0.5l-8.7,5C64.1,81,63.9,81.3,64.1,81.4L64.1,81.4z
								"/>
							<path fill="#98CEFF" d="M64.7,80.8l-0.7,0v0.5L64.7,80.8z"/>
							<path fill="#C7E3FC" d="M64.1,80.9c0.2,0.1,0.7,0,1.2-0.2l8.7-5l-0.8-0.5l-8.7,5C64.1,80.5,63.9,80.8,64.1,80.9L64.1,80.9z"/>
							<path fill="#025EC8" d="M89.7,69.8l-2.8,1.6l3.7,2.2C91.1,71.7,90.6,70.6,89.7,69.8z"/>
							<path fill="#3895FF" d="M87.2,71.8c1-0.6,1.8,0,1.8,1.3c0,1.3-0.8,2.8-1.8,3.4c-1,0.6-1.8,0-1.8-1.3C85.4,73.9,86.2,72.4,87.2,71.8
								L87.2,71.8z"/>
							<path fill="#3895FF" d="M89.9,72.5l-1.4-0.8l-2.4,3l0,1.9l1.4,0.8L89.9,72.5z"/>
							<path fill="#98CEFF" d="M90.5,74c0,1.3-0.8,2.8-1.8,3.4c-1,0.6-1.8,0-1.8-1.3c0-1.3,0.8-2.8,1.8-3.4C89.7,72.1,90.5,72.7,90.5,74z"
								/>
							<path fill="#ECFBFF" d="M82.1,54.4L82.1,54.4c-0.2-0.1-0.5-0.1-0.9,0.1l-7.8,4.5c-2,1.2-3.9,3.3-5.4,6.1c-1.4,2.7-2.2,5.7-2.2,8.4
								v0c0,0.8,0.3,1.5,0.7,1.9l0.1,0.1l0,0l9.8,5.6l15.4-21L82.1,54.4z"/>
							<path fill="#ECFBFF" d="M88.7,73.9c-0.4,0.2-0.8,0.9-0.8,1.5c0,0.6,0.4,0.8,0.8,0.6c0.4-0.2,0.8-0.9,0.8-1.5
								C89.5,73.9,89.1,73.7,88.7,73.9z"/>
							<path fill="#C7E3FC" d="M90.6,73.6c0,0,0-0.1,0-0.1c0-1.8-1.1-2.7-2.5-1.9c-1.4,0.8-2.5,2.9-2.5,4.7c0,0,0,0.1,0,0.1L78,80.9
								c-0.6,0.4-1.2,0.4-1.7,0c-0.5-0.3-0.7-1-0.7-1.9v0c0-2.7,0.8-5.7,2.2-8.4c1.4-2.7,3.3-4.9,5.4-6.1c3-1.7,6.1-3.5,7.8-4.5
								c0.7-0.4,1.3,0,1.3,1v9.7c0,1-0.6,2.1-1.3,2.6L90.6,73.6L90.6,73.6z"/>
							<path fill="#98CEFF" d="M80.1,79.6l3.9-2.3V68c0-0.3-0.1-0.5-0.2-0.7c-0.2-0.1-0.4-0.1-0.6,0L81,68.7c-0.2,0.1-0.4,0.4-0.6,0.7
								c-0.2,0.3-0.2,0.6-0.2,0.9V79.6z"/>
							<path fill="#ECFBFF" d="M86.2,68.6c0,0.6,0.4,0.9,0.8,0.6l2.2-1.3c0.5-0.3,0.8-1,0.8-1.6v-2.5c0-0.6-0.4-0.9-0.8-0.6L87,64.5
								c-0.5,0.3-0.8,1-0.8,1.6V68.6z"/>
							<path fill="#9ED0FE" d="M90,62.7c-0.3-0.2-0.7-0.2-1.1,0l-2.2,1.3c-0.6,0.4-1.1,1.2-1.1,2v2.5c0,0.5,0.2,0.9,0.5,1.1
								c0.1,0.1,0.3,0.1,0.5,0.1c0.2,0,0.4-0.1,0.6-0.2l2.2-1.3c0.6-0.4,1.1-1.2,1.1-2v-2.5C90.6,63.4,90.4,62.9,90,62.7z M89.6,66.4
								c0,0.5-0.3,1-0.6,1.2l-2.3,1.3c0,0-0.1-0.1-0.1-0.3v-2.5c0-0.5,0.3-1,0.6-1.2l2.3-1.3c0,0,0.1,0.1,0.1,0.3V66.4z"/>
							<path fill="#FFFFFF" d="M68.2,68L68.2,68c-0.4,1.2,0,2.4,1.1,3.1l3.4,2c0.1,0.1,0.2,0.1,0.3,0.1c0.9,0.3,2-0.1,2.3-1.1v0
								c0.4-1.2,0-2.4-1.1-3.1l-3.4-2c-0.1-0.1-0.2-0.1-0.3-0.1C69.6,66.6,68.6,67.1,68.2,68L68.2,68z"/>
							<path fill="#9ED0FE" d="M74.4,68.6l-3.4-2c-0.1-0.1-0.2-0.1-0.4-0.2c-1.2-0.4-2.5,0.2-2.9,1.4v0c-0.5,1.4,0.1,2.9,1.3,3.7l3.4,2
								c0.1,0.1,0.2,0.1,0.4,0.2c0.3,0.1,0.5,0.1,0.8,0.1c0.3,0,0.7-0.1,1-0.2c0.6-0.3,1-0.7,1.2-1.3C76.3,70.8,75.7,69.3,74.4,68.6z
								 M74.8,71.9c-0.1,0.3-0.4,0.6-0.7,0.7c-0.3,0.1-0.7,0.2-1,0c-0.1,0-0.1-0.1-0.2-0.1l-3.4-2c-0.9-0.5-1.2-1.5-0.9-2.5
								c0.2-0.7,1-1,1.7-0.8c0.1,0,0.1,0.1,0.2,0.1l3.4,2C74.8,69.9,75.2,71,74.8,71.9z"/>
						</g>
						<g class="svg-floor-1">
							<path fill="#C7E3FC" d="M70.4,60.6v-1.2l-6.5-4.7L39.9,40.7L16.2,53.2v1.2l24.6,14.2l5.8,5.7L70.4,60.6z"/>
							<path fill="#ECFBFF" d="M70.4,59.3l-6.6-6.1L39.9,39.5L16.2,53.2l24.7,14.2l5.8,5.6L70.4,59.3z"/>
							<path fill="#98CEFF" d="M57.5,53.5l-16.9-9.7l-16.7,9.7l16.9,9.7L57.5,53.5z"/>
							<path fill="#C7E3FC" d="M56.8,54l-16.1-9.3l-16,9.2l16.1,9.3L56.8,54z"/>
							<path fill="#1672DC" d="M57,44.9v0.4l-4.5,2.6v-0.4L57,44.9z"/>
							<path fill="#C7E3FC" d="M17.9,34.6l22.2,12.8v18.6L17.9,53.3V34.6z"/>
							<path fill="#98CEFF" d="M62.2,34.6L40.1,47.4v18.6l22.2-12.8V34.6z"/>
							<polygon opacity="0.5" fill="#98CEFF" points="17.9,34.6 40.1,47.4 40.1,49.8 17.9,37 	"/>
							<polygon opacity="0.5" fill="#328FF9" points="62.2,34.6 40.1,47.4 40.1,49.8 62.2,37 	"/>
							<path fill="#C7E3FC" d="M63.8,34.8v-1.2L39.9,21L16.2,33.4v1.2l23.9,13.8L63.8,34.8z"/>
							<path fill="#ECFBFF" d="M63.8,33.5L39.9,19.7L16.2,33.4l23.9,13.8L63.8,33.5z"/>
							<path fill="#328FF9" d="M29.9,48.3v6.1l4.5,2.6v-6.1L29.9,48.3z"/>
							<path fill="#1672DC" d="M29.9,48.3v0.4l4.5,2.6v-0.4L29.9,48.3z"/>
							<path fill="#328FF9" d="M22.8,44.1v6.1l4.5,2.6v-6.1L22.8,44.1z"/>
							<path fill="#1672DC" d="M22.8,44.1v0.4l4.5,2.6v-0.4L22.8,44.1z"/>
							<path fill="#328FF9" d="M49.8,49v6.1l-4.5,2.6v-6.1L49.8,49z"/>
							<path fill="#1672DC" d="M49.8,49v0.4L45.3,52v-0.4L49.8,49z"/>
							<path fill="#328FF9" d="M57,44.9v6.1l-4.5,2.6v-6.1L57,44.9z"/>
							<path fill="#98CEFF" d="M56.5,33.5l-16.9-9.7l-16.7,9.7l16.9,9.7L56.5,33.5z"/>
							<path fill="#C7E3FC" d="M55.8,34l-16.1-9.3l-16,9.2l16.1,9.3L55.8,34z"/>
						</g>
						<g class="svg-floor-2">
							<path fill="#C7E3FC" d="M17.9,14.9l22.2,12.8v18.6L17.9,33.6V14.9z"/>
							<path fill="#98CEFF" d="M62.2,14.9L40.1,27.7v18.6l22.2-12.8V14.9z"/>
							<polygon opacity="0.5" fill="#98CEFF" points="17.9,14.9 40.1,27.7 40.1,30 17.9,17.2 	"/>
							<polygon opacity="0.5" fill="#328FF9" points="62.2,14.9 40.1,27.7 40.1,30 62.2,17.2 	"/>
							<path fill="#C7E3FC" d="M63.8,15v-1.2L39.9,1.2L16.2,13.7v1.2l23.9,13.8L63.8,15z"/>
							<path fill="#ECFBFF" d="M63.8,13.8L39.9,0L16.2,13.7l23.9,13.8L63.8,13.8z"/>
							<path fill="#98CEFF" d="M56.8,13.8L39.9,4l-16.7,9.7l16.9,9.7L56.8,13.8z"/>
							<path fill="#C7E3FC" d="M56.1,14.2L39.9,4.9l-16,9.2l16.1,9.3L56.1,14.2z"/>
							<path fill="#328FF9" d="M29.9,28.5v6.1l4.5,2.6v-6.1L29.9,28.5z"/>
							<path fill="#1672DC" d="M29.9,28.5v0.4l4.5,2.6v-0.4L29.9,28.5z"/>
							<path fill="#328FF9" d="M22.8,24.3v6.1l4.5,2.6v-6.1L22.8,24.3z"/>
							<path fill="#1672DC" d="M22.8,24.3v0.4l4.5,2.6v-0.4L22.8,24.3z"/>
							<path fill="#328FF9" d="M49.8,29.2v6.1l-4.5,2.6v-6.1L49.8,29.2z"/>
							<path fill="#328FF9" d="M49.8,29.2v0.4l-4.5,2.6v-0.4L49.8,29.2z"/>
							<path fill="#328FF9" d="M57,25v6.1l-4.5,2.6v-6.1L57,25z"/>
							<path fill="#1672DC" d="M57,25v0.4L52.5,28v-0.4L57,25z"/>
						</g>
						<g class="svg-tree-1">
							<path fill="#328FF9" d="M23.8,77.2v-1.9l4.2-2.6v1.9L23.8,77.2z"/>
							<polygon opacity="0.1" fill="#025EC8" points="26,86.5 18.3,91.2 26,96 33.8,91.2 	"/>
							<path fill="#98CEFF" d="M23.8,77.5l1,0.6v12.1l-1,0.6l-1-0.6l0-12.2L23.8,77.5z"/>
							<polygon opacity="0.3" fill="#025EC8" points="24.7,90.3 24.7,76.9 23.8,77.5 23.8,90.8 	"/>
							<path fill="#3895FF" d="M23.8,74.1l7.7,4.7v3.6l-7.7,4.7L16,82.4v-3.6L23.8,74.1z"/>
							<path fill="#98CEFF" d="M23.8,74.1l7.7,4.7l-7.7,4.7L16,78.8L23.8,74.1"/>
							<path fill="#3895FF" d="M23.8,72l5.8,3.6v2.7l-5.8,3.6l-5.8-3.6v-2.7L23.8,72z"/>
							<path fill="#328FF9" d="M23.8,87.1v-3.6l7.7-4.7v3.6L23.8,87.1z"/>
							<path fill="#98CEFF" d="M23.8,72l5.8,3.6l-5.8,3.6l-5.8-3.6L23.8,72"/>
							<path fill="#3895FF" d="M23.8,70.2l4.2,2.6v1.9l-4.2,2.6l-4.2-2.6v-1.9L23.8,70.2z"/>
							<path fill="#328FF9" d="M23.8,81.8v-2.7l5.8-3.6v2.7L23.8,81.8z"/>
							<path fill="#98CEFF" d="M23.8,70.2l4.2,2.6l-4.2,2.6l-4.2-2.6L23.8,70.2"/>
						</g>
						<g class="svg-tree-2">
							<polygon opacity="0.1" fill="#025EC8" points="2.3,82.1 10,86.8 17.7,82.1 10,77.4 	"/>
							<path fill="#98CEFF" d="M7.7,68.4l1,0.6v12.1l-1,0.6l-1-0.6l0-12.2L7.7,68.4z"/>
							<polygon opacity="0.3" fill="#025EC8" points="8.7,81.1 8.7,67.8 7.7,68.4 7.7,81.7 	"/>
							<path fill="#3895FF" d="M7.7,64.9l7.7,4.7v3.6L7.7,78L0,73.3v-3.6L7.7,64.9z"/>
							<path fill="#98CEFF" d="M7.7,64.9l7.7,4.7l-7.7,4.7L0,69.7L7.7,64.9"/>
							<path fill="#3895FF" d="M7.7,62.8l5.8,3.6v2.7l-5.8,3.6l-5.8-3.6v-2.7L7.7,62.8z"/>
							<path fill="#328FF9" d="M7.7,78v-3.6l7.7-4.7v3.6L7.7,78z"/>
							<path fill="#98CEFF" d="M7.7,62.8l5.8,3.6L7.7,70l-5.8-3.6L7.7,62.8"/>
							<path fill="#3895FF" d="M7.7,61l4.2,2.6v1.9l-4.2,2.6l-4.2-2.6v-1.9L7.7,61z"/>
							<path fill="#328FF9" d="M7.7,72.7V70l5.8-3.6v2.7L7.7,72.7z"/>
							<path fill="#98CEFF" d="M7.7,61l4.2,2.6l-4.2,2.6l-4.2-2.6L7.7,61"/>
							<path fill="#328FF9" d="M7.7,68.1v-1.9l4.2-2.6v1.9L7.7,68.1z"/>
						</g>
						</svg>