<svg width="85" height="80" xmlns="http://www.w3.org/2000/svg"><g fill="none" fill-rule="evenodd"><path fill-opacity=".1" fill="#025EC8" d="M24.511 77.851L47.204 64.75l3.398 1.962L27.91 79.813z"/><path fill="#98CEFF" d="M12.258 24.763l1.559.917v19.218l-1.559.917-1.559-.917-.005-19.283z"/><path fill-opacity=".3" fill="#025EC8" d="M13.817 44.898V23.772l-1.559.886v21.157z"/><path fill="#3895FF" d="M12.256 19.256l12.255 7.498v5.665l-12.255 7.497L0 32.42v-5.665z"/><path fill="#98CEFF" d="M12.256 19.256l12.255 7.498-12.255 7.497L0 26.754l12.256-7.498"/><path fill="#3895FF" d="M12.256 15.913l9.243 5.655v4.272l-9.243 5.655-9.243-5.655v-4.272z"/><path fill="#328FF9" d="M12.256 39.916v-5.665l12.255-7.497v5.665z"/><path fill="#98CEFF" d="M12.256 15.913l9.243 5.655-9.243 5.655-9.243-5.655 9.243-5.655"/><path fill="#3895FF" d="M12.256 13.048l6.666 4.078v3.082l-6.666 4.078-6.667-4.078v-3.082z"/><path fill="#328FF9" d="M12.256 31.495v-4.272l9.243-5.655v4.272z"/><path fill="#98CEFF" d="M12.256 13.048l6.666 4.078-6.666 4.079-6.667-4.079 6.667-4.078"/><path fill="#328FF9" d="M12.256 24.286v-3.081l6.666-4.079v3.082z"/><path fill="#C7E3FC" d="M55.222 43.175l29.132 14.687v2.133L61.662 73.097l-13.63-7.87-2.306 1.332-.828-.478-14.835 8.565.006.952-4.73 2.731L2.647 65.228v-2.134l45.385-24.07z"/><path d="M55.222 41.042l29.132 16.82-22.692 13.101-13.63-7.869-22.693 13.102L2.647 63.094l2.677-1.546-.962-19.319 22.763-13.142 28.097 11.955zm-26.94 31.409l1.772 1.022 15.672-9.048-1.771-1.023-15.672 9.049z" fill="#ECFBFF"/><path fill-opacity=".1" fill="#025EC8" d="M48.032 63.094l11.15 6.437L81.872 56.43l-4.87-2.813-28.971 8.521-3.134 1.81.806.49z"/><path fill="#C7E3FC" d="M4.362 42.23v20.899l20.977 12.11V54.34zM27.125 8.188v20.9l20.977 12.11V20.3z"/><path fill="#C7E3FC" d="M27.125 0v29.087l20.977 12.111V12.111z"/><path fill="#ECFBFF" d="M48.184.552L27.124 0l29.824 17.218 21.059.552z"/><path fill="#C7E3FC" d="M48.032 62.138l8.916 5.148V17.218l-8.916-5.148z"/><path fill="#98CEFF" d="M25.34 75.24l22.692-13.102v-20.98L25.339 54.26z"/><path fill="#328FF9" d="M30.063 74.646l14.835-8.565V46.108l-15.672 9.049v17.838l.835.474z"/><path fill="#3895FF" d="M30.063 74.646l14.835-8.565V46.108l-15.672 9.049v17.838l.835.474z"/><path fill="#1672DC" d="M44.898 48.118l-15.672 9.049v-2.01l15.672-9.049z"/><path fill="#98CEFF" d="M56.948 67.286l21.059-12.158V17.77l-21.059-.552zM44.898 63.947v2.134l.828.478v-2.134z"/><path fill="#328FF9" d="M64.916 47.69l6.867-3.965V58.72l-6.867 3.964z"/><path fill="#1672DC" d="M64.916 47.69l6.867-3.965v1.472l-6.867 3.964z"/><path fill="#328FF9" d="M40.975 21.902v9.618l7.127 4.115v-9.618zM11.287 51.868v9.618l7.127 4.115v-9.618z"/><path fill="#1672DC" d="M11.287 51.868v.638l7.127 4.115v-.638zM40.975 21.902v.638l7.127 4.115v-.638z"/><path fill="#328FF9" d="M71.041 23v9.618l-7.127 4.115v-9.618z"/><path fill="#1672DC" d="M71.041 23v.828l-7.127 4.114v-.827z"/><path fill="#328FF9" d="M29.612 15.341v9.618l7.126 4.115v-9.618z"/><path fill="#1672DC" d="M29.612 15.341v.639l7.126 4.114v-.638z"/></g></svg>