<svg width="83" height="128" viewBox="0 0 83 128" xmlns="http://www.w3.org/2000/svg"><title>skyscraper@2x</title><g fill="none" fill-rule="evenodd"><path fill-opacity=".1" fill="#025EC8" d="M60.995 124.477l-3.52 2.032-26.028-15.078 22.18-12.806 26.03 15.078-3.485 2.012 6.016 3.485-2.908 1.678 1.826 1.058-.678 4.988-8.64.413-1.844-1.068-2.933 1.693z"/><path fill="#C7E3FC" d="M9.266 32.212l22.18 12.807v66.412L9.267 98.625z"/><path d="M9.266 93.53l22.18 12.806v5.101L9.267 98.631V93.53zm0-8.851l22.18 12.806v5.101L9.267 89.78v-5.101zm0-8.845l22.18 12.806v5.101L9.267 80.935v-5.101zm0-8.845l22.18 12.806v5.101L9.267 72.09V66.99zm0-8.845l22.18 12.806v5.102L9.267 63.245v-5.101zm0-8.845l22.18 12.806v5.102L9.267 54.4v-5.1zm0-8.845l22.18 12.807v5.1L9.267 45.557v-5.102zm0-8.844l22.18 12.806v5.101L9.267 36.711V31.61z" fill-opacity=".5" fill="#328FF9"/><path fill="#98CEFF" d="M53.628 32.212L31.447 45.02v66.412l22.18-12.806z"/><path d="M53.628 93.566l-22.181 12.806v5.102l22.18-12.806v-5.102zm0-8.845L31.447 97.528v5.101l22.18-12.806V84.72zm0-8.844L31.447 88.683v5.101l22.18-12.806v-5.101zm0-8.845L31.447 79.838v5.101l22.18-12.806v-5.101zm0-8.845L31.447 70.993v5.101l22.18-12.806v-5.101zm0-8.845L31.447 62.148v5.102l22.18-12.807v-5.101zm0-8.845L31.447 53.304v5.1l22.18-12.806v-5.1zm0-8.844L31.447 44.459v5.101l22.18-12.806v-5.101z" fill="#328FF9"/><path fill="#C7E3FC" d="M37.64 58.573l9.987 14.403v41.203l-9.987-5.766z"/><path fill-opacity=".2" fill="#328FF9" d="M39.94 61.89l4.6 6.645v43.862l-4.6-2.656z"/><path fill="#98CEFF" d="M57.614 67.21l-9.987 5.766v41.203l9.987-5.766z"/><path fill="#ECFBFF" d="M57.614 67.21l-9.987 5.766-9.987-14.403 9.987-5.766zM53.628 32.212L31.447 45.02 9.266 32.212l22.18-12.806z"/><path fill="#C7E3FC" d="M15.267 19.693l16.18 9.341v12.59l-16.18-9.341z"/><path fill="#98CEFF" d="M47.627 19.693l-16.18 9.341v12.59l16.18-9.341z"/><path fill="#ECFBFF" d="M47.627 19.693l-16.18 9.341-16.18-9.341 16.18-9.342z"/><path fill="#C7E3FC" d="M21.318 11.65l10.129 5.847v7.882l-10.13-5.848z"/><path fill="#98CEFF" d="M41.576 11.65l-10.13 5.847v7.882l10.13-5.848z"/><path fill="#ECFBFF" d="M41.576 11.65l-10.13 5.847-10.128-5.848 10.129-5.848z"/><path fill="#D9EFFD" d="M31.447 17.497L31.617 0l-10.3 11.65z"/><path fill="#ECFBFF" d="M41.576 11.65l-10.13 5.847L31.618 0z"/><path fill-opacity=".1" fill="#025EC8" d="M5.867 104.118l4.542 2.779-4.542 2.778-4.542-2.778 4.542-2.779M14.439 109.067l4.542 2.779-4.542 2.778-4.542-2.778 4.542-2.779M23.01 114.016l4.542 2.778-4.541 2.779-4.542-2.779 4.542-2.778"/><path fill="#98CEFF" d="M4.543 98.865l.577.34v7.122l-.577.34-.578-.34-.002-7.146z"/><path fill-opacity=".3" fill="#025EC8" d="M5.12 106.327v-7.829l-.577.328v7.84z"/><path fill="#3895FF" d="M4.542 96.824l4.541 2.779v2.1l-4.541 2.778L0 101.702v-2.1z"/><path fill="#98CEFF" d="M4.542 96.824l4.541 2.779-4.541 2.778L0 99.603l4.542-2.779"/><path fill="#3895FF" d="M4.542 95.586l3.425 2.095v1.583l-3.425 2.096-3.426-2.096v-1.583z"/><path fill="#328FF9" d="M4.542 104.48v-2.099l4.541-2.778v2.1z"/><path fill="#98CEFF" d="M4.542 95.586l3.425 2.095-3.425 2.096-3.426-2.096 3.426-2.095"/><path fill="#3895FF" d="M4.542 94.524l2.47 1.511v1.142l-2.47 1.511-2.47-1.51v-1.143z"/><path fill="#328FF9" d="M4.542 101.36v-1.583l3.425-2.096v1.583z"/><path fill="#98CEFF" d="M4.542 94.524l2.47 1.511-2.47 1.512-2.47-1.512 2.47-1.511"/><path fill="#328FF9" d="M4.542 98.688v-1.141l2.47-1.512v1.142z"/><path fill="#98CEFF" d="M13.114 103.814l.578.34v7.122l-.578.34-.577-.34-.002-7.146z"/><path fill-opacity=".3" fill="#025EC8" d="M13.692 111.276v-7.829l-.578.328v7.84z"/><path fill="#3895FF" d="M13.113 101.773l4.542 2.779v2.1l-4.542 2.778-4.541-2.779v-2.1z"/><path fill="#98CEFF" d="M13.113 101.773l4.542 2.779-4.542 2.778-4.541-2.778 4.541-2.779"/><path fill="#3895FF" d="M13.113 100.535l3.426 2.095v1.583l-3.426 2.096-3.425-2.096v-1.583z"/><path fill="#328FF9" d="M13.113 109.43v-2.1l4.542-2.778v2.1z"/><path fill="#98CEFF" d="M13.113 100.535l3.426 2.095-3.426 2.096-3.425-2.096 3.425-2.095"/><path fill="#3895FF" d="M13.113 99.473l2.47 1.511v1.142l-2.47 1.511-2.47-1.511v-1.142z"/><path fill="#328FF9" d="M13.113 106.309v-1.583l3.426-2.096v1.583z"/><path fill="#98CEFF" d="M13.113 99.473l2.47 1.511-2.47 1.511-2.47-1.511 2.47-1.511"/><path fill="#328FF9" d="M13.113 103.637v-1.142l2.47-1.511v1.142z"/><path fill="#98CEFF" d="M21.686 108.763l.578.34v7.122l-.578.34-.578-.34-.001-7.146z"/><path fill-opacity=".3" fill="#025EC8" d="M22.264 116.225v-7.83l-.578.33v7.84z"/><path fill="#3895FF" d="M21.685 106.722l4.542 2.779v2.099l-4.542 2.779-4.541-2.779v-2.1z"/><path fill="#98CEFF" d="M21.685 106.722l4.542 2.779-4.542 2.778-4.541-2.778 4.541-2.779"/><path fill="#3895FF" d="M21.685 105.483l3.426 2.096v1.583l-3.426 2.096-3.425-2.096v-1.583z"/><path fill="#328FF9" d="M21.685 114.379v-2.1l4.542-2.778v2.099z"/><path fill="#98CEFF" d="M21.685 105.483l3.426 2.096-3.426 2.095-3.425-2.095 3.425-2.096"/><path fill="#3895FF" d="M21.685 104.422l2.47 1.511v1.142l-2.47 1.511-2.47-1.511v-1.142z"/><path fill="#328FF9" d="M21.685 111.258v-1.584l3.426-2.095v1.583z"/><path fill="#98CEFF" d="M21.685 104.422l2.47 1.511-2.47 1.511-2.47-1.511 2.47-1.511"/><path fill="#328FF9" d="M21.685 108.586v-1.142l2.47-1.511v1.142z"/></g></svg>