<svg width="76" height="56" viewBox="0 0 76 56" xmlns="http://www.w3.org/2000/svg"><title>tent@2x</title><g fill="none" fill-rule="evenodd"><path fill-opacity=".1" fill="#025EC8" d="M48.855 24.968l26.999 15.07-25.85 14.924-13.311-7.685L51.15 26.012"/><path fill="#3895FF" d="M62.929 23.273L36.129 7.8l12.726 16.65 26.999 15.587z"/><path fill="#98CEFF" d="M72.874 38.317L59.948 21.78l-12.925 31.46z"/><path fill="#3895FF" d="M59.948 21.922v23.857l12.926-7.462z"/><path fill="#98CEFF" d="M59.948 21.922v11.317l2.98 14.26 2.68-4.988 7.266-4.194z"/><path fill="#C7E3FC" d="M36.128 7.8l26.8 15.473-12.924 31.689-26.999-15.588z"/><path fill-opacity=".1" fill="#025EC8" d="M21.406 35.004l2.732 1.672.994-2.43 12.521 7.497-2.122 4.894-14.125 8.642-16.57-10.137 16.57-10.138"/><path fill="#98CEFF" d="M16.573 15.839l2.108 1.24v25.983l-2.108 1.24-2.107-1.24-.007-26.07z"/><path fill-opacity=".3" fill="#025EC8" d="M18.681 43.062V14.5l-2.108 1.198v28.605z"/><path fill="#3895FF" d="M16.57 8.393l16.57 10.138v7.659L16.57 36.327 0 26.19v-7.66z"/><path fill="#98CEFF" d="M16.57 8.393l16.57 10.138-16.57 10.137L0 18.531 16.57 8.393"/><path fill="#3895FF" d="M16.57 3.874l12.497 7.646v5.776L16.57 24.941 4.073 17.296V11.52z"/><path fill="#328FF9" d="M16.57 36.327v-7.659l16.57-10.137v7.659z"/><path fill="#98CEFF" d="M16.57 3.874l12.497 7.646-12.497 7.645L4.073 11.52 16.57 3.874"/><path fill="#3895FF" d="M16.57 0l9.013 5.514V9.68l-9.013 5.514L7.557 9.68V5.514z"/><path fill="#328FF9" d="M16.57 24.941v-5.776l12.497-7.645v5.776z"/><path fill="#98CEFF" d="M16.57 0l9.013 5.514-9.013 5.514-9.013-5.514L16.57 0"/><path fill="#328FF9" d="M16.57 15.194v-4.166l9.013-5.514V9.68z"/></g></svg>