<svg clip-rule="evenodd" fill-rule="evenodd" stroke-linejoin="round" stroke-miterlimit="1.41421" viewBox="0 0 232 68" xmlns="http://www.w3.org/2000/svg" xmlns:xlink="http://www.w3.org/1999/xlink"><clipPath id="a"><path clip-rule="evenodd" d="m29.962 1.633c1.613-.931 3.599-.931 5.211 0 5.565 3.213 18.558 10.714 24.123 13.927 1.612.931 2.606 2.651 2.606 4.513v27.854c0 1.862-.994 3.582-2.606 4.513-5.565 3.213-18.558 10.714-24.123 13.927-1.612.931-3.598.931-5.211 0-5.565-3.213-18.557-10.714-24.122-13.927-1.612-.931-2.606-2.651-2.606-4.513 0-6.426 0-21.428 0-27.854 0-1.862.994-3.582 2.606-4.513 5.565-3.213 18.557-10.714 24.122-13.927z"/></clipPath><g clip-path="url(#a)"><path d="m29.962 1.633c1.613-.931 3.599-.931 5.211 0 5.565 3.213 18.558 10.714 24.123 13.927 1.612.931 2.606 2.651 2.606 4.513v27.854c0 1.862-.994 3.582-2.606 4.513-5.565 3.213-18.558 10.714-24.123 13.927-1.612.931-3.598.931-5.211 0-5.565-3.213-18.557-10.714-24.122-13.927-1.612-.931-2.606-2.651-2.606-4.513 0-6.426 0-21.428 0-27.854 0-1.862.994-3.582 2.606-4.513 5.565-3.213 18.557-10.714 24.122-13.927z" fill="#0da7fe"/><path d="m3.234 50.939 15.237-16.939 14.097 33.871z" fill="#1a67fd"/><path d="m18.471 34-15.031-17.054-.206 33.993z" fill="#0da7fe"/><path d="m18.471 34 14.097-33.871-29.128 16.817z" fill="#05bbff"/><path d="m32.568.129 29.334 50.807-43.431-16.936" fill="#00c9ff"/><path d="m32.568 67.929 29.334-16.99-43.431-16.939z" fill="#1a86fd"/><path d="m61.902 50.936v-33.872l-29.334-16.935z" fill="#05bbff"/></g><path d="m30.044 50.922c.243.009.488.014.734.014-.287 0-.572-.006-.856-.019zm.857.013-.123.001.131-.001zm.122-.001-.071.001.088-.001zm.123-.002-.055.001.08-.001zm.122-.002-.044.001.078-.002zm.122-.004-.034.001.077-.002zm.122-.004-.025.001.08-.003zm.121-.005-.016.001.088-.004zm.243-.012c-.043.002-.086.004-.129.007zm.121-.008-.118.007.126-.007zm.121-.008-.07.005.086-.006zm.12-.009-.054.004.079-.006zm.121-.009-.043.003.076-.006zm.12-.01-.033.002.076-.006zm.12-.011-.024.002.078-.008zm.12-.012-.016.001.086-.009zm.239-.026c-.043.005-.085.009-.127.014zm.119-.014-.114.013.122-.014zm.118-.015-.068.009.085-.011zm.119-.015-.053.007.078-.011zm.119-.017-.042.006.075-.01zm.118-.016-.033.004.076-.011zm.118-.018-.024.003.078-.012zm.117-.019-.015.003.086-.014zm.236-.039c-.042.008-.084.015-.125.022zm.116-.02-.109.019.118-.021zm.117-.021-.067.012.083-.015zm.116-.022-.051.009.076-.014zm.117-.023-.041.008.074-.015zm.116-.023-.032.006.074-.015zm.115-.024-.023.004.077-.016zm.116-.025-.015.003.084-.019zm.231-.052c-.041.009-.082.019-.123.028zm.114-.027-.105.025.113-.027zm.114-.027-.065.015.081-.019zm.114-.029-.05.013.075-.019zm.114-.029-.04.011.073-.019zm.114-.029-.031.008.073-.019zm.113-.03-.022.006.075-.021zm.113-.031-.014.003.084-.023zm.227-.065c-.041.012-.081.023-.121.035zm.111-.033-.102.03.11-.032zm.112-.033-.064.019.08-.024zm.111-.035-.049.016.073-.023zm.112-.035-.04.013.072-.023zm.111-.035-.031.009.072-.023zm.11-.037-.022.007.075-.024zm.111-.037-.014.005.083-.029zm.221-.076c-.039.014-.078.027-.118.041zm.108-.039-.1.036.109-.039zm.11-.039-.064.022.08-.028zm.108-.041-.048.018.073-.027zm.109-.041-.038.015.07-.027zm.108-.041-.029.011.071-.027zm.108-.042-.021.008.074-.029zm.108-.043-.014.005.084-.034zm.216-.089c-.038.016-.077.032-.115.048zm.105-.044-.1.042.109-.046zm.106-.045-.062.027.079-.034zm.106-.046-.048.021.073-.032zm.106-.047-.038.017.07-.031zm.105-.047-.029.013.071-.032zm.105-.048-.021.01.074-.034zm.105-.048-.014.006.086-.04zm.097-.046.114-.055c-.752-.361-1.407-.751-1.969-1.186-.839-.647-1.786-1.611-2.639-2.955-.401-.631-.734-1.295-1.056-2.217-.312-.895-.999-3.384-.053-5.805.168-.425.643-1.275.581-1.266-.205.026-1.461 1.661-1.636 3.588-.225 2.477.897 4.803.897 4.803.048.119-2.878-1.245-3.905-4.275-1.436-4.237 1.26-8.077 1.372-8.233.876-1.217 1.922-2.169 2.343-2.532l-.021-.001s.233-.266.158-.158c.304-.437.454-.847.264-1.214-.134-.261-.643-.447-1.266-.422-.29.011-1.138.217-1.534.316-.246.1-.672.251-1.211.475-.685.285-1.555.639-2.427 1.161-1.549.928-2.763 1.966-3.8 3.008-2.777 2.791-3.494 5.826-3.167 6.439-.496-.929-.179-2.844.106-3.641 1.506-4.224 4.933-6.605 6.702-7.969 2.233-1.722 3.294-3.453 3.431-3.8.687-1.751 1.801-2.82 3.43-3.22 1.135-.278 2.498-.214 3.548.239 2.16.754 4.762 2.957 3.049 7.678-.576 1.485-1.844 2.787-2.695 3.539-.198.22-.505.431-1.105 1.105-.784.88-1.597 2.132-1.161 2.005 1.895-1.237 4.209-1.753 7.019-1.583 1.919.116 3.897.601 4.856.897.619.192 1.462.485 2.445.89l.023-.16c-.892 6.445-5.022 11.86-10.693 14.549zm10.705-14.636-.008.059.018-.139zm.033-.258c-.007.052-.013.105-.02.157zm.011-.099-.008.072.015-.133zm.027-.249c-.005.052-.011.104-.016.156zm.011-.109-.009.089.013-.137zm.033-.397c-.007.104-.016.208-.025.311l.013-.156zm.007-.085-.004.045.01-.137zm.016-.268c-.003.052-.006.104-.009.155zm.005-.095-.003.056.007-.128zm.012-.26c-.002.052-.004.103-.007.155zm.003-.105-.002.071.004-.128zm.007-.252c-.001.052-.002.104-.004.156zm.002-.114-.002.09.002-.136zm-.045-1.585c.03.442.046.889.046 1.34 0 .052 0 .105-.001.157l.001-.157c0-.451-.016-.898-.046-1.34zm-18.013-6.9c-.083-.172-.026-.408.053-.527.096-.144.168-.243.475-.317.533-.128.77.265.792.422.032.237-.031.333-.106.422-.095.114-.307.239-.633.241-.093.001-.458.013-.581-.241zm-10.311-8.278c.042-.024.084-.048.125-.071l-.1.056zm8.158 35.472c-1.371-.087-2.702-.319-3.978-.682l.112.032c1.28.355 2.614.579 3.987.658zm-4.315-.781c-.149-.046-.297-.093-.445-.142l.111.037c.148.048.297.094.446.138zm-.665-.216c-.037-.013-.074-.026-.11-.039l.11.039c.036.012.073.025.11.037zm-.329-.117c-.218-.08-.434-.164-.649-.252l.108.044c.215.086.432.169.65.247zm-.862-.341c-.213-.09-.424-.184-.633-.281l.104.048c.21.096.422.189.635.278zm-1.356-.638c-1.632-.849-3.126-1.928-4.438-3.194l.082.079c1.32 1.258 2.82 2.328 4.458 3.168zm-4.601-3.353c-.378-.374-.741-.764-1.087-1.168l.074.086c.349.403.714.79 1.094 1.161zm-1.664-1.875c-.14-.18-.276-.363-.41-.549l.067.093c.135.184.273.366.414.546zm-.737-1.017c-.768-1.137-1.417-2.361-1.927-3.655l.043.108c.518 1.289 1.173 2.509 1.948 3.641zm-2.247-4.527c-.087-.258-.169-.518-.245-.78.087.3.181.596.283.89zm-.34-1.118c-.051-.189-.1-.379-.145-.57.055.23.113.457.176.683zm-.272-1.146c-.04-.193-.077-.387-.11-.582.04.234.085.467.134.698zm-.234-1.408c-.005-.039-.01-.079-.015-.119.01.08.02.159.031.238zm-.054-.477c-.017-.159-.031-.319-.043-.48.015.201.034.401.055.6zm-.099-1.94c0 .122.002.245.004.367l-.002-.122c-.001-.082-.002-.164-.002-.245zm37.901-1.822c-.084-.879-.228-1.74-.427-2.58.208.878.356 1.78.438 2.7zm-.667-3.488c-.044-.15-.089-.299-.136-.447l.035.111c.046.149.09.298.133.448zm-.208-.669c-.037-.111-.075-.221-.114-.33l.039.109c.038.11.075.221.111.332zm-.192-.549c-.16-.437-.335-.865-.526-1.286l.048.105c.187.422.36.852.517 1.29zm-1.032-2.32c-.018-.034-.036-.068-.054-.102l.054.102c.018.034.036.068.053.102zm-25.858-7.852c.033-.018.067-.037.101-.055l-.101.055c-.034.018-.068.037-.101.055zm.406-.215c.034-.017.068-.035.103-.052l-.103.052c-.034.018-.068.035-.102.053zm.412-.205c.035-.016.07-.033.104-.049l-.104.049c-.034.017-.069.034-.103.051zm.842-.38c.745-.316 1.515-.585 2.305-.804l-.112.031c-.789.224-1.556.498-2.3.818zm2.532-.866c.189-.05.379-.097.571-.141l-.115.027c-.191.045-.381.093-.57.145zm1.497-.331c.312-.056.626-.104.943-.144l-.119.015c-.316.043-.629.093-.94.15zm1.54-.21c.239-.023.481-.042.723-.056l-.121.008c-.242.015-.483.035-.722.059zm1.087-.073c.244-.009.488-.014.734-.014-.287 0-.572.007-.856.019z" fill="#0d98fe"/><path d="m29.888 49.781c.243.009.488.014.733.014-.286 0-.571-.006-.855-.019zm.856.014h-.123.131zm.123-.002-.072.001.088-.001zm.122-.001h-.055l.08-.001zm.122-.003-.043.001.077-.002zm.122-.004-.033.001.077-.002zm.122-.004-.025.001.08-.003zm.122-.005-.016.001.087-.004zm.243-.012c-.043.002-.086.005-.13.007zm.12-.008-.117.008.126-.008zm.121-.008-.07.005.087-.006zm.121-.008-.054.004.079-.006zm.12-.01-.042.003.076-.006zm.121-.01-.034.003.077-.007zm.119-.011-.024.002.079-.008zm.12-.012-.016.001.087-.009zm.24-.026c-.043.005-.085.01-.128.014zm.118-.014-.113.013.122-.014zm.119-.015-.068.009.085-.011zm.119-.015-.053.007.078-.011zm.118-.016-.042.005.076-.01zm.118-.017-.032.004.075-.011zm.118-.018-.023.004.077-.012zm.118-.018-.015.002.085-.014zm.235-.039c-.041.007-.083.014-.125.021zm.117-.021-.109.019.117-.02zm.117-.021-.067.012.083-.015zm.116-.022-.052.01.077-.015zm.116-.023-.041.008.074-.014zm.116-.023-.031.006.074-.015zm.116-.024-.023.005.076-.017zm.115-.025-.014.003.084-.018zm.231-.052c-.04.01-.081.019-.122.028zm.114-.027-.105.025.114-.027zm.115-.027-.065.016.081-.02zm.114-.028-.05.012.074-.019zm.114-.029-.04.01.073-.019zm.113-.03-.03.008.072-.019zm.114-.03-.023.006.076-.021zm.113-.031-.015.004.084-.024zm.226-.065c-.04.012-.08.024-.12.035zm.111-.032-.102.03.111-.033zm.112-.034-.064.019.081-.024zm.112-.034-.05.015.074-.023zm.111-.035-.039.012.072-.023zm.111-.036-.03.01.072-.024zm.111-.037-.022.008.074-.025zm.11-.037-.014.005.084-.028zm.222-.076c-.039.014-.079.027-.118.041zm.108-.039-.1.036.109-.039zm.109-.039-.063.023.08-.029zm.109-.041-.049.018.073-.027zm.109-.04-.039.014.071-.027zm.108-.042-.03.011.071-.027zm.108-.042-.022.008.074-.029zm.108-.043-.014.005.084-.034zm.216-.089c-.039.016-.077.032-.116.048zm.105-.044-.1.042.109-.045zm.106-.045-.063.027.08-.034zm.106-.046-.048.021.072-.032zm.106-.047-.039.017.071-.031zm.105-.047-.03.013.071-.032zm.105-.048-.022.01.075-.034zm.105-.048-.015.006.086-.04zm.097-.046.113-.054c-.751-.362-1.406-.752-1.969-1.186-.838-.648-1.785-1.612-2.639-2.956-.4-.631-.734-1.295-1.055-2.216-.312-.895-.999-3.384-.053-5.806.167-.425.643-1.274.581-1.266-.205.027-1.461 1.662-1.636 3.589-.225 2.476.897 4.802.897 4.802.048.119-2.879-1.245-3.906-4.275-1.436-4.237 1.261-8.077 1.373-8.233.876-1.217 1.921-2.169 2.343-2.532l-.021-.001s.233-.266.158-.158c.303-.437.453-.847.264-1.214-.135-.261-.644-.447-1.267-.422-.289.011-1.137.217-1.533.316-.246.101-.672.252-1.211.475-.685.285-1.555.639-2.428 1.161-1.548.928-2.762 1.967-3.799 3.009-2.778 2.791-3.494 5.825-3.167 6.438-.496-.929-.179-2.843.106-3.641 1.506-4.224 4.933-6.605 6.702-7.969 2.233-1.722 3.294-3.453 3.43-3.8.688-1.751 1.801-2.82 3.431-3.219 1.135-.279 2.498-.215 3.547.238 2.161.754 4.763 2.957 3.05 7.678-.576 1.485-1.844 2.787-2.695 3.539-.199.22-.505.431-1.105 1.105-.784.881-1.597 2.132-1.161 2.006 1.895-1.238 4.209-1.753 7.019-1.584 1.918.116 3.897.602 4.855.897.62.192 1.462.485 2.446.89l.023-.159c-.892 6.444-5.023 11.859-10.693 14.548zm10.705-14.636-.009.06.019-.14zm.032-.258c-.006.053-.013.105-.019.157zm.012-.099-.009.073.016-.134zm.027-.249c-.006.052-.011.104-.017.156zm.01-.109-.008.09.013-.138zm.034-.397c-.008.104-.016.208-.026.311l.014-.156zm.006-.084-.003.044.009-.137zm.017-.269c-.003.052-.006.104-.009.155zm.005-.095-.003.056.007-.128zm.011-.26c-.001.052-.004.104-.006.155zm.004-.104-.002.07.004-.128zm.006-.253c-.001.052-.002.104-.003.156zm.002-.114-.001.09.002-.135zm-.045-1.585c.031.442.047.889.047 1.34 0 .052 0 .105-.001.157l.001-.157c0-.451-.016-.898-.047-1.34zm-18.012-6.899c-.084-.173-.027-.409.053-.528.095-.144.168-.243.475-.317.532-.128.77.265.791.422.032.237-.03.334-.105.423-.096.113-.307.239-.634.24-.092.001-.457.013-.58-.24zm-10.311-8.279c.042-.024.083-.047.125-.071l-.1.056zm8.157 35.472c-1.37-.086-2.701-.319-3.978-.682l.113.032c1.28.355 2.614.579 3.986.658zm-4.314-.781c-.149-.045-.298-.093-.445-.142l.111.037c.148.048.296.094.446.139zm-.666-.216c-.036-.013-.073-.026-.11-.039l.11.039c.037.012.074.025.11.037zm-.328-.117c-.218-.08-.435-.164-.649-.252l.107.044c.215.086.432.169.651.247zm-.863-.341c-.213-.09-.424-.184-.633-.281l.105.048c.21.097.421.189.635.278zm-1.355-.638c-1.633-.849-3.126-1.928-4.438-3.194l.082.079c1.32 1.258 2.82 2.328 4.458 3.168zm-4.601-3.353c-.379-.374-.741-.764-1.087-1.168l.074.087c.348.402.713.789 1.094 1.161zm-1.664-1.875c-.14-.18-.277-.363-.41-.548l.067.092c.134.185.272.367.413.546zm-.737-1.017c-.769-1.137-1.417-2.361-1.928-3.655l.043.108c.518 1.29 1.174 2.51 1.949 3.642zm-2.247-4.527c-.087-.258-.169-.517-.245-.78.087.3.181.597.282.89zm-.341-1.118c-.051-.189-.099-.378-.144-.569.054.229.113.456.175.682zm-.272-1.145c-.039-.194-.076-.388-.11-.583.041.234.085.467.134.698zm-.233-1.409c-.005-.039-.01-.079-.015-.119.01.08.02.159.03.238zm-.055-.477c-.016-.159-.03-.319-.042-.48.015.201.033.401.055.6zm-.098-1.94c0 .123.001.245.004.367l-.002-.122c-.001-.082-.002-.163-.002-.245zm37.9-1.821c-.083-.879-.227-1.741-.427-2.581.209.878.357 1.78.439 2.701zm-.667-3.489c-.043-.15-.089-.299-.136-.447l.035.111c.047.149.091.298.134.449zm-.208-.669c-.037-.11-.074-.221-.113-.33l.038.11c.038.11.076.22.112.331zm-.191-.549c-.16-.436-.336-.865-.526-1.286l.047.106c.188.422.361.852.518 1.289zm-1.032-2.32c-.018-.034-.036-.068-.054-.101l.054.101c.017.034.035.068.053.102zm-25.859-7.852c.034-.018.068-.036.101-.054l-.101.054c-.033.018-.067.037-.101.055zm.407-.214c.034-.018.068-.035.102-.053l-.102.053c-.034.017-.068.035-.102.052zm.412-.206c.035-.016.069-.033.104-.049l-.104.049c-.034.017-.069.034-.103.051zm.841-.38c.746-.316 1.516-.585 2.306-.804l-.113.031c-.788.225-1.556.498-2.299.818zm2.532-.866c.19-.05.38-.097.571-.141l-.114.027c-.191.045-.381.094-.57.145zm1.498-.331c.312-.056.626-.104.943-.144l-.119.016c-.316.042-.63.092-.941.149zm1.539-.21c.24-.023.481-.042.723-.055l-.121.007c-.241.015-.482.035-.721.059zm1.088-.073c.243-.009.488-.014.733-.014-.286 0-.571.007-.855.019z" fill="#d6ffff"/><g fill="#1a86fd" fill-rule="nonzero"><g transform="matrix(.93177324 0 0 .93177324 -.280358 -12.068996)"><path d="m83.601 21.613h3.443v25.505h-3.443z"/><path d="m93.13 21.613h4.044c2.656 0 4.825.577 6.506 1.731 1.682 1.155 2.523 2.613 2.523 4.375 0 2.148-1.241 3.943-3.724 5.385 3.844 1.281 5.766 3.503 5.766 6.666 0 2.203-.991 3.978-2.973 5.326s-4.634 2.022-7.958 2.022h-4.184zm3.444 3.083v7.547c1.921-.027 3.393-.394 4.414-1.101s1.531-1.682 1.531-2.923c0-1.081-.46-1.945-1.381-2.592-.921-.648-2.155-.971-3.704-.971-.333 0-.62.013-.86.04zm0 10.57v8.729h.28c3.003 0 5.051-.481 6.146-1.442 1.094-.961 1.641-1.942 1.641-2.943 0-1.321-.614-2.375-1.841-3.163-1.228-.787-2.91-1.181-5.045-1.181z"/><path d="m113.09 21.613h3.443v25.505h-3.443z"/><path d="m137.694 24.435-2.823 2.263c-.747-.774-1.425-1.352-2.032-1.732s-1.485-.571-2.633-.571c-1.254 0-2.272.284-3.053.851-.78.567-1.171 1.298-1.171 2.192 0 .774.341 1.458 1.021 2.052.681.594 1.842 1.242 3.484 1.942 1.641.701 2.919 1.355 3.833 1.962.915.607 1.665 1.278 2.253 2.012.587.734 1.024 1.508 1.311 2.322.287.815.43 1.675.43 2.583 0 2.122-.77 3.93-2.312 5.425-1.541 1.495-3.407 2.242-5.595 2.242-2.136 0-4.021-.583-5.656-1.751s-2.893-2.92-3.774-5.255l3.484-.981c1.268 2.869 3.21 4.304 5.825 4.304 1.268 0 2.323-.381 3.164-1.141.84-.761 1.261-1.722 1.261-2.883 0-.694-.22-1.391-.661-2.092-.44-.701-.988-1.278-1.641-1.732-.654-.454-1.699-.971-3.134-1.551-1.434-.581-2.535-1.115-3.303-1.602-.767-.487-1.431-1.068-1.992-1.742-.56-.674-.971-1.344-1.231-2.012-.26-.667-.39-1.381-.39-2.142 0-1.828.734-3.386 2.202-4.674s3.25-1.932 5.345-1.932c1.388 0 2.796.3 4.224.901 1.428.6 2.616 1.515 3.564 2.742z"/><path d="m140.857 44.775c0-.734.263-1.368.791-1.902.527-.533 1.164-.8 1.911-.8.734 0 1.368.267 1.902.8.534.534.801 1.168.801 1.902 0 .748-.264 1.385-.791 1.912s-1.164.791-1.912.791c-.747 0-1.384-.26-1.911-.781-.528-.52-.791-1.161-.791-1.922z"/><path d="m151.287 21.613h3.443v22.061h8.308v3.444h-11.751z"/><path d="m165.1 34.205c0-3.684 1.388-6.84 4.164-9.469 2.777-2.629 6.113-3.944 10.01-3.944 3.804 0 7.08 1.325 9.83 3.974 2.749 2.649 4.124 5.795 4.124 9.439 0 3.857-1.358 7.117-4.074 9.78-2.716 2.662-6.049 3.993-10 3.993-3.897 0-7.214-1.341-9.95-4.024-2.736-2.682-4.104-5.932-4.104-9.749zm24.424.16c0-2.816-1.014-5.188-3.043-7.117-2.028-1.928-4.524-2.893-7.487-2.893-2.816 0-5.228.981-7.237 2.943s-3.013 4.318-3.013 7.067c0 2.79 1.031 5.148 3.093 7.077s4.588 2.893 7.577 2.893c2.75 0 5.122-.984 7.117-2.953 1.996-1.969 2.993-4.308 2.993-7.017z"/><path d="m194.829 21.653h3.684l7.988 18.037 8.048-18.037h3.723l-11.811 26.325z"/><path d="m221.435 21.613h14.134v3.483h-10.69v6.366h10.69v3.444h-10.69v8.768h10.69v3.444h-14.134z"/></g><g transform="matrix(.99999899 0 0 .99999899 -7.11306 6.008475)"><path d="m95.888 46.336c-1.296.432-2.664.84-4.104 1.224v-3.768h5.376c.192 1.752.456 3.288.792 4.584.216.864.456 1.68.744 2.472-1.68 1.536-3.648 2.712-5.904 3.528l1.272 1.968c2.064-.792 3.912-1.896 5.568-3.288.36.768.768 1.416 1.224 1.992 1.128 1.416 2.208 2.136 3.24 2.136 1.152 0 2.04-1.728 2.64-5.136l-2.016-1.056c-.312 2.496-.624 3.744-.936 3.744-.384 0-.936-.552-1.656-1.632-.288-.432-.552-.984-.84-1.632 1.488-1.584 2.76-3.48 3.84-5.688l-1.968-1.032c-.768 1.584-1.68 3-2.712 4.248-.12-.384-.24-.792-.336-1.248-.288-1.056-.504-2.376-.648-3.96h7.056v-2.184h-7.248c-.144-1.776-.216-3.84-.216-6.192h-2.304c0 2.256.072 4.32.216 6.192h-5.184v-3.048c1.128-.312 2.208-.648 3.24-1.008l-.792-2.136c-2.592 1.056-5.568 1.752-8.928 2.112l.48 2.16c1.272-.192 2.496-.384 3.696-.624v2.544h-4.752v2.184h4.752v4.296c-1.512.312-3.096.6-4.752.864l.312 2.28c1.536-.24 3-.528 4.44-.84v3.912c0 .576-.312.864-.912.864-.768 0-1.56-.048-2.4-.144l.504 2.184h2.688c1.608 0 2.424-.792 2.424-2.328v-5.016c1.44-.384 2.808-.768 4.104-1.2zm5.808-10.704-1.536 1.464c1.824 1.224 3.216 2.352 4.224 3.408l1.656-1.632c-1.2-1.08-2.64-2.16-4.344-3.24z"/><path d="m117.536 39.328h-3.696c.456-1.152.816-2.376 1.056-3.696l-2.28-.312c-.192 1.392-.528 2.712-.96 4.008h-2.28v17.4h2.184v-1.944h3.792v1.248h2.184zm-5.976 13.344v-4.728h3.792v4.728zm0-6.768v-4.416h3.792v4.416zm10.296-.816-1.848 1.152c1.536 1.944 2.784 3.696 3.696 5.28l1.8-1.272c-.84-1.488-2.064-3.192-3.648-5.16zm8.064-5.736h-7.416c.384-1.176.72-2.424.96-3.768l-2.256-.288c-.576 3.312-1.68 6.12-3.264 8.424l1.368 1.8c.912-1.2 1.68-2.52 2.352-3.96h6.024c-.048 6.84-.12 10.872-.264 12.072-.144 1.008-.696 1.512-1.656 1.512-.768 0-1.68-.048-2.736-.096l.552 2.088c1.2.072 2.064.12 2.544.12 2.04 0 3.192-.864 3.432-2.592.24-1.92.36-7.032.36-15.312z"/><path d="m140.144 35.416v4.992h-5.976v2.256h5.904c-.192 2.952-.744 5.4-1.608 7.344-1.008 2.112-2.928 3.864-5.76 5.232l1.32 2.112c2.88-1.32 4.968-3.192 6.264-5.616 1.152-2.328 1.848-5.352 2.064-9.072h4.752v11.496c0 1.992 1.056 3 3.216 3h1.152c1.536 0 2.448-.624 2.736-1.872.168-.528.336-1.92.504-4.224l-2.136-.624c0 1.2-.048 2.304-.12 3.36-.144.744-.48 1.128-1.008 1.128h-.768c-.816 0-1.224-.384-1.224-1.128v-13.392h-7.032v-4.992z"/><path d="m161.168 42.04v3.384h-2.016c.6-1.44 1.152-3.072 1.68-4.896h4.896v-2.208h-4.32c.192-.84.384-1.728.576-2.64l-2.16-.312c-.192 1.032-.408 2.016-.624 2.952h-2.688v2.208h2.112c-.552 1.992-1.152 3.624-1.776 4.92l.48 2.016h3.84v3.144c-1.464.24-3.024.456-4.656.648l.288 2.232c1.512-.192 2.976-.432 4.368-.672v4.68h2.184v-5.112c1.056-.24 2.088-.48 3.072-.72v-2.16c-.96.24-1.992.48-3.072.696v-2.736h2.496v-2.04h-2.496v-3.384zm5.52-3.72v2.208h3.192c-.168.72-.336 1.464-.504 2.232h-3.384v2.184h2.832c-.432 1.584-.864 3.12-1.344 4.584h7.968c-.744 1.152-1.752 2.28-3 3.384-1.056-.6-2.16-1.152-3.312-1.632l-1.224 1.8c2.592 1.104 5.112 2.616 7.584 4.536l1.272-1.968c-.792-.576-1.608-1.152-2.472-1.68 1.584-1.536 2.736-3.048 3.504-4.584v-1.872h-7.488c.24-.792.504-1.656.768-2.568h7.68v-2.184h-7.128c.168-.72.336-1.464.504-2.232h6.024v-2.208h-5.568c.144-.888.312-1.8.48-2.76l-2.232-.216c-.168 1.008-.336 1.992-.528 2.976z"/><path d="m185.264 42.592v1.344h5.256v2.904h-8.376v2.112h8.376v5.88h-2.304c-.576-1.8-1.2-3.336-1.872-4.632l-2.04.744c.672 1.224 1.248 2.52 1.704 3.888h-4.704v2.16h20.664v-2.16h-4.632c.624-1.2 1.2-2.544 1.728-4.056l-2.064-.744c-.576 1.704-1.224 3.312-1.968 4.8h-2.256v-5.88h8.352v-2.112h-8.352v-2.904h5.256v-1.248c1.008.576 2.112 1.104 3.264 1.584l1.296-1.896c-4.464-1.848-7.8-4.152-10.032-6.936h-1.824c-2.592 2.832-5.952 5.16-10.104 6.984l1.32 1.896c1.152-.528 2.256-1.104 3.312-1.728zm11.448-.696h-10.32c1.92-1.248 3.672-2.688 5.256-4.32 1.416 1.632 3.096 3.072 5.064 4.32z"/><path d="m204.92 45.904v2.184h4.296c-.336 3.096-1.344 5.712-3.048 7.872l1.752 1.584c2.064-2.496 3.264-5.664 3.648-9.456h9.072v6.144c0 .648-.264.984-.792.984-.816 0-1.728-.048-2.712-.12l.6 2.208h2.808c1.632 0 2.448-.768 2.448-2.256v-6.96h3.336v-2.184h-3.336v-9.696h-13.632v9.696zm15.72 0h-8.952v-7.608h8.952zm-5.424-6.624-1.848 1.152c1.44 1.632 2.592 3.144 3.456 4.488l1.8-1.248c-.816-1.248-1.944-2.712-3.408-4.392z"/></g></g></svg>