<svg clip-rule="evenodd" fill-rule="evenodd" stroke-linejoin="round" stroke-miterlimit="1.41421" viewBox="0 0 48 48" xmlns="http://www.w3.org/2000/svg"><path d="m22.828.262c-.778.272-18.506 10.566-18.956 11.007-.469.459-.816 1.087-1.013 1.809-.206.825-.215 21.103 0 21.919.404 1.547.769 1.875 4.5 4.031 1.65.947 5.597 3.225 8.775 5.063 3.178 1.828 6.01 3.45 6.282 3.59.431.225.646.263 1.453.3.834.038 1.003.01 1.5-.187.3-.122 4.565-2.541 9.459-5.363 6.535-3.769 9.028-5.259 9.356-5.578.582-.553.994-1.397 1.107-2.222.103-.843.103-20.325 0-21.168-.122-.882-.544-1.707-1.163-2.26-.619-.562-18.431-10.847-19.041-11.006-.628-.15-1.715-.122-2.259.066zm-.167 35.272h-.09.096zm-.623-.01.066.002.067.002.006.001h.005.019l.036.001h.012l.01.001h.019l.026.001h.019.014.015l.019.001h.026.018.01.012l.037.001h.019.006-.025l-.049-.001h-.028l-.045-.001h-.029l-.045-.001-.029-.001-.048-.001h-.024l-.073-.003-.071-.002zm.712.009h-.052.064zm.089-.001h-.04l.058-.001zm.089-.002h-.032l.057-.001zm.089-.003-.025.001.056-.002zm.088-.003-.018.001.058-.003zm.089-.004-.012.001.064-.003zm.176-.009c-.031.002-.062.004-.094.005zm.088-.005-.085.005.091-.005zm-4.585-.473h.002l.003.001.019.005.019.006h.003l.002.001.019.005.02.006h.003l.002.001.018.005.021.005.002.001.003.001.018.004.021.006.002.001h.003l.017.005.021.005.003.001.003.001.017.004.021.006h.003l.003.001.017.004.021.006.003.001h.003l.017.005.022.005.002.001h.003l.017.005.022.005.003.001h.002l.017.004.022.006h.003l.002.001.017.004.022.005.003.001.002.001.017.004.022.005.003.001h.003l.017.004.022.005.003.001h.002l.017.004.022.005.003.001.002.001.018.004.022.004.002.001.003.001.017.004.022.004.003.001.002.001.018.003.022.005.002.001h.003l.018.004.021.005h.003l.002.001.018.004.022.004.003.001h.002l.018.004.022.005h.002l.003.001.018.003.021.005h.003l.003.001.018.004.021.004h.003l.002.001.019.004.021.004h.003l.002.001.019.003.021.005h.003l.002.001.019.003.021.004.003.001h.002l.019.004.021.004h.003l.002.001.019.003.021.004.003.001h.002l.02.003.02.004.003.001h.003l.019.004.02.003.003.001h.003l.019.004.021.003.002.001h.003l.02.003.02.004h.003l.002.001.02.003.02.003.003.001h.003l.02.004.02.003h.002l.003.001.02.003.02.003.003.001h.002l.021.003.02.003.002.001h.003l.02.003.02.003.003.001h.002l.021.003.02.003.002.001h.003l.02.003.02.003h.003l.003.001.02.003.02.002.003.001h.002l.021.003.02.003h.002l.003.001.021.002.019.003.003.001h.003l.021.003.019.002.003.001h.003l.02.003.02.002.003.001h.003l.02.003.02.002h.003l.002.001.021.002.02.003h.003.002l.021.003.02.002.003.001h.002l.021.002.02.003h.003.002l.021.003.02.002h.003.003l.02.003.02.002h.003.003l.02.003.02.002h.003.003l.021.002.02.003h.002.003l.021.002.02.002h.003l.002.001.021.002.02.002h.003.003l.02.002.021.002h.002.003l.021.002.02.002h.003.003l.02.002.02.002h.003.003l.02.002.021.002h.003.002l.021.002.021.001.002.001h.003l.02.001.021.002h.003.003l.02.002.021.001.003.001h.002l.02.001.021.002h.003.003l.02.001.021.002h.003.003.004-.007l-.024-.002-.023-.001-.024-.002-.022-.001-.024-.002-.023-.002-.024-.002-.023-.001-.023-.002-.023-.002-.024-.002-.023-.002-.023-.002-.023-.002-.023-.002-.024-.002-.023-.002-.023-.002-.023-.002-.023-.003-.023-.002-.024-.002-.022-.003-.024-.002-.023-.002-.023-.003-.023-.002-.023-.003-.023-.002-.023-.003-.023-.003-.023-.002-.023-.003-.023-.003-.023-.003-.023-.003-.023-.002-.023-.003-.023-.003-.023-.003-.022-.003-.024-.003-.022-.004-.024-.003-.022-.003-.023-.003-.023-.003-.023-.004-.023-.003-.023-.003-.022-.004-.023-.003-.023-.004-.023-.003-.022-.004-.023-.003-.023-.004-.023-.004-.022-.003-.023-.004-.023-.004-.022-.004-.023-.004-.023-.003-.023-.004-.022-.004-.023-.004-.022-.004-.023-.005-.022-.003-.024-.005-.021-.004-.024-.004-.021-.004-.024-.005-.021-.004-.024-.005-.021-.004-.024-.004-.021-.005-.024-.004-.021-.005-.024-.005-.021-.004-.024-.005-.02-.004-.025-.005-.02-.005-.024-.005-.021-.004-.024-.006-.02-.004-.025-.005-.02-.005-.024-.005-.02-.005-.025-.006-.019-.004-.025-.006-.02-.004-.025-.006-.019-.005-.025-.006-.019-.005-.025-.006-.019-.004-.025-.006-.02-.005-.024-.006-.02-.005-.024-.007-.02-.005-.024-.006-.02-.005-.024-.006-.02-.005-.023-.007-.021-.005-.023-.006-.02-.006-.023-.006-.021-.006-.022-.006-.022-.006-.007-.002.005.002zm4.673.467-.051.004.063-.005zm.088-.006-.039.003.057-.005zm.088-.007-.032.002.056-.004zm.087-.008-.024.002.055-.005zm.087-.008-.017.002.057-.006zm.087-.008-.011.001.063-.007zm.174-.019c-.03.003-.061.007-.092.01zm.087-.01-.083.009.089-.01zm.086-.011-.049.006.061-.008zm.087-.011-.039.005.057-.008zm.086-.012-.031.004.055-.008zm.086-.012-.024.003.055-.008zm.086-.013-.018.002.057-.008zm.085-.014-.011.002.062-.01zm.171-.028c-.03.005-.06.01-.091.015zm.085-.015-.079.014.085-.015zm.085-.015-.049.008.061-.011zm.085-.016-.038.007.056-.011zm.084-.017-.029.006.053-.011zm.085-.017-.023.005.054-.011zm.084-.017-.017.003.056-.012zm.084-.018-.011.002.062-.014zm.168-.038c-.03.007-.06.013-.089.02zm.083-.02-.077.018.083-.019zm.083-.02-.047.012.059-.015zm.083-.02-.037.009.055-.014zm.083-.021-.029.007.053-.013zm.083-.022-.023.006.053-.014zm.082-.022-.016.004.054-.014zm.082-.022-.01.002.061-.017zm.165-.047c-.029.008-.058.017-.088.025zm.081-.024-.074.022.08-.024zm-7.97-.025c-.109-.033-.217-.067-.324-.103l.081.027c.107.035.215.069.324.101zm8.051 0-.046.014.058-.017zm.081-.025-.036.011.054-.016zm.081-.025-.028.009.052-.017zm.081-.026-.022.007.052-.017zm.081-.027-.016.006.054-.018zm.08-.026-.01.003.061-.021zm-8.939-.028c-.027-.009-.054-.018-.08-.028l.08.028c.026.009.053.018.08.028zm9.1-.028c-.028.01-.057.02-.086.03zm.079-.028-.073.026.079-.028zm.079-.029-.046.017.058-.021zm-9.891-.151.019.007.02.008.01.004.009.004.019.008.021.008.01.004.009.003.019.008.021.008.01.004.009.003.019.007.021.008.01.004.009.004.019.007.021.008.01.004.01.003.019.007.02.008.01.004.01.003.019.008.021.007.008.003-.029-.01-.029-.011-.03-.012-.029-.01-.031-.012-.028-.011-.031-.012-.028-.01-.031-.012-.028-.011-.031-.012-.028-.012-.03-.012-.027-.01zm9.971.122-.036.013.053-.02zm.079-.03-.028.011.051-.02zm.078-.03-.021.008.051-.02zm.079-.031-.016.006.054-.021zm.078-.031-.01.004.061-.025zm.157-.065c-.027.012-.056.024-.084.035zm.077-.032-.073.031.079-.033zm-11.137-.169.019.009.019.008.01.005.009.004.019.009.019.008.01.005.009.004.019.008.02.009.01.004.009.005.019.008.019.009.01.004.01.004.019.008.019.009.01.004.009.004.019.008.02.009.01.004.009.004.019.008.02.008.008.004-.028-.012-.028-.012-.03-.013-.028-.012-.029-.013-.029-.012-.029-.013-.028-.013-.03-.013-.028-.012-.029-.013-.028-.013-.029-.013-.027-.013zm11.214.136-.046.02.058-.025zm.077-.033-.035.015.053-.023zm.077-.034-.028.012.052-.023zm.077-.034-.022.009.052-.023zm.076-.035-.016.007.055-.025zm.076-.035-.01.004.062-.029zm.153-.073c-.546-.263-1.023-.547-1.432-.863-.61-.471-1.299-1.172-1.92-2.15-.291-.459-.534-.943-.768-1.613-.227-.651-.726-2.462-.038-4.223.122-.309.468-.927.422-.921-.149.019-1.063 1.209-1.19 2.61-.163 1.802.653 3.494.653 3.494.035.087-2.094-.906-2.841-3.11-1.045-3.082.916-5.876.998-5.989.637-.886 1.398-1.578 1.705-1.842l-.016-.001s.17-.194.115-.115c.221-.318.33-.616.192-.883-.097-.19-.468-.325-.921-.307-.211.008-.828.157-1.116.23-.178.073-.489.183-.88.346-.499.207-1.132.464-1.767.844-1.126.675-2.01 1.431-2.764 2.189-2.02 2.03-2.542 4.238-2.304 4.684-.36-.677-.13-2.069.077-2.65 1.096-3.072 3.589-4.805 4.876-5.797 1.624-1.252 2.397-2.512 2.496-2.764.5-1.274 1.31-2.052 2.495-2.342.826-.203 1.818-.156 2.581.173 1.572.549 3.465 2.151 2.219 5.586-.419 1.08-1.342 2.027-1.961 2.575-.144.16-.367.313-.804.803-.57.641-1.162 1.551-.844 1.459 1.378-.9 3.062-1.275 5.106-1.151 1.396.084 2.835.437 3.532.652.451.139 1.064.353 1.779.647-.677 4.606-3.631 8.476-7.68 10.429h.001l-.011.005c-.024.011-.048.023-.072.034l.072-.034zm-15.521-2.453.015.014.015.014.008.007.007.008.016.014.014.014.008.007.008.007.015.015.015.013.007.007.008.008.016.014.014.014.008.006.008.008.016.014.014.014.008.006.008.008.016.014.014.014.008.006.008.008.016.014.014.013.008.007.008.007.016.015.015.013.007.006.008.008.017.014.014.013.008.006.008.008.016.014.015.013.007.006.009.008.016.014.015.013.007.006.009.007.016.015.015.013.008.006.008.007.016.014.015.013.008.006.008.007.017.014.015.013.007.006.009.008.016.014.016.012.007.006.008.007.017.014.015.013.008.006.008.007.017.014.015.013.008.006.008.007.017.013.016.013.007.006.009.007.017.014.015.012.008.006.008.007.017.014.016.012.007.006.009.007.017.013.015.013.008.006.009.007.016.013.016.012.008.006.008.007.017.013.016.013.008.006.009.006.017.013.016.013.008.006.008.006.017.013.016.012.008.007.008.006.017.013.017.012.008.006.008.007.017.012.016.013.009.006.008.006.017.012.016.013.009.006.008.006.017.012.017.013.008.006.008.006.017.012.017.012.008.007.009.006.016.012.017.012.009.006.008.006.017.012.017.012.009.006.008.006.017.012.017.012.008.007.009.005.016.012.018.012.008.006.009.006.016.012.018.012.009.006.008.006.017.011.017.012.009.006.008.006.017.011.018.013.009.006.008.005.017.011.017.013.009.006.009.005.016.011.018.012.009.006.009.006.016.011.018.012.009.006.009.005.016.011.018.012.01.006.008.005.016.011.019.012.009.006.008.005.017.011.018.012.009.006.009.005.016.011.019.012.009.005.008.006.017.01.019.012.009.006.008.005.017.01.019.012.009.006.008.005.017.01.019.012.009.006.008.005.017.01.019.012.009.005.009.005.017.011.018.011.01.006.008.005.017.01.019.011.01.006.008.005.017.01.019.011.009.006.009.005.017.01.019.011.009.006.009.004.017.01.019.011.009.006.009.005.017.01.019.011.01.005.008.005.017.01.019.011.01.005.009.005.017.01.019.01.009.006.009.005.018.009.019.011.009.005.009.005.017.01.019.01.01.005.009.005.017.01.019.01.01.005.009.005.018.01.019.01.009.005.009.005.018.01.019.01.009.005.009.005.018.009.019.01.01.005.009.005.018.009.019.01.007.004-.026-.014-.027-.014-.029-.015-.027-.014-.028-.015-.027-.015-.028-.015-.027-.015-.029-.015-.026-.015-.029-.015-.026-.015-.028-.016-.027-.014-.028-.016-.026-.015-.029-.016-.025-.015-.029-.016-.026-.015-.028-.017-.026-.014-.028-.017-.026-.015-.028-.017-.025-.015-.029-.017-.025-.015-.028-.017-.026-.016-.028-.017-.025-.015-.028-.018-.025-.015-.028-.018-.025-.015-.028-.018-.025-.016-.028-.017-.025-.016-.027-.018-.025-.016-.028-.018-.024-.016-.028-.018-.025-.016-.027-.018-.025-.017-.027-.018-.025-.016-.026-.019-.025-.016-.027-.019-.025-.017-.026-.018-.025-.017-.027-.018-.025-.018-.026-.018-.025-.017-.025-.019-.025-.018-.026-.018-.025-.018-.026-.018-.025-.018-.025-.019-.025-.018-.025-.019-.025-.018-.025-.019-.025-.018-.025-.019-.025-.019-.025-.018-.025-.019-.024-.019-.025-.019-.024-.019-.026-.019-.024-.019-.025-.02-.024-.018-.025-.02-.023-.019-.026-.02-.023-.018-.025-.021-.023-.018-.026-.021-.023-.019-.025-.02-.023-.019-.025-.021-.023-.019-.025-.021-.023-.018-.025-.022-.022-.019-.025-.021-.023-.019-.024-.021-.023-.019-.025-.022-.022-.019-.025-.022-.022-.019-.024-.022-.022-.019-.025-.022-.022-.019-.024-.022-.022-.02-.024-.022-.022-.02-.024-.022-.022-.02-.024-.022-.022-.02-.024-.022-.022-.02-.023-.022-.022-.021-.023-.022-.023-.021-.021-.02.006.006zm-.915-.96.021.024.02.023.003.004.004.004.021.024.02.022.003.004.004.004.022.025.019.022.003.003.004.004.022.025.019.022.004.003.003.004.023.025.019.021.003.004.004.004.023.025.019.021.003.003.004.005.023.024.02.021.003.004.004.004.023.024.019.021.003.004.004.004.023.024.02.021.003.003.004.004.023.025.02.02.003.004.004.004.023.024.02.02.004.004.004.004.023.023.02.021.003.004.004.004.023.023.021.021.003.004.004.003.023.023.021.021.004.004.004.004.022.022.022.022.003.003-.025-.025-.026-.026-.025-.025-.027-.026-.024-.025-.027-.027-.023-.025-.027-.027-.024-.024-.027-.028-.023-.024-.027-.029-.023-.024-.027-.028-.022-.025-.027-.028-.023-.025-.027-.029-.022-.024-.027-.029-.022-.025-.026-.029-.023-.025-.026-.029-.022-.025-.026-.029-.023-.026-.025-.028-.023-.027-.024-.028.003.004zm-.723-.909.012.017.012.016.006.009.007.008.012.017.012.017.006.008.007.008.012.017.012.017.007.008.006.008.013.017.012.016.006.009.006.008.013.017.013.016.006.008.006.008.013.017.012.016.007.009.006.008.013.016.012.017.006.006-.018-.023-.019-.024-.019-.025-.019-.025-.019-.024-.019-.025-.018-.025-.019-.025-.019-.025-.019-.025-.018-.025-.019-.025-.018-.025-.017-.024zm-1.658-2.989.002.005.002.005.007.017.007.017.002.005.002.005.007.017.007.017.002.005.002.005.007.016.007.018.002.005.002.005.007.016.007.018.002.005.002.004.007.017.007.017.002.005.002.005.007.016.008.018.002.005.002.004.007.016.007.018.003.005.002.005.006.016.008.018.002.005.002.004.007.016.008.018.002.005.002.005.007.015.008.018.002.006.002.004.007.015.008.019.003.005.002.004.006.015.009.019.002.005.002.004.007.015.008.019.003.005.001.004.007.015.009.019.002.005.002.004.007.015.008.018.003.006.002.004.007.014.008.019.003.006.002.004.007.014.008.019.003.005.002.004.007.015.009.019.002.005.002.004.007.014.009.019.003.006.001.004.007.013.009.02.003.005.002.004.007.014.009.019.003.006.002.003.006.014.01.019.003.006.001.004.007.013.01.02.002.005.002.004.007.013.01.02.003.005.001.004.007.013.01.02.003.005.002.004.006.013.01.02.003.005.002.004.006.013.011.02.003.005.001.004.007.012.01.021.003.005.002.004.006.012.011.02.003.006.002.004.006.012.011.02.003.006.002.003.006.012.011.021.003.005.002.004.006.012.011.02.003.006.002.003.006.012.011.02.003.006.002.004.006.011.012.021.003.006.002.003.006.011.011.021.003.006.002.003.006.011.012.021.003.006.002.003.006.012.012.02.003.006.002.003.006.011.012.021.003.006.002.003.006.011.012.021.003.006.002.003.006.011.012.021.003.006.002.003.006.011.012.021.004.005.001.004.007.011.012.02.003.006.002.003.006.011.012.021.004.006.002.003.006.011.012.02.004.006.001.003.007.011.012.021.004.005.001.004.007.01.012.021.004.006.001.003.007.011.012.02.004.006.002.003.006.011.012.02.004.006.002.003.007.011.012.02.003.006.002.003.007.011.012.02.004.006.002.003.007.011.012.02.004.006.002.003.007.011.012.02.003.005.002.004.008.011.012.019.003.006.002.003.008.012.012.019.003.005.003.004.007.011.012.019.004.006.002.003.007.012.013.019.003.005.002.004.008.012.012.018.003.005.003.004.008.012.012.018.003.005.002.004.009.013.011.017.004.005.002.004.009.013.011.017.003.005.003.004.009.014.011.016.003.005.003.004.009.014.011.016.003.005.003.004.004.005-.007-.009-.014-.021-.012-.018-.014-.021-.012-.018-.014-.022-.011-.017-.015-.022-.011-.017-.015-.023-.011-.016-.015-.023-.01-.016-.016-.024-.009-.015-.016-.025-.01-.015-.015-.024-.01-.015-.015-.025-.01-.015-.015-.025-.009-.014-.016-.026-.009-.014-.016-.026-.009-.014-.015-.026-.009-.014-.016-.026-.008-.014-.016-.026-.008-.014-.016-.027-.008-.014-.016-.026-.008-.014-.016-.026-.008-.014-.016-.027-.008-.014-.015-.026-.008-.015-.016-.026-.008-.014-.015-.027-.008-.014-.015-.027-.008-.014-.015-.027-.008-.014-.015-.026-.008-.015-.015-.027-.008-.014-.014-.027-.008-.014-.015-.027-.008-.015-.014-.026-.008-.015-.014-.026-.008-.016-.014-.026-.008-.015-.014-.026-.008-.016-.014-.026-.008-.016-.013-.026-.008-.016-.014-.025-.008-.017-.013-.025-.008-.017-.013-.025-.008-.017-.013-.025-.009-.017-.012-.025-.008-.017-.013-.025-.008-.017-.012-.025-.009-.018-.012-.025-.008-.017-.012-.025-.009-.018-.011-.024-.009-.019-.011-.024-.009-.018-.011-.025-.009-.018-.011-.024-.009-.019-.011-.024-.008-.019-.011-.024-.009-.019-.011-.024-.008-.019-.011-.024-.009-.019-.01-.024-.009-.02-.01-.023-.009-.02-.01-.023-.008-.021-.01-.023-.009-.02-.01-.023-.009-.021-.009-.022-.009-.021-.009-.023-.009-.021-.009-.023-.009-.021-.009-.022-.009-.022-.009-.022-.009-.022-.004-.011.002.006zm-.418-1.198.006.021.012.04.004.011.003.009.006.021.009.03.005.016.005.015.005.018.007.022.007.022.006.019.005.014.005.016.009.029.007.021.003.01.004.01.012.04.007.021.002.005.002.005.023.07.002.004c.008.026.017.051.026.076l-.026-.076-.002-.006-.025-.073-.009-.026-.016-.05-.01-.031-.014-.045-.011-.033-.014-.044-.01-.033-.014-.046-.009-.03-.016-.051-.007-.026zm-.183-.68.003.015.007.027.003.011.002.01.003.013.005.018.004.018.003.013.003.009.003.012.007.027.003.014.001.005.002.005.013.051.001.002.013.051.002.005.001.005.003.014.008.027.002.008-.01-.035-.004-.019-.015-.056-.001-.002-.015-.056-.004-.019-.01-.039-.006-.022-.009-.036-.005-.023-.01-.038-.005-.019zm-.177-.841.003.013.005.029.002.013.002.009.002.012.003.019.004.02.002.012.002.009.002.012.006.029.002.014.013.063.012.064.003.013.006.029.002.008-.008-.037-.004-.018-.011-.059c-.004-.019-.008-.039-.012-.059l-.003-.018-.008-.041-.004-.021-.007-.039-.004-.021-.007-.042-.004-.018.001.005zm27.276-.406.016-.109c-.005.036-.01.073-.016.109l-.001.007.001-.006zm.025-.172-.006.043.013-.101zm.023-.188c-.004.038-.009.076-.014.114zm-27.425.101-.011-.086zm27.434-.173-.006.053.011-.097zm.019-.181c-.003.038-.007.075-.012.113zm-27.493.007.001.01-.001-.017zm27.501-.087-.006.066.009-.1zm.017-.197.008-.091c-.003.03-.005.061-.008.091l-.001.021-.002.021c-.003.031-.005.062-.008.093l.008-.093.002-.02zm.012-.153-.002.033.007-.1zm.012-.195c-.002.038-.004.075-.006.113zm.004-.069-.002.041.005-.093zm.008-.189c-.001.037-.003.075-.004.112zm.003-.076-.002.051.003-.093zm.005-.184c-.001.038-.002.075-.003.113zm.001-.083-.001.066.001-.099zm-27.634-.048v-.057-.014-.059.044.015.007.007.057l.001.003v.011.034.009-.043zm27.609-.986.003.055.003.055.001.017.002.038.001.021.002.034.001.023.001.032.001.024.001.031.001.025.001.031.001.024.001.031.001.025v.031l.001.025.001.031v.024l.001.032v.024l.001.032v.023.034l.001.022v.037.019.056l-.001.114c.001-.038.001-.076.001-.114 0-.019 0-.038 0-.056v-.002-.017-.033-.004-.004l-.001-.018v-.028-.006-.005-.018l-.001-.024v-.008-.007-.017l-.001-.022v-.01-.009-.015l-.001-.019v-.012-.011l-.001-.014v-.017-.014l-.001-.012v-.013l-.001-.014v-.017-.014l-.001-.01v-.012l-.001-.019v-.016l-.001-.009v-.01l-.001-.021-.001-.017v-.007-.008l-.001-.024-.001-.018v-.005l-.001-.006-.001-.028-.001-.018v-.003-.004l-.002-.034-.001-.016v-.001c-.002-.036-.004-.072-.006-.108v-.002c-.001-.02-.003-.039-.004-.059zm-.329-2.268.009.038.005.025.008.034.006.027.007.032.006.027.007.032.006.028.006.031.006.028.007.032.005.028.007.031.005.028.007.031.005.029.006.031.006.029.005.031.006.028.005.031.006.029.005.031.005.029.006.031.005.029.005.031.005.029.005.032.005.028.005.032.004.028.005.033.005.027.005.034.004.027.005.035.004.025.005.04.003.021.008.06.009.061.002.02.005.041.003.024.005.037.003.025.004.035.003.027.004.034.003.028.004.034.003.027.003.034.003.028.003.033.003.028.003.03-.001-.009-.002-.021-.001-.017-.002-.011-.001-.011-.002-.022-.002-.019-.001-.009-.001-.01-.002-.024-.002-.02-.001-.007-.001-.009-.003-.025-.002-.021-.001-.007-.001-.007-.003-.027-.002-.021-.001-.006-.001-.005-.003-.03-.003-.022v-.003l-.001-.005-.004-.032-.002-.022-.001-.002v-.003l-.005-.038-.002-.019-.001-.003-.008-.059-.008-.059v-.003l-.003-.019-.005-.037v-.003l-.001-.003-.003-.022-.005-.031v-.004l-.001-.004-.003-.023-.005-.028v-.006l-.001-.005-.004-.022-.004-.026-.001-.007-.001-.007-.003-.021-.004-.024-.001-.008-.002-.008-.003-.02-.004-.023-.001-.009-.002-.009-.003-.02-.003-.02-.002-.011-.002-.011-.003-.018-.004-.019-.002-.012-.002-.012-.003-.017-.003-.017-.002-.014-.003-.013-.003-.016-.003-.016-.002-.015-.003-.014-.003-.014-.002-.015-.003-.016-.003-.016-.003-.013-.002-.013-.004-.018-.003-.017-.002-.012-.003-.012-.004-.019-.003-.017-.002-.011-.002-.011-.005-.02-.003-.019-.002-.009-.002-.01-.005-.022-.004-.02-.002-.008-.001-.007-.005-.024-.005-.021-.001-.007-.002-.006-.005-.026-.005-.021-.001-.006-.001-.005-.006-.027-.005-.023-.001-.004-.001-.004-.007-.03-.005-.022v-.003l-.001-.002-.008-.036-.005-.019v-.001l.005.02zm-.193-.739c-.032-.109-.065-.218-.099-.326l.025.081c.034.109.066.217.097.327zm-.199-.628.01.031.01.029.011.031.01.03.009.028-.003-.008-.006-.02-.007-.02-.003-.01-.004-.01-.007-.021-.006-.019-.004-.01-.003-.01-.007-.021-.007-.019-.003-.008zm-.432-1.099.014.031.011.026.014.032.011.026.014.032.011.025.014.033.011.025.013.033.011.025.014.033.01.025.014.034.01.025.013.033.01.026.014.033.01.025.013.034.01.025.013.034.01.026.012.032.011.027.012.032.01.028.012.032.01.028.011.029-.003-.008-.008-.021-.007-.019-.003-.009-.004-.011-.008-.021-.007-.018-.003-.01-.004-.01-.008-.022-.007-.018-.004-.009-.004-.01-.008-.022-.007-.018-.003-.008-.004-.011-.009-.023-.007-.017-.003-.008-.004-.011-.009-.023-.007-.017-.003-.008-.005-.011-.009-.022-.006-.017-.004-.009-.004-.011-.009-.022-.007-.017-.003-.008-.005-.011-.009-.023-.007-.016-.003-.009-.005-.011-.009-.022-.007-.017-.004-.008-.004-.011-.009-.022-.008-.017-.003-.008-.005-.011-.009-.022-.007-.017-.004-.008-.005-.011-.009-.021-.007-.018-.004-.008-.005-.011-.009-.021-.008-.017-.003-.009-.005-.011-.009-.02-.008-.018-.003-.008zm-11.959-.404c-.061-.126-.019-.298.039-.384.069-.105.122-.177.345-.231.388-.093.561.193.576.307.023.172-.022.243-.077.308-.069.082-.223.173-.46.175-.068 0-.333.009-.423-.175zm11.548-.443c-.013-.025-.026-.049-.039-.074l.039.074c.013.024.026.049.039.074zm-19.031-5.591-.018.011.04-.023zm.219-.121c.025-.014.049-.027.074-.04l-.074.04c-.024.013-.048.026-.073.04zm.296-.156c.025-.013.05-.026.075-.038l-.075.038c-.025.012-.049.025-.074.038zm.3-.15c.025-.012.051-.024.076-.036l-.076.036c-.025.013-.05.025-.075.037zm2.208-.839-.013.004-.013.004-.014.004-.014.004-.013.004-.013.003-.014.004-.014.004-.013.004-.012.004-.014.004-.014.004-.013.004-.013.004-.014.004-.014.004-.013.004-.012.004-.014.004-.014.005-.013.004-.013.003-.013.005-.015.004-.013.004-.012.004-.013.004-.015.005-.013.004-.012.004-.013.004-.015.005-.013.004-.012.004-.013.004-.015.005-.013.004-.012.004-.013.004-.015.005-.013.004-.012.004-.013.005-.015.004-.013.005-.012.004-.013.004-.014.005-.013.005-.012.004-.013.004-.015.005-.013.004-.012.005-.013.004-.014.005-.013.005-.012.004-.013.004-.015.005-.013.005-.012.004-.013.005-.014.005-.013.005-.012.004-.013.004-.014.006-.013.004-.012.005-.013.004-.015.006-.013.004-.011.005-.013.004-.015.006-.013.004-.011.005-.013.005-.015.005-.012.005-.012.004-.013.005-.014.005-.013.005-.012.005-.013.005-.014.005-.013.005-.012.005-.013.005-.014.005-.013.005-.011.005-.013.005-.014.005-.013.005-.012.005-.013.005-.014.006-.012.005-.012.004-.013.006-.014.005-.013.005-.012.005-.013.005-.013.006-.013.005-.012.005-.013.005-.014.006-.012.005-.012.005-.013.005-.014.006-.012.005-.012.005-.013.006-.014.005-.012.005-.012.006-.008.003.02-.009.026-.01.025-.011.026-.011.025-.01.026-.011.025-.01.026-.011.025-.01.027-.01.025-.01.026-.011.025-.01.027-.01.024-.01.027-.01.025-.01.027-.01.025-.01.027-.01.025-.009.027-.01.024-.01.028-.01.024-.009.028-.01.025-.009.027-.01.025-.008.027-.01.025-.009.028-.01.025-.008.027-.01.025-.009.028-.009.025-.008.027-.01.025-.008.028-.009.025-.009.028-.009.025-.008.028-.009.025-.008.028-.009.025-.008.028-.009.025-.008.028-.008.026-.008.027-.009.026-.008.027-.008.027-.008.027-.008.026-.008.027-.008.027-.007.027-.008.027-.008.022-.006-.009.002zm.578-.15-.01.002-.011.003-.015.003-.016.004-.011.003-.01.002-.015.004-.016.004-.01.002-.011.003-.015.004-.016.004-.01.002-.011.003-.015.004-.016.004-.01.002-.01.003-.016.004-.015.004-.011.003-.01.002-.016.004-.015.004-.01.003-.011.003-.009.002.02-.005.025-.007.026-.006.026-.007.026-.007.026-.006.026-.007.026-.006.026-.007.026-.006.025-.006.027-.007.026-.006.019-.005zm.758-.158c.227-.041.455-.076.686-.105l-.087.011c-.23.031-.458.067-.684.109zm1.558-.188-.022.001-.022.002-.011.001h-.011l-.022.002-.022.001-.011.001-.011.001-.022.002-.022.001-.011.001-.011.001-.022.002-.022.001-.011.001-.011.001-.022.002-.021.002-.011.001-.011.001-.022.002-.022.002-.011.001-.011.001-.022.002-.021.002-.009.001.03-.003.033-.003.033-.003.033-.003.032-.003.033-.003.033-.002.033-.003.033-.002.033-.003.033-.002.033-.002.033-.003.03-.002-.008.001zm.808-.028h-.017l-.038.001h-.013-.01-.016-.028l-.021.001h-.013-.013-.02l-.029.001h-.016l-.008.001h-.014l-.04.001h-.015-.004c-.025.001-.049.002-.073.003h-.001-.013l-.053.002h-.006l.059-.002h.014l.073-.003h.019l.054-.001.024-.001.049-.001h.026l.049-.001h.026l.051-.001h.022zm-13.677 15.133-.006-.069-.002-.013.001.004.001.009.003.035.003.034.001.009v.004zm-.015-.165.001.007-.002-.017z" fill-rule="nonzero"/></svg>